G04 #@! TF.FileFunction,Copper,L1,Top,Signal*
%FSLAX46Y46*%
G04 Gerber Fmt 4.6, Leading zero omitted, Abs format (unit mm)*
G04 Created by KiCad (PCBNEW 4.0.2-stable) date 4/21/2016 11:26:25 AM*
%MOMM*%
G01*
G04 APERTURE LIST*
%ADD10C,0.100000*%
%ADD11R,0.800000X0.750000*%
%ADD12R,0.750000X0.800000*%
%ADD13R,0.797560X0.797560*%
%ADD14R,2.029460X1.140460*%
%ADD15R,1.180000X4.340000*%
%ADD16R,0.400000X1.650000*%
%ADD17O,1.100000X1.500000*%
%ADD18O,1.200000X1.700000*%
%ADD19R,1.425000X2.500000*%
%ADD20O,3.500000X5.900000*%
%ADD21O,2.400000X5.200000*%
%ADD22O,5.200000X2.000000*%
%ADD23O,6.500000X2.000000*%
%ADD24O,2.050000X4.000000*%
%ADD25R,1.727200X2.032000*%
%ADD26O,1.727200X2.032000*%
%ADD27R,3.000000X1.500000*%
%ADD28R,1.727200X1.727200*%
%ADD29O,1.727200X1.727200*%
%ADD30R,2.032000X1.727200*%
%ADD31O,2.032000X1.727200*%
%ADD32R,2.032000X2.032000*%
%ADD33O,2.032000X2.032000*%
%ADD34C,1.800000*%
%ADD35R,0.900000X0.500000*%
%ADD36R,0.500000X0.900000*%
%ADD37R,3.500000X1.600000*%
%ADD38R,1.500000X0.300000*%
%ADD39R,0.300000X1.500000*%
%ADD40R,0.650000X1.060000*%
%ADD41R,0.300000X1.200000*%
%ADD42R,1.550000X0.600000*%
%ADD43R,0.800000X1.900000*%
%ADD44C,2.100000*%
%ADD45C,1.750000*%
%ADD46R,2.800000X1.000000*%
%ADD47R,1.600000X1.000000*%
%ADD48C,0.889000*%
%ADD49C,0.700000*%
%ADD50C,0.200000*%
%ADD51C,0.300000*%
%ADD52C,2.000000*%
%ADD53C,0.400000*%
%ADD54C,0.150000*%
%ADD55C,1.000000*%
%ADD56C,1.500000*%
G04 APERTURE END LIST*
D10*
D11*
X34582000Y24347500D03*
X36082000Y24347500D03*
D12*
X15303500Y26809000D03*
X15303500Y28309000D03*
D11*
X18834000Y40984500D03*
X20334000Y40984500D03*
D12*
X16827500Y26809000D03*
X16827500Y28309000D03*
D11*
X18834000Y42445000D03*
X20334000Y42445000D03*
D12*
X38888000Y36908500D03*
X38888000Y35408500D03*
X34062000Y35345000D03*
X34062000Y36845000D03*
X35205000Y30304500D03*
X35205000Y28804500D03*
X35205000Y31725500D03*
X35205000Y33225500D03*
D11*
X13095000Y8028000D03*
X11595000Y8028000D03*
X8674000Y14251000D03*
X10174000Y14251000D03*
D12*
X56604500Y53937800D03*
X56604500Y55437800D03*
X54128000Y46560500D03*
X54128000Y45060500D03*
D11*
X9880500Y21553500D03*
X11380500Y21553500D03*
X51957000Y50509500D03*
X50457000Y50509500D03*
X6197500Y21553500D03*
X7697500Y21553500D03*
D12*
X45291340Y52366940D03*
X45291340Y50866940D03*
X47424940Y52397420D03*
X47424940Y50897420D03*
D11*
X2832000Y21553500D03*
X4332000Y21553500D03*
D13*
X26950000Y16867200D03*
X26950000Y18365800D03*
X20572060Y16869740D03*
X20572060Y18368340D03*
D14*
X36983000Y9554540D03*
X36983000Y11962460D03*
D15*
X53195820Y54045180D03*
X49885820Y54045180D03*
D16*
X33143000Y6543500D03*
X33793000Y6543500D03*
X34442100Y6543500D03*
X35093000Y6543500D03*
X35743000Y6543500D03*
D17*
X32018000Y6668500D03*
X36868000Y6668500D03*
D18*
X31718000Y3668500D03*
X37168000Y3668500D03*
D19*
X33480500Y3418500D03*
X35405500Y3418500D03*
D20*
X47382000Y5146500D03*
D21*
X41682000Y7786500D03*
D22*
X43082000Y9386500D03*
D23*
X44882000Y3186500D03*
D24*
X48332000Y6136500D03*
D20*
X57796000Y5146500D03*
D21*
X52096000Y7786500D03*
D22*
X53496000Y9386500D03*
D23*
X55296000Y3186500D03*
D24*
X58746000Y6136500D03*
D25*
X44961140Y13128320D03*
D26*
X47501140Y13128320D03*
X50041140Y13128320D03*
D27*
X9987000Y46572500D03*
X9987000Y44032500D03*
X9987000Y41492500D03*
X9987000Y38952500D03*
X5487000Y47842500D03*
X5487000Y45302500D03*
X5487000Y42762500D03*
X5487000Y40222500D03*
X9987000Y36412500D03*
X5487000Y37682500D03*
D25*
X18822000Y13235000D03*
D26*
X21362000Y13235000D03*
X23902000Y13235000D03*
X26442000Y13235000D03*
X28982000Y13235000D03*
X31522000Y13235000D03*
D28*
X10440000Y52922500D03*
D29*
X10440000Y55462500D03*
X12980000Y52922500D03*
X12980000Y55462500D03*
X15520000Y52922500D03*
X15520000Y55462500D03*
X18060000Y52922500D03*
X18060000Y55462500D03*
X20600000Y52922500D03*
X20600000Y55462500D03*
X23140000Y52922500D03*
X23140000Y55462500D03*
X25680000Y52922500D03*
X25680000Y55462500D03*
X28220000Y52922500D03*
X28220000Y55462500D03*
X30760000Y52922500D03*
X30760000Y55462500D03*
X33300000Y52922500D03*
X33300000Y55462500D03*
X35840000Y52922500D03*
X35840000Y55462500D03*
X38380000Y52922500D03*
X38380000Y55462500D03*
X40920000Y52922500D03*
X40920000Y55462500D03*
D25*
X45783500Y17907000D03*
D26*
X43243500Y17907000D03*
X40703500Y17907000D03*
D30*
X11138500Y31840500D03*
D31*
X11138500Y29300500D03*
X11138500Y26760500D03*
X11138500Y24220500D03*
D30*
X7519000Y31840500D03*
D31*
X7519000Y29300500D03*
X7519000Y26760500D03*
X7519000Y24220500D03*
D32*
X54483600Y22340900D03*
D33*
X57023600Y22340900D03*
D34*
X54102600Y27649500D03*
X56602600Y27649500D03*
X59102600Y27649500D03*
X61602600Y27649500D03*
X64102600Y27649500D03*
X54001000Y34380500D03*
X56501000Y34380500D03*
X59001000Y34380500D03*
X61501000Y34380500D03*
X64001000Y34380500D03*
X54001000Y40857500D03*
X56501000Y40857500D03*
X59001000Y40857500D03*
X61501000Y40857500D03*
X64001000Y40857500D03*
D30*
X3899500Y31840500D03*
D31*
X3899500Y29300500D03*
X3899500Y26760500D03*
X3899500Y24220500D03*
D35*
X41428000Y35662500D03*
X41428000Y37162500D03*
X32829500Y25197500D03*
X32829500Y23697500D03*
D36*
X38876000Y38444500D03*
X37376000Y38444500D03*
D35*
X37364000Y35408500D03*
X37364000Y36908500D03*
D36*
X28335000Y23585500D03*
X26835000Y23585500D03*
D35*
X35586000Y37035500D03*
X35586000Y35535500D03*
D36*
X14897000Y8790000D03*
X16397000Y8790000D03*
D35*
X28791500Y18366500D03*
X28791500Y16866500D03*
X22403400Y16846180D03*
X22403400Y18346180D03*
D36*
X11341000Y9806000D03*
X12841000Y9806000D03*
X10301000Y12346000D03*
X8801000Y12346000D03*
D35*
X9614500Y9730500D03*
X9614500Y8230500D03*
X12154500Y12358000D03*
X12154500Y13858000D03*
X52350000Y45314500D03*
X52350000Y46814500D03*
D36*
X57164000Y44667500D03*
X55664000Y44667500D03*
X11190000Y19712000D03*
X9690000Y19712000D03*
X50584000Y48604500D03*
X52084000Y48604500D03*
D35*
X57684000Y46330500D03*
X57684000Y47830500D03*
X59462000Y47473500D03*
X59462000Y48973500D03*
X59589000Y44552500D03*
X59589000Y46052500D03*
D36*
X7570500Y19775500D03*
X6070500Y19775500D03*
X4268500Y19775500D03*
X2768500Y19775500D03*
D35*
X54763000Y15596500D03*
X54763000Y17096500D03*
D37*
X62256000Y18276900D03*
X62256000Y13400100D03*
D38*
X30995000Y29106500D03*
X30995000Y29606500D03*
X30995000Y30106500D03*
X30995000Y30606500D03*
X30995000Y31106500D03*
X30995000Y31606500D03*
X30995000Y32106500D03*
X30995000Y32606500D03*
X30995000Y33106500D03*
X30995000Y33606500D03*
X30995000Y34106500D03*
X30995000Y34606500D03*
X30995000Y35106500D03*
X30995000Y35606500D03*
X30995000Y36106500D03*
X30995000Y36606500D03*
D39*
X28795000Y38806500D03*
X28295000Y38806500D03*
X27795000Y38806500D03*
X27295000Y38806500D03*
X26795000Y38806500D03*
X26295000Y38806500D03*
X25795000Y38806500D03*
X25295000Y38806500D03*
X24795000Y38806500D03*
X24295000Y38806500D03*
X23795000Y38806500D03*
X23295000Y38806500D03*
X22795000Y38806500D03*
X22295000Y38806500D03*
X21795000Y38806500D03*
X21295000Y38806500D03*
D38*
X19095000Y36606500D03*
X19095000Y36106500D03*
X19095000Y35606500D03*
X19095000Y35106500D03*
X19095000Y34606500D03*
X19095000Y34106500D03*
X19095000Y33606500D03*
X19095000Y33106500D03*
X19095000Y32606500D03*
X19095000Y32106500D03*
X19095000Y31606500D03*
X19095000Y31106500D03*
X19095000Y30606500D03*
X19095000Y30106500D03*
X19095000Y29606500D03*
X19095000Y29106500D03*
D39*
X21295000Y26906500D03*
X21795000Y26906500D03*
X22295000Y26906500D03*
X22795000Y26906500D03*
X23295000Y26906500D03*
X23795000Y26906500D03*
X24295000Y26906500D03*
X24795000Y26906500D03*
X25295000Y26906500D03*
X25795000Y26906500D03*
X26295000Y26906500D03*
X26795000Y26906500D03*
X27295000Y26906500D03*
X27795000Y26906500D03*
X28295000Y26906500D03*
X28795000Y26906500D03*
D40*
X56607000Y15246500D03*
X57557000Y15246500D03*
X58507000Y15246500D03*
X58507000Y17446500D03*
X56607000Y17446500D03*
D41*
X57198860Y51972540D03*
X56548860Y51972540D03*
X55898860Y51972540D03*
X55248860Y51972540D03*
X55248860Y49372540D03*
X55898860Y49372540D03*
X56548860Y49372540D03*
X57198860Y49372540D03*
D42*
X44730000Y30316500D03*
X44730000Y29046500D03*
X44730000Y27776500D03*
X44730000Y26506500D03*
X44730000Y25236500D03*
X44730000Y23966500D03*
X44730000Y22696500D03*
X44730000Y21426500D03*
X50130000Y21426500D03*
X50130000Y22696500D03*
X50130000Y23966500D03*
X50130000Y25236500D03*
X50130000Y26506500D03*
X50130000Y27776500D03*
X50130000Y29046500D03*
X50130000Y30316500D03*
X44730000Y41365500D03*
X44730000Y40095500D03*
X44730000Y38825500D03*
X44730000Y37555500D03*
X44730000Y36285500D03*
X44730000Y35015500D03*
X44730000Y33745500D03*
X44730000Y32475500D03*
X50130000Y32475500D03*
X50130000Y33745500D03*
X50130000Y35015500D03*
X50130000Y36285500D03*
X50130000Y37555500D03*
X50130000Y38825500D03*
X50130000Y40095500D03*
X50130000Y41365500D03*
D43*
X39396000Y29046500D03*
X39396000Y32746500D03*
X37096000Y32746500D03*
X37096000Y29046500D03*
D44*
X10331500Y5565000D03*
D45*
X11591500Y3075000D03*
X16091500Y3075000D03*
D44*
X17341500Y5565000D03*
X6199000Y16772500D03*
D45*
X3709000Y15512500D03*
X3709000Y11012500D03*
D44*
X6199000Y9762500D03*
D46*
X27289000Y3456500D03*
X21489000Y3456500D03*
X27289000Y7456500D03*
X21489000Y7456500D03*
D47*
X58737500Y53237000D03*
X58737500Y56237000D03*
D48*
X47053500Y33020000D03*
X14033500Y28257500D03*
X38671500Y41783000D03*
X36221000Y34380500D03*
X33909000Y28384500D03*
X36094000Y22950500D03*
X26950000Y19839000D03*
X29337000Y20955000D03*
X46762000Y22061500D03*
X52895500Y17970500D03*
X59626500Y50165000D03*
X53276500Y44259500D03*
X19838000Y43842000D03*
X2857500Y38544500D03*
X11493500Y50736500D03*
X3836000Y35206000D03*
X34290000Y41148000D03*
X46355000Y49466500D03*
X55753000Y56388000D03*
X14440500Y10314000D03*
X8344500Y10695000D03*
X13779500Y12382500D03*
X28220000Y28538500D03*
X46609000Y24003000D03*
X32956500Y18923000D03*
X48133000Y22479000D03*
X13589000Y30416500D03*
X13589000Y33782000D03*
X14287500Y16954500D03*
X14478000Y15303500D03*
X16383000Y11176000D03*
X17970500Y10287000D03*
X31115000Y22542500D03*
X33655000Y22669500D03*
X48450500Y20129500D03*
X46926500Y53594000D03*
X46926500Y55181500D03*
X7773000Y40857500D03*
X38126000Y34507500D03*
X32665000Y33999500D03*
X30061500Y22506000D03*
X29236000Y31904000D03*
X55144000Y53811500D03*
X50826000Y45302500D03*
X38888000Y9488500D03*
X33046000Y9615500D03*
X27521500Y29427500D03*
X7773000Y42762500D03*
X27585000Y25109500D03*
X12573000Y43370500D03*
X17272000Y42291000D03*
X23013000Y49811000D03*
X26124500Y42762500D03*
X3201000Y45937500D03*
X18949000Y44540500D03*
X21108000Y46318500D03*
X24664000Y43778500D03*
X29299500Y42318000D03*
X12281500Y46636000D03*
X24410000Y41746500D03*
X8090500Y48541000D03*
X24791000Y40667000D03*
X15811500Y29591000D03*
X20510500Y30797500D03*
X17018000Y30353000D03*
X20917500Y31777000D03*
X12980000Y48223500D03*
X16218500Y48604500D03*
X20917500Y50890500D03*
X25172000Y47207500D03*
X12763500Y49811000D03*
X25172000Y45810500D03*
X15329500Y49303000D03*
X19076000Y50128500D03*
X24283000Y23903000D03*
X18097500Y20891500D03*
X20256500Y26479500D03*
X17488500Y33364500D03*
X25172000Y29872000D03*
X13525500Y35433000D03*
X14160500Y31940500D03*
X14986000Y30670500D03*
X14478000Y36004500D03*
X23076500Y46128000D03*
X25045000Y28538500D03*
X15621000Y35941000D03*
X16536000Y32856500D03*
X27013500Y45048500D03*
X25870500Y33809000D03*
X25426000Y25173000D03*
X22568500Y41492500D03*
X23267000Y28665500D03*
X20955000Y25082500D03*
X21108000Y33999500D03*
X17399000Y35179000D03*
X21679500Y35650500D03*
X21171500Y37174500D03*
X48540000Y31459500D03*
X48413000Y30062500D03*
X17742500Y39587500D03*
X18822000Y38762000D03*
X41301000Y34507500D03*
X32665000Y35142500D03*
X23939500Y18859500D03*
X21552500Y21807500D03*
X56033000Y46445500D03*
X58192000Y51525500D03*
X38354000Y23558500D03*
X28093000Y33110500D03*
X28855000Y33872500D03*
X42825000Y28919500D03*
X42952000Y30316500D03*
X28093000Y34634500D03*
X43206000Y36285500D03*
X29553500Y36285500D03*
X25553000Y37428500D03*
X24029000Y37428500D03*
X43079000Y37555500D03*
X31903000Y37936500D03*
X40539000Y39206500D03*
X26823000Y34444000D03*
X28791500Y35460000D03*
X42698000Y40222500D03*
X29172500Y30761000D03*
X36004500Y26987500D03*
X35078000Y22188500D03*
X22822500Y21744000D03*
X41809000Y28157500D03*
X41555000Y24347500D03*
X29299500Y40603500D03*
X42698000Y41492500D03*
X40539000Y23331500D03*
X40666000Y28157500D03*
X57086500Y57150000D03*
D49*
X56604500Y55437800D02*
X57938300Y55437800D01*
X57938300Y55437800D02*
X58737500Y56237000D01*
D50*
X36221000Y34380500D02*
X37247500Y34380500D01*
X38881500Y32746500D02*
X39396000Y32746500D01*
X37247500Y34380500D02*
X38881500Y32746500D01*
X37096000Y29046500D02*
X35447000Y29046500D01*
X35447000Y29046500D02*
X35205000Y28804500D01*
D51*
X3492500Y18859500D02*
X3492500Y15729000D01*
X3492500Y15729000D02*
X3709000Y15512500D01*
D52*
X43582000Y3186500D02*
X43682000Y3186500D01*
X43682000Y3186500D02*
X46682000Y6186500D01*
D50*
X36094000Y22950500D02*
X36094000Y24335500D01*
X36094000Y24335500D02*
X36082000Y24347500D01*
X44730000Y32475500D02*
X46509000Y32475500D01*
X46509000Y32475500D02*
X47053500Y33020000D01*
X15303500Y28309000D02*
X14363000Y28309000D01*
X14363000Y28309000D02*
X14033500Y28257500D01*
X16827500Y28309000D02*
X15303500Y28309000D01*
X19095000Y29606500D02*
X17922500Y29606500D01*
X17922500Y29606500D02*
X16827500Y28511500D01*
X16827500Y28511500D02*
X16827500Y28309000D01*
D53*
X52895500Y17970500D02*
X53889000Y17970500D01*
X53889000Y17970500D02*
X54763000Y17096500D01*
D50*
X7697500Y21553500D02*
X7697500Y24042000D01*
X7697500Y24042000D02*
X7519000Y24220500D01*
X4332000Y21553500D02*
X4332000Y23788000D01*
X4332000Y23788000D02*
X3899500Y24220500D01*
X37364000Y36908500D02*
X37364000Y36919500D01*
X37364000Y36919500D02*
X38163500Y37719000D01*
X38163500Y37719000D02*
X38163500Y41275000D01*
X38163500Y41275000D02*
X38671500Y41783000D01*
X56604500Y55437800D02*
X58103100Y55437800D01*
X13779500Y12382500D02*
X12179000Y12382500D01*
X12179000Y12382500D02*
X12154500Y12358000D01*
X24066500Y19839000D02*
X21236000Y19839000D01*
X21236000Y19839000D02*
X20572060Y19175060D01*
X35205000Y33364500D02*
X36221000Y34380500D01*
X35205000Y28804500D02*
X34329000Y28804500D01*
X34329000Y28804500D02*
X33909000Y28384500D01*
X36082000Y23343500D02*
X36094000Y23331500D01*
X36094000Y23331500D02*
X36094000Y22950500D01*
X36082000Y23343500D02*
X36082000Y24347500D01*
X28335000Y23585500D02*
X28335000Y21957000D01*
X28335000Y21957000D02*
X29337000Y20955000D01*
X26950000Y19839000D02*
X24066500Y19839000D01*
X20572060Y19175060D02*
X20572060Y18368340D01*
X26442000Y13235000D02*
X26442000Y15023500D01*
X26442000Y15023500D02*
X25527000Y15938500D01*
X25527000Y15938500D02*
X25527000Y19240500D01*
X25527000Y19240500D02*
X26125500Y19839000D01*
X26125500Y19839000D02*
X26950000Y19839000D01*
X26950000Y19839000D02*
X26950000Y18365800D01*
X46127000Y21426500D02*
X46762000Y22061500D01*
X46127000Y21426500D02*
X44730000Y21426500D01*
D54*
X59462000Y50000500D02*
X59462000Y48973500D01*
X59626500Y50165000D02*
X59462000Y50000500D01*
X54128000Y45060500D02*
X54077500Y45060500D01*
X54077500Y45060500D02*
X53276500Y44259500D01*
X33300000Y55462500D02*
X33300000Y56044500D01*
X33300000Y56044500D02*
X32575500Y56769000D01*
X26986500Y56769000D02*
X25680000Y55462500D01*
X32575500Y56769000D02*
X26986500Y56769000D01*
X33300000Y55462500D02*
X33300000Y55346000D01*
X33300000Y55346000D02*
X34417000Y54229000D01*
X34417000Y54229000D02*
X39613500Y54229000D01*
X39613500Y54229000D02*
X40920000Y52922500D01*
X20600000Y52922500D02*
X20600000Y52985000D01*
X20600000Y52985000D02*
X21844000Y54229000D01*
X24446500Y54229000D02*
X25680000Y55462500D01*
X21844000Y54229000D02*
X24446500Y54229000D01*
D50*
X15520000Y55462500D02*
X15721000Y55462500D01*
X15721000Y55462500D02*
X17018000Y54165500D01*
X19113500Y54165500D02*
X20356500Y52922500D01*
X17526000Y54165500D02*
X19113500Y54165500D01*
X17018000Y54165500D02*
X17526000Y54165500D01*
X20356500Y52922500D02*
X20600000Y52922500D01*
X20334000Y43346000D02*
X19838000Y43842000D01*
X20334000Y42445000D02*
X20334000Y43346000D01*
X5487000Y37682500D02*
X3719500Y37682500D01*
X3719500Y37682500D02*
X2857500Y38544500D01*
X15203500Y55462500D02*
X13906500Y54165500D01*
X13906500Y54165500D02*
X12255500Y54165500D01*
X12255500Y54165500D02*
X11747500Y53657500D01*
X11747500Y53657500D02*
X11747500Y50990500D01*
X11747500Y50990500D02*
X11493500Y50736500D01*
X15520000Y55462500D02*
X15203500Y55462500D01*
X3899500Y24220500D02*
X4281500Y24220500D01*
X4281500Y24220500D02*
X5461000Y25400000D01*
D54*
X3836000Y36793500D02*
X3836000Y35206000D01*
X4725000Y37682500D02*
X3836000Y36793500D01*
D50*
X5461000Y33581000D02*
X3836000Y35206000D01*
X5461000Y25400000D02*
X5461000Y33581000D01*
D51*
X3492500Y20637500D02*
X4332000Y21477000D01*
X3492500Y18859500D02*
X3492500Y20637500D01*
X4332000Y21477000D02*
X4332000Y21553500D01*
X35743000Y6543500D02*
X35743000Y3756000D01*
X35743000Y3756000D02*
X35405500Y3418500D01*
X37168000Y3668500D02*
X35655500Y3668500D01*
X35655500Y3668500D02*
X35405500Y3418500D01*
X31718000Y3668500D02*
X33230500Y3668500D01*
X33230500Y3668500D02*
X33480500Y3418500D01*
X34062000Y40920000D02*
X34290000Y41148000D01*
X34062000Y36845000D02*
X34062000Y40920000D01*
X47424940Y50897420D02*
X47424940Y50536440D01*
X47424940Y50536440D02*
X46355000Y49466500D01*
X56604500Y55437800D02*
X56604500Y55536500D01*
X56604500Y55536500D02*
X55753000Y56388000D01*
X46355000Y49466500D02*
X45291340Y50530160D01*
X45291340Y50530160D02*
X45291340Y50866940D01*
X56604500Y55437800D02*
X56576200Y55437800D01*
X47394460Y50866940D02*
X47424940Y50897420D01*
D50*
X55248860Y51972540D02*
X55248860Y52002640D01*
X55248860Y52002640D02*
X54292500Y52959000D01*
X54292500Y52959000D02*
X54292500Y54673500D01*
X54292500Y54673500D02*
X55056800Y55437800D01*
X55056800Y55437800D02*
X56604500Y55437800D01*
X20572060Y18368340D02*
X20557160Y18368340D01*
X14897000Y8790000D02*
X14897000Y9857500D01*
X14897000Y9857500D02*
X14440500Y10314000D01*
X9614500Y9730500D02*
X9309000Y9730500D01*
X9309000Y9730500D02*
X8344500Y10695000D01*
X11138500Y24220500D02*
X11138500Y21795500D01*
X11138500Y21795500D02*
X11380500Y21553500D01*
X7519000Y21732000D02*
X7697500Y21553500D01*
D54*
X5487000Y37682500D02*
X4725000Y37682500D01*
D50*
X20334000Y40984500D02*
X20334000Y42445000D01*
X21795000Y38806500D02*
X21795000Y39853000D01*
X20905500Y40413000D02*
X20334000Y40984500D01*
X21235000Y40413000D02*
X20905500Y40413000D01*
X21795000Y39853000D02*
X21235000Y40413000D01*
D54*
X28295000Y26906500D02*
X28295000Y28463500D01*
X28295000Y28463500D02*
X28220000Y28538500D01*
X28335000Y23585500D02*
X28335000Y26866500D01*
X28335000Y26866500D02*
X28295000Y26906500D01*
D50*
X35205000Y33225500D02*
X35205000Y33364500D01*
D53*
X57557000Y15246500D02*
X57557000Y15838500D01*
X55513000Y16346500D02*
X54763000Y17096500D01*
X57049000Y16346500D02*
X55513000Y16346500D01*
X57557000Y15838500D02*
X57049000Y16346500D01*
D52*
X37168000Y3668500D02*
X31718000Y3668500D01*
X37168000Y3668500D02*
X38993000Y3668500D01*
X39475000Y3186500D02*
X43582000Y3186500D01*
X38993000Y3668500D02*
X39475000Y3186500D01*
X43582000Y3186500D02*
X54096000Y3186500D01*
X54096000Y3186500D02*
X57096000Y6186500D01*
D49*
X46609000Y24003000D02*
X48133000Y22479000D01*
X48196500Y43243500D02*
X48196500Y32702500D01*
X46609000Y31115000D02*
X46609000Y24003000D01*
X48196500Y32702500D02*
X46609000Y31115000D01*
X43434000Y45148500D02*
X46291500Y45148500D01*
X46291500Y45148500D02*
X48196500Y43243500D01*
X37376000Y42646500D02*
X37376000Y38444500D01*
X43434000Y49784000D02*
X43434000Y45148500D01*
X38671500Y43942000D02*
X37376000Y42646500D01*
X42227500Y43942000D02*
X38671500Y43942000D01*
X43434000Y45148500D02*
X42227500Y43942000D01*
X43434000Y52768500D02*
X43434000Y49784000D01*
X32956500Y18923000D02*
X31750000Y18923000D01*
X31522000Y18923000D02*
X31522000Y13235000D01*
D53*
X31750000Y18923000D02*
X31522000Y18923000D01*
D49*
X15303500Y26809000D02*
X12966000Y26809000D01*
D50*
X12966000Y26809000D02*
X12954000Y26797000D01*
D49*
X12954000Y26797000D02*
X12954000Y21476000D01*
D50*
X12954000Y21476000D02*
X11190000Y19712000D01*
D49*
X14287500Y16954500D02*
X13335000Y16954500D01*
X13335000Y16954500D02*
X11190000Y19099500D01*
D50*
X11190000Y19099500D02*
X11190000Y19712000D01*
X16827500Y26809000D02*
X17538000Y26809000D01*
X19095000Y28366000D02*
X19095000Y29106500D01*
X17538000Y26809000D02*
X19095000Y28366000D01*
D53*
X12954000Y26797000D02*
X16815500Y26797000D01*
X16815500Y26797000D02*
X16827500Y26809000D01*
D49*
X31522000Y13235000D02*
X31522000Y22135500D01*
D53*
X31522000Y22135500D02*
X31115000Y22542500D01*
X12954000Y25844500D02*
X12954000Y23495000D01*
X12954000Y25844500D02*
X12954000Y26797000D01*
X12954000Y26797000D02*
X12954000Y27305000D01*
X12954000Y23495000D02*
X12954000Y21476000D01*
D49*
X12954000Y21476000D02*
X11190000Y19712000D01*
D53*
X12954000Y27305000D02*
X12954000Y29781500D01*
X12954000Y29781500D02*
X13589000Y30416500D01*
D49*
X31522000Y13235000D02*
X31522000Y11330000D01*
X31522000Y11330000D02*
X29718000Y9526000D01*
D53*
X29718000Y5885500D02*
X27289000Y3456500D01*
X29718000Y9526000D02*
X29718000Y5885500D01*
X55130500Y18923000D02*
X56607000Y17446500D01*
X49530000Y18923000D02*
X55130500Y18923000D01*
X48450500Y20002500D02*
X49530000Y18923000D01*
X48450500Y20129500D02*
X48450500Y20002500D01*
D51*
X18834000Y40984500D02*
X17616500Y40984500D01*
D50*
X13589000Y30416500D02*
X12954000Y29781500D01*
D51*
X14732000Y33782000D02*
X13589000Y33782000D01*
X16891000Y35941000D02*
X14732000Y33782000D01*
X16891000Y40259000D02*
X16891000Y35941000D01*
X17616500Y40984500D02*
X16891000Y40259000D01*
D53*
X11190000Y19712000D02*
X11190000Y19099500D01*
X11190000Y19099500D02*
X13335000Y16954500D01*
D50*
X14478000Y15303500D02*
X14732000Y15049500D01*
D53*
X14732000Y15049500D02*
X14732000Y11176000D01*
D50*
X11190000Y19712000D02*
X11190000Y19064000D01*
D53*
X8219500Y18542000D02*
X7570500Y19191000D01*
X10668000Y18542000D02*
X8219500Y18542000D01*
X11190000Y19064000D02*
X10668000Y18542000D01*
D50*
X4268500Y19775500D02*
X4268500Y19417000D01*
D53*
X4268500Y19417000D02*
X5143500Y18542000D01*
X5143500Y18542000D02*
X6921500Y18542000D01*
X6921500Y18542000D02*
X7570500Y19191000D01*
D50*
X7570500Y19191000D02*
X7570500Y19775500D01*
X31115000Y22542500D02*
X31115000Y22669500D01*
D53*
X31115000Y22669500D02*
X28795000Y24989500D01*
D50*
X28795000Y24989500D02*
X28795000Y26906500D01*
X11341000Y9806000D02*
X11341000Y9817000D01*
D53*
X11341000Y9817000D02*
X12700000Y11176000D01*
X12700000Y11176000D02*
X14732000Y11176000D01*
D49*
X18769000Y9488500D02*
X29680500Y9488500D01*
D53*
X14732000Y11176000D02*
X16383000Y11176000D01*
D49*
X17970500Y10287000D02*
X18769000Y9488500D01*
D50*
X32829500Y23697500D02*
X32829500Y23495000D01*
X32829500Y23495000D02*
X33655000Y22669500D01*
D53*
X59589000Y44095000D02*
X59589000Y44552500D01*
X48196500Y43243500D02*
X58737500Y43243500D01*
X58737500Y43243500D02*
X59589000Y44095000D01*
X35586000Y37035500D02*
X35586000Y37999000D01*
X36004500Y38417500D02*
X37349000Y38417500D01*
X35586000Y37999000D02*
X36004500Y38417500D01*
D51*
X37349000Y38417500D02*
X37376000Y38444500D01*
D53*
X46926500Y53594000D02*
X46926500Y52895860D01*
X46926500Y52895860D02*
X47424940Y52397420D01*
D55*
X46926500Y53594000D02*
X46926500Y55181500D01*
D50*
X31522000Y11330000D02*
X29680500Y9488500D01*
X27289000Y3456500D02*
X27839500Y3456500D01*
X27289000Y3456500D02*
X21489000Y3456500D01*
D53*
X10301000Y12346000D02*
X10301000Y10846000D01*
X10301000Y10846000D02*
X11341000Y9806000D01*
D51*
X18834000Y42445000D02*
X18834000Y40984500D01*
X18834000Y40984500D02*
X20663500Y39155000D01*
D50*
X20663500Y39155000D02*
X20663500Y39143000D01*
D51*
X20663500Y39143000D02*
X21000000Y38806500D01*
X21000000Y38806500D02*
X21295000Y38806500D01*
D49*
X47424940Y52397420D02*
X45321820Y52397420D01*
X45321820Y52397420D02*
X45291340Y52366940D01*
X47424940Y52397420D02*
X48238060Y52397420D01*
X48238060Y52397420D02*
X49885820Y54045180D01*
D50*
X26950000Y16867200D02*
X28790800Y16867200D01*
X28790800Y16867200D02*
X28791500Y16866500D01*
D54*
X8408000Y41492500D02*
X9987000Y41492500D01*
X7773000Y40857500D02*
X8408000Y41492500D01*
D50*
X32829500Y25197500D02*
X32829500Y25146000D01*
X32829500Y25146000D02*
X33628000Y24347500D01*
X33628000Y24347500D02*
X34582000Y24347500D01*
X30995000Y29106500D02*
X30995000Y28250500D01*
X32829500Y26416000D02*
X32829500Y25197500D01*
X30995000Y28250500D02*
X32829500Y26416000D01*
X38888000Y36908500D02*
X38888000Y38432500D01*
X38888000Y38432500D02*
X38876000Y38444500D01*
X41428000Y37162500D02*
X39142000Y37162500D01*
X39142000Y37162500D02*
X38888000Y36908500D01*
X30995000Y34606500D02*
X31804000Y34606500D01*
X38126000Y34507500D02*
X37999000Y34634500D01*
X32411000Y33999500D02*
X32665000Y33999500D01*
X31804000Y34606500D02*
X32411000Y33999500D01*
X37999000Y34634500D02*
X38114000Y34634500D01*
X38114000Y34634500D02*
X38888000Y35408500D01*
X37364000Y35408500D02*
X37606000Y35408500D01*
X37606000Y35408500D02*
X37999000Y35015500D01*
X37999000Y35015500D02*
X37999000Y34634500D01*
X37364000Y35269500D02*
X37364000Y35408500D01*
X34062000Y35345000D02*
X35395500Y35345000D01*
X35395500Y35345000D02*
X35586000Y35535500D01*
X30061500Y22506000D02*
X30061500Y14441500D01*
X30061500Y14441500D02*
X30252000Y14251000D01*
X30252000Y12854000D02*
X30252000Y11647500D01*
X30252000Y14251000D02*
X30252000Y12854000D01*
X27775500Y10441000D02*
X21933500Y10441000D01*
X21933500Y10441000D02*
X21362000Y11012500D01*
X21362000Y11012500D02*
X21362000Y13235000D01*
X30252000Y11647500D02*
X29045500Y10441000D01*
X29045500Y10441000D02*
X27775500Y10441000D01*
X30995000Y32106500D02*
X29438500Y32106500D01*
X29438500Y32106500D02*
X29236000Y31904000D01*
X34189000Y32856500D02*
X34189000Y35154500D01*
X34189000Y35154500D02*
X34316000Y35281500D01*
X30995000Y32106500D02*
X33439000Y32106500D01*
X33439000Y32106500D02*
X34189000Y32856500D01*
X35205000Y30304500D02*
X35955000Y30304500D01*
X38634000Y30443500D02*
X39396000Y29681500D01*
X36094000Y30443500D02*
X38634000Y30443500D01*
X35955000Y30304500D02*
X36094000Y30443500D01*
X39396000Y29681500D02*
X39396000Y29046500D01*
X30995000Y31106500D02*
X34403000Y31106500D01*
X34403000Y31106500D02*
X35205000Y30304500D01*
X35205000Y31725500D02*
X36717000Y31725500D01*
X36717000Y31725500D02*
X37096000Y32104500D01*
X37096000Y32104500D02*
X37096000Y32746500D01*
X30995000Y31606500D02*
X35086000Y31606500D01*
X35086000Y31606500D02*
X35205000Y31725500D01*
D53*
X58737500Y53237000D02*
X58737500Y53530500D01*
X58737500Y53530500D02*
X58330200Y53937800D01*
X58330200Y53937800D02*
X56604500Y53937800D01*
D49*
X58737500Y53237000D02*
X59020500Y53237000D01*
X59020500Y53237000D02*
X64001000Y48256500D01*
D51*
X58507000Y17446500D02*
X60372500Y17446500D01*
X60372500Y17446500D02*
X61202900Y18276900D01*
X61202900Y18276900D02*
X62256000Y18276900D01*
D52*
X64001000Y34380500D02*
X64001000Y40857500D01*
X64102600Y27649500D02*
X64102600Y34278900D01*
X64102600Y34278900D02*
X64001000Y34380500D01*
X62256000Y18276900D02*
X62256000Y18632500D01*
X62256000Y18632500D02*
X64102600Y20479100D01*
X64102600Y20479100D02*
X64102600Y27649500D01*
D49*
X47370500Y20511000D02*
X47370500Y20510000D01*
X47370500Y20510000D02*
X45783500Y18923000D01*
X45783500Y18923000D02*
X45783500Y17907000D01*
X50130000Y32475500D02*
X51461000Y32475500D01*
X52858000Y31078500D02*
X64102600Y31078500D01*
X51461000Y32475500D02*
X52858000Y31078500D01*
X50130000Y21426500D02*
X50953000Y21426500D01*
X60757400Y19775500D02*
X62256000Y18276900D01*
X52604000Y19775500D02*
X60757400Y19775500D01*
X50953000Y21426500D02*
X52604000Y19775500D01*
X50130000Y21426500D02*
X48286000Y21426500D01*
X48286000Y21426500D02*
X47370500Y20511000D01*
X47370500Y20511000D02*
X45746000Y18886500D01*
D53*
X52350000Y45314500D02*
X50838000Y45314500D01*
X55270300Y53937800D02*
X56604500Y53937800D01*
X55144000Y53811500D02*
X55270300Y53937800D01*
X50838000Y45314500D02*
X50826000Y45302500D01*
D51*
X56548860Y51972540D02*
X56548860Y53882160D01*
X56548860Y53882160D02*
X56604500Y53937800D01*
D49*
X64001000Y48256500D02*
X64001000Y40857500D01*
D56*
X62256000Y18632500D02*
X64102600Y20479100D01*
X64102600Y20479100D02*
X64102600Y31078500D01*
X64102600Y31078500D02*
X64102600Y34278900D01*
X64102600Y34278900D02*
X64001000Y34380500D01*
D50*
X11595000Y8028000D02*
X9817000Y8028000D01*
X9817000Y8028000D02*
X9614500Y8230500D01*
X10174000Y14251000D02*
X11761500Y14251000D01*
X11761500Y14251000D02*
X12154500Y13858000D01*
D51*
X54128000Y46560500D02*
X54648000Y46560500D01*
X55664000Y45544500D02*
X55664000Y44667500D01*
X54648000Y46560500D02*
X55664000Y45544500D01*
X56548860Y49372540D02*
X56548860Y48358360D01*
X54751000Y46560500D02*
X54128000Y46560500D01*
X56548860Y48358360D02*
X54751000Y46560500D01*
D50*
X9880500Y21553500D02*
X9880500Y19902500D01*
X9880500Y19902500D02*
X9690000Y19712000D01*
X11138500Y31840500D02*
X11075000Y31840500D01*
X11075000Y31840500D02*
X9424000Y30189500D01*
X9424000Y30189500D02*
X9424000Y22010000D01*
X9424000Y22010000D02*
X9880500Y21553500D01*
D55*
X53195820Y54045180D02*
X53195820Y51060680D01*
X53195820Y51060680D02*
X53239000Y51017500D01*
D49*
X55652000Y50636500D02*
X56033000Y50636500D01*
X55525000Y50636500D02*
X55652000Y50636500D01*
X51957000Y50509500D02*
X52858000Y50509500D01*
X52858000Y50509500D02*
X52985000Y50636500D01*
X52985000Y50636500D02*
X55525000Y50636500D01*
D51*
X55898860Y50883360D02*
X55898860Y51972540D01*
X55652000Y50636500D02*
X55898860Y50883360D01*
X52985000Y50636500D02*
X55652000Y50636500D01*
X52858000Y50509500D02*
X52985000Y50636500D01*
X50584000Y48604500D02*
X50584000Y50382500D01*
X50584000Y50382500D02*
X50457000Y50509500D01*
D50*
X6197500Y21553500D02*
X6197500Y22314000D01*
X6032500Y30354000D02*
X7519000Y31840500D01*
X6032500Y22479000D02*
X6032500Y30354000D01*
X6197500Y22314000D02*
X6032500Y22479000D01*
X6197500Y21553500D02*
X6197500Y19902500D01*
X6197500Y19902500D02*
X6070500Y19775500D01*
X2832000Y21553500D02*
X2832000Y19839000D01*
X2832000Y19839000D02*
X2768500Y19775500D01*
X3899500Y31840500D02*
X3645500Y31840500D01*
X3645500Y31840500D02*
X2375500Y30570500D01*
X2375500Y22010000D02*
X2832000Y21553500D01*
X2375500Y30570500D02*
X2375500Y22010000D01*
X3836000Y31840500D02*
X3899500Y31840500D01*
X22403400Y16846180D02*
X20595620Y16846180D01*
X20595620Y16846180D02*
X20572060Y16869740D01*
D53*
X33143000Y6543500D02*
X33143000Y9518500D01*
D49*
X38821960Y9554540D02*
X36983000Y9554540D01*
D53*
X38888000Y9488500D02*
X38821960Y9554540D01*
X33143000Y9518500D02*
X33046000Y9615500D01*
D55*
X44961140Y13128320D02*
X38148860Y13128320D01*
X38148860Y13128320D02*
X36983000Y11962460D01*
D50*
X27295000Y26906500D02*
X27295000Y29201000D01*
X27295000Y29201000D02*
X27521500Y29427500D01*
X7773000Y42762500D02*
X5487000Y42762500D01*
X27795000Y25319500D02*
X27585000Y25109500D01*
X27795000Y26906500D02*
X27795000Y25319500D01*
X11911000Y44032500D02*
X9987000Y44032500D01*
X12573000Y43370500D02*
X11911000Y44032500D01*
X17272000Y42291000D02*
X17272000Y44069000D01*
X23013000Y49811000D02*
X17907000Y44705000D01*
X17272000Y44069000D02*
X17907000Y44704000D01*
X17907000Y44704000D02*
X17907000Y44705000D01*
D54*
X26295000Y39968500D02*
X26295000Y42592000D01*
X26295000Y42592000D02*
X26124500Y42762500D01*
X26295000Y39968500D02*
X26295000Y38806500D01*
X3836000Y45302500D02*
X5487000Y45302500D01*
X3201000Y45937500D02*
X3836000Y45302500D01*
X25362500Y43207000D02*
X25235500Y43207000D01*
X19330000Y44540500D02*
X18949000Y44540500D01*
X21108000Y46318500D02*
X19330000Y44540500D01*
X25235500Y43207000D02*
X24664000Y43778500D01*
X25795000Y39778000D02*
X25795000Y41695000D01*
X25362500Y42127500D02*
X25362500Y43207000D01*
X25795000Y41695000D02*
X25362500Y42127500D01*
X25795000Y38806500D02*
X25795000Y39778000D01*
X28029500Y43588000D02*
X29299500Y42318000D01*
X25743500Y43588000D02*
X28029500Y43588000D01*
X25362500Y43207000D02*
X25743500Y43588000D01*
X12281500Y46636000D02*
X10050500Y46636000D01*
X10050500Y46636000D02*
X9987000Y46572500D01*
X11900500Y46572500D02*
X9987000Y46572500D01*
X12281500Y46636000D02*
X11900500Y46572500D01*
X24410000Y41746500D02*
X24410000Y41873500D01*
X23902000Y42381500D02*
X23902000Y42762500D01*
X24410000Y41873500D02*
X23902000Y42381500D01*
X24283000Y44667500D02*
X24727500Y44667500D01*
X24727500Y44667500D02*
X26251500Y44667500D01*
X26795000Y38806500D02*
X26795000Y40512000D01*
X28664500Y44096000D02*
X26823000Y44096000D01*
X30252000Y42508500D02*
X28664500Y44096000D01*
X30252000Y41746500D02*
X30252000Y42508500D01*
X29934500Y41429000D02*
X30252000Y41746500D01*
X27712000Y41429000D02*
X29934500Y41429000D01*
X26795000Y40512000D02*
X27712000Y41429000D01*
X26251500Y44667500D02*
X26823000Y44096000D01*
X23902000Y42762500D02*
X23902000Y44286500D01*
X23902000Y44286500D02*
X24283000Y44667500D01*
X7392000Y47842500D02*
X5487000Y47842500D01*
X8090500Y48541000D02*
X7392000Y47842500D01*
X25295000Y40163000D02*
X24791000Y40667000D01*
X25295000Y38806500D02*
X25295000Y40163000D01*
X17725000Y31106500D02*
X19095000Y31106500D01*
X17653000Y31178500D02*
X17725000Y31106500D01*
X16510000Y31178500D02*
X17653000Y31178500D01*
X15811500Y30480000D02*
X16510000Y31178500D01*
X15811500Y29591000D02*
X15811500Y30480000D01*
X21399500Y30659500D02*
X20648500Y30659500D01*
X20648500Y30659500D02*
X20510500Y30797500D01*
X18410000Y31021500D02*
X18495000Y31106500D01*
X18495000Y31106500D02*
X19095000Y31106500D01*
X20512628Y30800550D02*
X20510500Y30798422D01*
X20510500Y30798422D02*
X20510500Y30797500D01*
X27389656Y30659500D02*
X21399500Y30659500D01*
X31230000Y26819156D02*
X27389656Y30659500D01*
X31230000Y23390156D02*
X31230000Y26819156D01*
X33952550Y20667606D02*
X31230000Y23390156D01*
X33793000Y6543500D02*
X33793000Y7781000D01*
X33793000Y7781000D02*
X33952550Y7940550D01*
X33952550Y7940550D02*
X33952550Y20667606D01*
X17272000Y30353000D02*
X17525500Y30606500D01*
X17525500Y30606500D02*
X19095000Y30606500D01*
X17018000Y30353000D02*
X17272000Y30353000D01*
X21870000Y30989500D02*
X21715500Y30989500D01*
X31560000Y26955844D02*
X27526344Y30989500D01*
X31560000Y23526844D02*
X31560000Y26955844D01*
X34282550Y20804294D02*
X31560000Y23526844D01*
X34442100Y6543500D02*
X34442100Y7781000D01*
X34442100Y7781000D02*
X34282550Y7940550D01*
X34282550Y7940550D02*
X34282550Y20804294D01*
X27526344Y30989500D02*
X21870000Y30989500D01*
X20928000Y31777000D02*
X21715500Y30989500D01*
X20917500Y31777000D02*
X20928000Y31777000D01*
X18410000Y30691500D02*
X18495000Y30606500D01*
X18495000Y30606500D02*
X19095000Y30606500D01*
D52*
X41682000Y6186500D02*
X41682000Y7486500D01*
X41682000Y7486500D02*
X43582000Y9386500D01*
D50*
X43582000Y9386500D02*
X43582000Y8086500D01*
X43582000Y8086500D02*
X41682000Y6186500D01*
D52*
X50041140Y13128320D02*
X50041140Y11162360D01*
X50041140Y11162360D02*
X51207000Y9996500D01*
X51207000Y9996500D02*
X53996000Y9386500D01*
X53996000Y9386500D02*
X53782960Y9386500D01*
X53782960Y9386500D02*
X50041140Y13128320D01*
X53996000Y9386500D02*
X53996000Y8086500D01*
X53996000Y8086500D02*
X52096000Y6186500D01*
X43582000Y9386500D02*
X45771000Y9386500D01*
X46381000Y9996500D02*
X53386000Y9996500D01*
X45771000Y9386500D02*
X46381000Y9996500D01*
X53386000Y9996500D02*
X53996000Y9386500D01*
D51*
X58507000Y15246500D02*
X59419000Y15246500D01*
X59419000Y15246500D02*
X61265400Y13400100D01*
D53*
X61265400Y13400100D02*
X62256000Y13400100D01*
D56*
X62256000Y13400100D02*
X53772400Y13400100D01*
X47501140Y14291640D02*
X47501140Y13128320D01*
X48921000Y15711500D02*
X47501140Y14291640D01*
X51461000Y15711500D02*
X48921000Y15711500D01*
X53772400Y13400100D02*
X51461000Y15711500D01*
D50*
X13361000Y47434500D02*
X13361000Y47842500D01*
X13361000Y47842500D02*
X12980000Y48223500D01*
X13361000Y40222500D02*
X12091000Y38952500D01*
X13361000Y47434500D02*
X13361000Y40222500D01*
X12091000Y38952500D02*
X9987000Y38952500D01*
X18631500Y48604500D02*
X16218500Y48604500D01*
X20917500Y50890500D02*
X18631500Y48604500D01*
D54*
X25172000Y47207500D02*
X27267500Y47207500D01*
X32982500Y37746000D02*
X32792000Y37555500D01*
X32982500Y41492500D02*
X32982500Y37746000D01*
X27267500Y47207500D02*
X32982500Y41492500D01*
X30995000Y36606500D02*
X31843000Y36606500D01*
X31843000Y36606500D02*
X32792000Y37555500D01*
D50*
X3074000Y40222500D02*
X2413000Y40883500D01*
X2413000Y48196500D02*
X2413000Y40883500D01*
X3937000Y49720500D02*
X2413000Y48196500D01*
X12673000Y49720500D02*
X3937000Y49720500D01*
X12673000Y49720500D02*
X12763500Y49811000D01*
X3074000Y40222500D02*
X5487000Y40222500D01*
X29471000Y38806500D02*
X28795000Y38806500D01*
X27712000Y45810500D02*
X28601000Y44921500D01*
X25172000Y45810500D02*
X27712000Y45810500D01*
X30252000Y39587500D02*
X29471000Y38806500D01*
X28601000Y44921500D02*
X30093250Y43429250D01*
X31204500Y42318000D02*
X31204500Y40540000D01*
X31204500Y40540000D02*
X30252000Y39587500D01*
X30093250Y43429250D02*
X31204500Y42318000D01*
X15329500Y49303000D02*
X18250500Y49303000D01*
X18250500Y49303000D02*
X19076000Y50128500D01*
X5487000Y40222500D02*
X3074000Y40222500D01*
X19076000Y50128500D02*
X18250500Y49303000D01*
X24283000Y23903000D02*
X24283000Y20790500D01*
X18822000Y18504500D02*
X18822000Y13235000D01*
X20701000Y20383500D02*
X18822000Y18504500D01*
X23876000Y20383500D02*
X20701000Y20383500D01*
X24283000Y20790500D02*
X23876000Y20383500D01*
D54*
X24295000Y23915000D02*
X24295000Y26906500D01*
X24283000Y23903000D02*
X24295000Y23915000D01*
D50*
X19685000Y27876500D02*
X17780000Y25971500D01*
X17780000Y21209000D02*
X18097500Y20891500D01*
X17780000Y25971500D02*
X17780000Y21209000D01*
X20312500Y30106500D02*
X20891500Y29527500D01*
X19095000Y30106500D02*
X20312500Y30106500D01*
X20891500Y29083000D02*
X19685000Y27876500D01*
X20891500Y29527500D02*
X20891500Y29083000D01*
X20683500Y26906500D02*
X21295000Y26906500D01*
X20256500Y26479500D02*
X20683500Y26906500D01*
X13869000Y48704500D02*
X13869000Y48424500D01*
X14033500Y39752000D02*
X13869000Y39587500D01*
X14033500Y48260000D02*
X14033500Y39752000D01*
X13869000Y48424500D02*
X14033500Y48260000D01*
X12599000Y34861500D02*
X12599000Y33375000D01*
X12599000Y34861500D02*
X12599000Y38317500D01*
X12599000Y38317500D02*
X13869000Y39587500D01*
X17361500Y34106500D02*
X15945500Y34106500D01*
X12599000Y33375000D02*
X13144500Y32829500D01*
X13144500Y32829500D02*
X14668500Y32829500D01*
X14668500Y32829500D02*
X15945500Y34106500D01*
X13095000Y8028000D02*
X13095000Y9552000D01*
X13095000Y9552000D02*
X12841000Y9806000D01*
X16091500Y3075000D02*
X16091500Y3138500D01*
X16091500Y3138500D02*
X13095000Y6135000D01*
X13095000Y6135000D02*
X13095000Y8028000D01*
X17361500Y34106500D02*
X17361500Y33491500D01*
X17361500Y33491500D02*
X17488500Y33364500D01*
X19095000Y34106500D02*
X17361500Y34106500D01*
X12980000Y52922500D02*
X12980000Y52351000D01*
X12980000Y52351000D02*
X13869000Y51462000D01*
X13869000Y51462000D02*
X13869000Y48704500D01*
X20383000Y27686500D02*
X20383000Y27685500D01*
X18859500Y21526500D02*
X18859500Y20384500D01*
X18415000Y21971000D02*
X18859500Y21526500D01*
X18415000Y25717500D02*
X18415000Y21971000D01*
X20383000Y27685500D02*
X18415000Y25717500D01*
X8674000Y14251000D02*
X8674000Y14707500D01*
X8674000Y14707500D02*
X10186000Y16219500D01*
X10186000Y16219500D02*
X14694500Y16219500D01*
X14694500Y16219500D02*
X18859500Y20384500D01*
X24918000Y29618000D02*
X25172000Y29872000D01*
X22314500Y29618000D02*
X24918000Y29618000D01*
X20383000Y27686500D02*
X22314500Y29618000D01*
X8801000Y12346000D02*
X8801000Y14124000D01*
X8801000Y14124000D02*
X8674000Y14251000D01*
X3709000Y11012500D02*
X3772500Y11012500D01*
X3772500Y11012500D02*
X5106000Y12346000D01*
X5106000Y12346000D02*
X8801000Y12346000D01*
D54*
X25795000Y28868000D02*
X25172000Y29491000D01*
X25795000Y28856000D02*
X25795000Y26906500D01*
X25795000Y28856000D02*
X25795000Y28868000D01*
X25172000Y29491000D02*
X25172000Y29872000D01*
D50*
X14287500Y37274500D02*
X14668500Y37655500D01*
X14668500Y48641000D02*
X14377000Y48932500D01*
X14668500Y37655500D02*
X14668500Y48641000D01*
X14160500Y31940500D02*
X14478000Y31940500D01*
X14478000Y31940500D02*
X14644000Y32106500D01*
X13589000Y35496500D02*
X13589000Y36576000D01*
X13525500Y35433000D02*
X13589000Y35496500D01*
X17806000Y52922500D02*
X14377000Y49493500D01*
X14377000Y49493500D02*
X14377000Y48932500D01*
X13589000Y36576000D02*
X14287500Y37274500D01*
X19095000Y32106500D02*
X14644000Y32106500D01*
D54*
X18060000Y52922500D02*
X17806000Y52922500D01*
D50*
X16002000Y31606500D02*
X15922000Y31606500D01*
X15922000Y31606500D02*
X14986000Y30670500D01*
X15266000Y37782500D02*
X15266000Y38443500D01*
X23140000Y52033500D02*
X15266000Y44159500D01*
D54*
X23140000Y52922500D02*
X23140000Y52033500D01*
D50*
X15266000Y44159500D02*
X15266000Y38443500D01*
X14478000Y36004500D02*
X15266000Y36792500D01*
X15266000Y36792500D02*
X15266000Y37782500D01*
X16002000Y31606500D02*
X19095000Y31606500D01*
D54*
X23076500Y46128000D02*
X23076500Y47842500D01*
X26759500Y50446000D02*
X28220000Y51906500D01*
X28220000Y51906500D02*
X28220000Y52922500D01*
X23076500Y47842500D02*
X25680000Y50446000D01*
X25680000Y50446000D02*
X26759500Y50446000D01*
X25295000Y28288500D02*
X25045000Y28538500D01*
X25295000Y26906500D02*
X25295000Y28288500D01*
D50*
X16155000Y37401500D02*
X16155000Y43969000D01*
X16155000Y36957000D02*
X16155000Y37401500D01*
X16155000Y36475000D02*
X16155000Y36957000D01*
X15621000Y35941000D02*
X16155000Y36475000D01*
D54*
X25082500Y54192500D02*
X25046000Y54192500D01*
X25046000Y54192500D02*
X24410000Y53556500D01*
D50*
X16155000Y43969000D02*
X24410000Y52224000D01*
D54*
X24410000Y52224000D02*
X24410000Y53556500D01*
X25870500Y54192500D02*
X26442000Y54192500D01*
X25082500Y54192500D02*
X25870500Y54192500D01*
X16786000Y32606500D02*
X19095000Y32606500D01*
X16536000Y32856500D02*
X16786000Y32606500D01*
X26442000Y54192500D02*
X26505500Y54256000D01*
X26950000Y54700500D02*
X26759500Y54510000D01*
X26759500Y54510000D02*
X26505500Y54256000D01*
X26505500Y54256000D02*
X26442000Y54192500D01*
X26950000Y54700500D02*
X27712000Y55462500D01*
X27712000Y55462500D02*
X28220000Y55462500D01*
X22219250Y40635250D02*
X21743000Y41111500D01*
X21743000Y44413500D02*
X22092250Y44762750D01*
X21743000Y41111500D02*
X21743000Y44413500D01*
X22219250Y40635250D02*
X22795000Y40059500D01*
X22092250Y44762750D02*
X22092250Y45588250D01*
X22092250Y47874250D02*
X22092250Y45588250D01*
X26188000Y50954000D02*
X26632500Y51398500D01*
X25172000Y50954000D02*
X26188000Y50954000D01*
X22092250Y47874250D02*
X25172000Y50954000D01*
X29490000Y54192500D02*
X30760000Y55462500D01*
X27648500Y54192500D02*
X29490000Y54192500D01*
X26950000Y53494000D02*
X27648500Y54192500D01*
X26950000Y51716000D02*
X26950000Y53494000D01*
X26886500Y51652500D02*
X26950000Y51716000D01*
X26632500Y51398500D02*
X26886500Y51652500D01*
X22795000Y38806500D02*
X22795000Y40059500D01*
X23521000Y42762500D02*
X23521000Y42572000D01*
X23394000Y40667000D02*
X23584500Y40476500D01*
X23394000Y42445000D02*
X23394000Y40667000D01*
X23521000Y42572000D02*
X23394000Y42445000D01*
X24295000Y38806500D02*
X24295000Y39766000D01*
X24295000Y39766000D02*
X23584500Y40476500D01*
X24029000Y45048500D02*
X24473500Y45048500D01*
X27013500Y45048500D02*
X26124500Y45048500D01*
X26124500Y45048500D02*
X24473500Y45048500D01*
X23521000Y42762500D02*
X23521000Y44540500D01*
X23521000Y44540500D02*
X24029000Y45048500D01*
X24283000Y38818500D02*
X24295000Y38806500D01*
X24295000Y38806500D02*
X24295000Y39536000D01*
X30995000Y32606500D02*
X28795500Y32606500D01*
X25870500Y33745500D02*
X25870500Y33809000D01*
X27267500Y32348500D02*
X25870500Y33745500D01*
X28537500Y32348500D02*
X27267500Y32348500D01*
X28795500Y32606500D02*
X28537500Y32348500D01*
X24795000Y26906500D02*
X24795000Y25804000D01*
X24795000Y25804000D02*
X25426000Y25173000D01*
X22568500Y41492500D02*
X22568500Y44350000D01*
X22949500Y44731000D02*
X23203500Y44985000D01*
X38380000Y51652500D02*
X36157500Y49430000D01*
X36157500Y49430000D02*
X25743500Y49430000D01*
X25743500Y49430000D02*
X24029000Y47715500D01*
X24029000Y47715500D02*
X24029000Y45810500D01*
X38380000Y52922500D02*
X38380000Y51652500D01*
X23521000Y45302500D02*
X24029000Y45810500D01*
X23203500Y44985000D02*
X23521000Y45302500D01*
X22568500Y44350000D02*
X22949500Y44731000D01*
X23295000Y28637500D02*
X23295000Y26906500D01*
X23267000Y28665500D02*
X23295000Y28637500D01*
D50*
X20955000Y25082500D02*
X21795000Y25922500D01*
X21795000Y25922500D02*
X21795000Y26906500D01*
X20715000Y33606500D02*
X21108000Y33999500D01*
X19095000Y33606500D02*
X20715000Y33606500D01*
X17399000Y35179000D02*
X17399000Y34987500D01*
X17399000Y34987500D02*
X17780000Y34606500D01*
X19095000Y34606500D02*
X17780000Y34606500D01*
X19095000Y35106500D02*
X21135500Y35106500D01*
X21135500Y35106500D02*
X21679500Y35650500D01*
X20492500Y35606500D02*
X21171500Y36285500D01*
X21171500Y36285500D02*
X21171500Y37174500D01*
X19095000Y35606500D02*
X20492500Y35606500D01*
D53*
X50130000Y22696500D02*
X54128000Y22696500D01*
X54128000Y22696500D02*
X54483600Y22340900D01*
X50130000Y27776500D02*
X53975600Y27776500D01*
X53975600Y27776500D02*
X54102600Y27649500D01*
X50130000Y26506500D02*
X52731000Y26506500D01*
X55205600Y26252500D02*
X56602600Y27649500D01*
X52985000Y26252500D02*
X55205600Y26252500D01*
X52731000Y26506500D02*
X52985000Y26252500D01*
X50130000Y25236500D02*
X52731000Y25236500D01*
X57070600Y25617500D02*
X59102600Y27649500D01*
X53112000Y25617500D02*
X57070600Y25617500D01*
X52731000Y25236500D02*
X53112000Y25617500D01*
X50130000Y23966500D02*
X52096000Y23966500D01*
X58427600Y24474500D02*
X61602600Y27649500D01*
X52604000Y24474500D02*
X58427600Y24474500D01*
X52096000Y23966500D02*
X52604000Y24474500D01*
X50130000Y35015500D02*
X53366000Y35015500D01*
X53366000Y35015500D02*
X54001000Y34380500D01*
X50130000Y36285500D02*
X54596000Y36285500D01*
X54596000Y36285500D02*
X56501000Y34380500D01*
X50130000Y30316500D02*
X49683000Y30316500D01*
X49683000Y30316500D02*
X48540000Y31459500D01*
X50130000Y29046500D02*
X49429000Y29046500D01*
X49429000Y29046500D02*
X48413000Y30062500D01*
X50130000Y41365500D02*
X53493000Y41365500D01*
X53493000Y41365500D02*
X54001000Y40857500D01*
X50130000Y40095500D02*
X52223000Y40095500D01*
X55104000Y39460500D02*
X56501000Y40857500D01*
X52858000Y39460500D02*
X55104000Y39460500D01*
X52223000Y40095500D02*
X52858000Y39460500D01*
X50130000Y38825500D02*
X56969000Y38825500D01*
X56969000Y38825500D02*
X59001000Y40857500D01*
X50130000Y37555500D02*
X51461000Y37555500D01*
X58834000Y38190500D02*
X61501000Y40857500D01*
X52096000Y38190500D02*
X58834000Y38190500D01*
X51461000Y37555500D02*
X52096000Y38190500D01*
D50*
X20103500Y36106500D02*
X20409500Y36412500D01*
X20409500Y36412500D02*
X20409500Y38381000D01*
X20409500Y38381000D02*
X19203000Y39587500D01*
X19203000Y39587500D02*
X17742500Y39587500D01*
X19095000Y36106500D02*
X20103500Y36106500D01*
X19095000Y36606500D02*
X19095000Y38489000D01*
X19095000Y38489000D02*
X18822000Y38762000D01*
X30995000Y35106500D02*
X32629000Y35106500D01*
X41428000Y34634500D02*
X41428000Y35662500D01*
X41301000Y34507500D02*
X41428000Y34634500D01*
X32629000Y35106500D02*
X32665000Y35142500D01*
D54*
X26795000Y26906500D02*
X26795000Y23625500D01*
X26795000Y23625500D02*
X26835000Y23585500D01*
D50*
X16397000Y8790000D02*
X16397000Y9285000D01*
X17208500Y18098500D02*
X17145000Y18035000D01*
X17208500Y10096500D02*
X17208500Y18098500D01*
X16397000Y9285000D02*
X17208500Y10096500D01*
X17145000Y18035000D02*
X17145000Y17970500D01*
X17145000Y17970500D02*
X17145000Y18035000D01*
X23795000Y26906500D02*
X23795000Y25574000D01*
X23795000Y25574000D02*
X23394000Y25173000D01*
X23394000Y25173000D02*
X23394000Y22823500D01*
X23394000Y22823500D02*
X23584500Y22633000D01*
X23584500Y22633000D02*
X23584500Y21109000D01*
X23584500Y21109000D02*
X23394000Y20918500D01*
X23394000Y20918500D02*
X20028500Y20918500D01*
X20028500Y20918500D02*
X17145000Y18035000D01*
X21489000Y7456500D02*
X27289000Y7456500D01*
X16397000Y8790000D02*
X19203000Y8790000D01*
X19203000Y8790000D02*
X20536500Y7456500D01*
X20536500Y7456500D02*
X21489000Y7456500D01*
X25997500Y24384000D02*
X25997500Y24538000D01*
X25997500Y24538000D02*
X26289000Y24829500D01*
X26289000Y25527000D02*
X26295000Y25527000D01*
X26289000Y24829500D02*
X26289000Y25527000D01*
X26295000Y26906500D02*
X26295000Y25527000D01*
X28791500Y19712000D02*
X28791500Y18366500D01*
X25997500Y22506000D02*
X28791500Y19712000D01*
X25997500Y24384000D02*
X25997500Y22506000D01*
X22403400Y18346180D02*
X23426180Y18346180D01*
X23426180Y18346180D02*
X23939500Y18859500D01*
X22295000Y22740500D02*
X21552500Y21998000D01*
X21552500Y21998000D02*
X21552500Y21807500D01*
X22295000Y26906500D02*
X22295000Y22740500D01*
D51*
X52350000Y46814500D02*
X52465000Y46814500D01*
X52465000Y46814500D02*
X53366000Y47715500D01*
X53366000Y47715500D02*
X55144000Y47715500D01*
X55144000Y47715500D02*
X55898860Y48470360D01*
X55898860Y48470360D02*
X55898860Y49372540D01*
D53*
X56033000Y46064500D02*
X56033000Y46445500D01*
X57164000Y44933500D02*
X56033000Y46064500D01*
X57744960Y51972540D02*
X57198860Y51972540D01*
X58192000Y51525500D02*
X57744960Y51972540D01*
X57164000Y44667500D02*
X57164000Y44933500D01*
D51*
X55248860Y49372540D02*
X54134040Y49372540D01*
X53366000Y48604500D02*
X52084000Y48604500D01*
X54134040Y49372540D02*
X53366000Y48604500D01*
D53*
X59589000Y46052500D02*
X59589000Y47346500D01*
X59589000Y47346500D02*
X59462000Y47473500D01*
X57684000Y46330500D02*
X58434000Y46330500D01*
X58712000Y46052500D02*
X59589000Y46052500D01*
X58434000Y46330500D02*
X58712000Y46052500D01*
D51*
X57198860Y49372540D02*
X57198860Y48315640D01*
X57198860Y48315640D02*
X57684000Y47830500D01*
D50*
X37618000Y17108500D02*
X37618000Y22822500D01*
X37618000Y22822500D02*
X38354000Y23558500D01*
X54116000Y15596500D02*
X52477000Y17235500D01*
X54763000Y15596500D02*
X54116000Y15596500D01*
X38634000Y16092500D02*
X37618000Y17108500D01*
X46889000Y16092500D02*
X38634000Y16092500D01*
X48032000Y17235500D02*
X46889000Y16092500D01*
X52477000Y17235500D02*
X48032000Y17235500D01*
X30995000Y33106500D02*
X28732000Y33106500D01*
X28732000Y33106500D02*
X28093000Y33110500D01*
D53*
X56607000Y15246500D02*
X55113000Y15246500D01*
X55113000Y15246500D02*
X54763000Y15596500D01*
D50*
X30995000Y29606500D02*
X31988500Y29606500D01*
X34607500Y25209500D02*
X42090000Y25209500D01*
X32258000Y27559000D02*
X34607500Y25209500D01*
X32258000Y29337000D02*
X32258000Y27559000D01*
X31988500Y29606500D02*
X32258000Y29337000D01*
X43333000Y23966500D02*
X44730000Y23966500D01*
X42090000Y25209500D02*
X43333000Y23966500D01*
X32067500Y30106500D02*
X32067500Y30099000D01*
X34861500Y25590500D02*
X42598000Y25590500D01*
X32639000Y27813000D02*
X34861500Y25590500D01*
X32639000Y29527500D02*
X32639000Y27813000D01*
X32067500Y30099000D02*
X32639000Y29527500D01*
X30995000Y30106500D02*
X32067500Y30106500D01*
X42952000Y25236500D02*
X44730000Y25236500D01*
X42598000Y25590500D02*
X42952000Y25236500D01*
X32067500Y30606500D02*
X32068000Y30606500D01*
X42735500Y26035000D02*
X43207000Y26506500D01*
X34957502Y26035000D02*
X42735500Y26035000D01*
X32989002Y28003500D02*
X34957502Y26035000D01*
X32989002Y29685498D02*
X32989002Y28003500D01*
X32068000Y30606500D02*
X32989002Y29685498D01*
X30995000Y30606500D02*
X32067500Y30606500D01*
X43207000Y26506500D02*
X44730000Y26506500D01*
X30995000Y33606500D02*
X29121000Y33606500D01*
X29121000Y33606500D02*
X28855000Y33872500D01*
X42952000Y29046500D02*
X44730000Y29046500D01*
X42825000Y28919500D02*
X42952000Y29046500D01*
X30995000Y34106500D02*
X29637000Y34106500D01*
X29109000Y34634500D02*
X28093000Y34634500D01*
X29637000Y34106500D02*
X29109000Y34634500D01*
X44730000Y30316500D02*
X42952000Y30316500D01*
X42952000Y30316500D02*
X42825000Y30316500D01*
D54*
X29553500Y36285500D02*
X28474000Y36285500D01*
X25172000Y36603000D02*
X24795000Y36980000D01*
X28156500Y36603000D02*
X25172000Y36603000D01*
X28474000Y36285500D02*
X28156500Y36603000D01*
D50*
X44730000Y36285500D02*
X43206000Y36285500D01*
X24795000Y36980000D02*
X24795000Y38806500D01*
X26569000Y37428500D02*
X31395000Y37428500D01*
X31395000Y37428500D02*
X31903000Y37936500D01*
X26569000Y37428500D02*
X25553000Y37428500D01*
X24029000Y37428500D02*
X23795000Y37662500D01*
X23795000Y37662500D02*
X23795000Y38806500D01*
X44730000Y37555500D02*
X43079000Y37555500D01*
X40920000Y38825500D02*
X44730000Y38825500D01*
X40539000Y39206500D02*
X40920000Y38825500D01*
D54*
X23295000Y38806500D02*
X23295000Y36638500D01*
X26823000Y34444000D02*
X26759500Y34507500D01*
X26759500Y34507500D02*
X24092500Y34507500D01*
X24092500Y34507500D02*
X23295000Y35305000D01*
X23295000Y35305000D02*
X23295000Y36638500D01*
X30995000Y35606500D02*
X28938000Y35606500D01*
X28938000Y35606500D02*
X28791500Y35460000D01*
D50*
X42825000Y40095500D02*
X44730000Y40095500D01*
X42698000Y40222500D02*
X42825000Y40095500D01*
X36004500Y26987500D02*
X43053000Y26987500D01*
X43688000Y27622500D02*
X43688000Y27623500D01*
X43053000Y26987500D02*
X43688000Y27622500D01*
X19095000Y33106500D02*
X25426000Y33106500D01*
X25934000Y32729500D02*
X26251500Y32412000D01*
X25557000Y33106500D02*
X25430000Y33106500D01*
X25430000Y33106500D02*
X25426000Y33110500D01*
X25426000Y33110500D02*
X25426000Y33106500D01*
X25934000Y32729500D02*
X25557000Y33106500D01*
X26315000Y32412000D02*
X27061125Y31665875D01*
X27061125Y31665875D02*
X27632625Y31665875D01*
X27632625Y31665875D02*
X28537500Y30761000D01*
X28537500Y30761000D02*
X29172500Y30761000D01*
X26251500Y32412000D02*
X26315000Y32412000D01*
X43688000Y27623500D02*
X43841000Y27776500D01*
X43841000Y27776500D02*
X44730000Y27776500D01*
X41555000Y24347500D02*
X38000000Y24347500D01*
X37084000Y22415500D02*
X36857000Y22188500D01*
X37084000Y23431500D02*
X37084000Y22415500D01*
X38000000Y24347500D02*
X37084000Y23431500D01*
X22795000Y23077500D02*
X22795000Y21771500D01*
X22795000Y21771500D02*
X22822500Y21744000D01*
X35078000Y22188500D02*
X36857000Y22188500D01*
X22795000Y26906500D02*
X22795000Y23077500D01*
X43587000Y35015500D02*
X43333000Y35015500D01*
X42698000Y32094500D02*
X41809000Y31205500D01*
X42698000Y34380500D02*
X42698000Y32094500D01*
X43333000Y35015500D02*
X42698000Y34380500D01*
X41809000Y28157500D02*
X41809000Y31205500D01*
X43587000Y35015500D02*
X44730000Y35015500D01*
X27295000Y38806500D02*
X27295000Y40250000D01*
X27648500Y40603500D02*
X29299500Y40603500D01*
X27295000Y40250000D02*
X27648500Y40603500D01*
D54*
X42825000Y41365500D02*
X44730000Y41365500D01*
X42698000Y41492500D02*
X42825000Y41365500D01*
D50*
X40412000Y35650500D02*
X40412000Y28411500D01*
X40412000Y28411500D02*
X40666000Y28157500D01*
X37872000Y36106500D02*
X39956000Y36106500D01*
X39956000Y36106500D02*
X40412000Y35650500D01*
X33046000Y36106500D02*
X37872000Y36106500D01*
X44730000Y22696500D02*
X42698000Y22696500D01*
X42063000Y22696500D02*
X42698000Y22696500D01*
X41174000Y22696500D02*
X40539000Y23331500D01*
X42063000Y22696500D02*
X41174000Y22696500D01*
X33046000Y36106500D02*
X30995000Y36106500D01*
D53*
X56070500Y57367500D02*
X56869000Y57367500D01*
X56869000Y57367500D02*
X57086500Y57150000D01*
X14885000Y57367500D02*
X56070500Y57367500D01*
X12980000Y55462500D02*
X14885000Y57367500D01*
X56869000Y57367500D02*
X57086500Y57150000D01*
X10440000Y55462500D02*
X12980000Y55462500D01*
D50*
G36*
X50382500Y51979500D02*
X43153000Y51979500D01*
X43153000Y53430500D01*
X46355000Y53430500D01*
X46393906Y53438379D01*
X46426681Y53460773D01*
X46448161Y53494154D01*
X46455000Y53530500D01*
X46455000Y56097500D01*
X50382500Y56097500D01*
X50382500Y51979500D01*
X50382500Y51979500D01*
G37*
X50382500Y51979500D02*
X43153000Y51979500D01*
X43153000Y53430500D01*
X46355000Y53430500D01*
X46393906Y53438379D01*
X46426681Y53460773D01*
X46448161Y53494154D01*
X46455000Y53530500D01*
X46455000Y56097500D01*
X50382500Y56097500D01*
X50382500Y51979500D01*
M02*
