G04 #@! TF.FileFunction,Legend,Top*
%FSLAX46Y46*%
G04 Gerber Fmt 4.6, Leading zero omitted, Abs format (unit mm)*
G04 Created by KiCad (PCBNEW 4.0.2-stable) date 19.7.2016 11:18:10*
%MOMM*%
G01*
G04 APERTURE LIST*
%ADD10C,0.100000*%
%ADD11C,0.300000*%
%ADD12C,0.200000*%
%ADD13C,0.150000*%
G04 APERTURE END LIST*
D10*
D11*
X38144667Y43036405D02*
X38144667Y44336405D01*
X38639905Y44336405D01*
X38763714Y44274500D01*
X38825619Y44212595D01*
X38887524Y44088786D01*
X38887524Y43903071D01*
X38825619Y43779262D01*
X38763714Y43717357D01*
X38639905Y43655452D01*
X38144667Y43655452D01*
X39320857Y44336405D02*
X39630381Y43036405D01*
X39878000Y43964976D01*
X40125619Y43036405D01*
X40435143Y44336405D01*
X41673238Y43036405D02*
X41239905Y43655452D01*
X40930381Y43036405D02*
X40930381Y44336405D01*
X41425619Y44336405D01*
X41549428Y44274500D01*
X41611333Y44212595D01*
X41673238Y44088786D01*
X41673238Y43903071D01*
X41611333Y43779262D01*
X41549428Y43717357D01*
X41425619Y43655452D01*
X40930381Y43655452D01*
X15684858Y47049429D02*
X16184858Y45549429D01*
X16684858Y47049429D01*
X16827715Y45406571D02*
X17970572Y45406571D01*
X18184858Y47049429D02*
X19113429Y47049429D01*
X18613429Y46478000D01*
X18827715Y46478000D01*
X18970572Y46406571D01*
X19042001Y46335143D01*
X19113429Y46192286D01*
X19113429Y45835143D01*
X19042001Y45692286D01*
X18970572Y45620857D01*
X18827715Y45549429D01*
X18399143Y45549429D01*
X18256286Y45620857D01*
X18184858Y45692286D01*
X19756286Y45692286D02*
X19827714Y45620857D01*
X19756286Y45549429D01*
X19684857Y45620857D01*
X19756286Y45692286D01*
X19756286Y45549429D01*
X21256286Y45549429D02*
X20399143Y45549429D01*
X20827715Y45549429D02*
X20827715Y47049429D01*
X20684858Y46835143D01*
X20542000Y46692286D01*
X20399143Y46620857D01*
X28282285Y46985929D02*
X28639428Y45485929D01*
X28925142Y46557357D01*
X29210856Y45485929D01*
X29567999Y46985929D01*
X29996571Y46985929D02*
X30353714Y45485929D01*
X30639428Y46557357D01*
X30925142Y45485929D01*
X31282285Y46985929D01*
X31710857Y46985929D02*
X32068000Y45485929D01*
X32353714Y46557357D01*
X32639428Y45485929D01*
X32996571Y46985929D01*
X33568000Y45628786D02*
X33639428Y45557357D01*
X33568000Y45485929D01*
X33496571Y45557357D01*
X33568000Y45628786D01*
X33568000Y45485929D01*
X34282286Y45485929D02*
X34282286Y46985929D01*
X35853715Y45485929D02*
X35353715Y46200214D01*
X34996572Y45485929D02*
X34996572Y46985929D01*
X35568000Y46985929D01*
X35710858Y46914500D01*
X35782286Y46843071D01*
X35853715Y46700214D01*
X35853715Y46485929D01*
X35782286Y46343071D01*
X35710858Y46271643D01*
X35568000Y46200214D01*
X34996572Y46200214D01*
X36496572Y45485929D02*
X36496572Y46985929D01*
X37353715Y45485929D01*
X37353715Y46985929D01*
X37996572Y45914500D02*
X38710858Y45914500D01*
X37853715Y45485929D02*
X38353715Y46985929D01*
X38853715Y45485929D01*
X39282286Y45557357D02*
X39496572Y45485929D01*
X39853715Y45485929D01*
X39996572Y45557357D01*
X40068001Y45628786D01*
X40139429Y45771643D01*
X40139429Y45914500D01*
X40068001Y46057357D01*
X39996572Y46128786D01*
X39853715Y46200214D01*
X39568001Y46271643D01*
X39425143Y46343071D01*
X39353715Y46414500D01*
X39282286Y46557357D01*
X39282286Y46700214D01*
X39353715Y46843071D01*
X39425143Y46914500D01*
X39568001Y46985929D01*
X39925143Y46985929D01*
X40139429Y46914500D01*
X40782286Y45628786D02*
X40853714Y45557357D01*
X40782286Y45485929D01*
X40710857Y45557357D01*
X40782286Y45628786D01*
X40782286Y45485929D01*
X41496572Y46271643D02*
X41996572Y46271643D01*
X42210858Y45485929D02*
X41496572Y45485929D01*
X41496572Y46985929D01*
X42210858Y46985929D01*
X42853715Y46985929D02*
X42853715Y45771643D01*
X42925143Y45628786D01*
X42996572Y45557357D01*
X43139429Y45485929D01*
X43425143Y45485929D01*
X43568001Y45557357D01*
X43639429Y45628786D01*
X43710858Y45771643D01*
X43710858Y46985929D01*
X16761716Y49462429D02*
X16761716Y48248143D01*
X16833144Y48105286D01*
X16904573Y48033857D01*
X17047430Y47962429D01*
X17333144Y47962429D01*
X17476002Y48033857D01*
X17547430Y48105286D01*
X17618859Y48248143D01*
X17618859Y49462429D01*
X18333145Y48962429D02*
X18333145Y47962429D01*
X18333145Y48819571D02*
X18404573Y48891000D01*
X18547431Y48962429D01*
X18761716Y48962429D01*
X18904573Y48891000D01*
X18976002Y48748143D01*
X18976002Y47962429D01*
X19690288Y47962429D02*
X19690288Y48962429D01*
X19690288Y49462429D02*
X19618859Y49391000D01*
X19690288Y49319571D01*
X19761716Y49391000D01*
X19690288Y49462429D01*
X19690288Y49319571D01*
X20261717Y48962429D02*
X20618860Y47962429D01*
X20976002Y48962429D01*
X22118859Y48033857D02*
X21976002Y47962429D01*
X21690288Y47962429D01*
X21547431Y48033857D01*
X21476002Y48176714D01*
X21476002Y48748143D01*
X21547431Y48891000D01*
X21690288Y48962429D01*
X21976002Y48962429D01*
X22118859Y48891000D01*
X22190288Y48748143D01*
X22190288Y48605286D01*
X21476002Y48462429D01*
X22833145Y47962429D02*
X22833145Y48962429D01*
X22833145Y48676714D02*
X22904573Y48819571D01*
X22976002Y48891000D01*
X23118859Y48962429D01*
X23261716Y48962429D01*
X23690287Y48033857D02*
X23833144Y47962429D01*
X24118859Y47962429D01*
X24261716Y48033857D01*
X24333144Y48176714D01*
X24333144Y48248143D01*
X24261716Y48391000D01*
X24118859Y48462429D01*
X23904573Y48462429D01*
X23761716Y48533857D01*
X23690287Y48676714D01*
X23690287Y48748143D01*
X23761716Y48891000D01*
X23904573Y48962429D01*
X24118859Y48962429D01*
X24261716Y48891000D01*
X25618859Y47962429D02*
X25618859Y48748143D01*
X25547430Y48891000D01*
X25404573Y48962429D01*
X25118859Y48962429D01*
X24976002Y48891000D01*
X25618859Y48033857D02*
X25476002Y47962429D01*
X25118859Y47962429D01*
X24976002Y48033857D01*
X24904573Y48176714D01*
X24904573Y48319571D01*
X24976002Y48462429D01*
X25118859Y48533857D01*
X25476002Y48533857D01*
X25618859Y48605286D01*
X26547431Y47962429D02*
X26404573Y48033857D01*
X26333145Y48176714D01*
X26333145Y49462429D01*
X28190287Y48033857D02*
X28404573Y47962429D01*
X28761716Y47962429D01*
X28904573Y48033857D01*
X28976002Y48105286D01*
X29047430Y48248143D01*
X29047430Y48391000D01*
X28976002Y48533857D01*
X28904573Y48605286D01*
X28761716Y48676714D01*
X28476002Y48748143D01*
X28333144Y48819571D01*
X28261716Y48891000D01*
X28190287Y49033857D01*
X28190287Y49176714D01*
X28261716Y49319571D01*
X28333144Y49391000D01*
X28476002Y49462429D01*
X28833144Y49462429D01*
X29047430Y49391000D01*
X29476001Y48962429D02*
X30047430Y48962429D01*
X29690287Y49462429D02*
X29690287Y48176714D01*
X29761715Y48033857D01*
X29904573Y47962429D01*
X30047430Y47962429D01*
X31118858Y48033857D02*
X30976001Y47962429D01*
X30690287Y47962429D01*
X30547430Y48033857D01*
X30476001Y48176714D01*
X30476001Y48748143D01*
X30547430Y48891000D01*
X30690287Y48962429D01*
X30976001Y48962429D01*
X31118858Y48891000D01*
X31190287Y48748143D01*
X31190287Y48605286D01*
X30476001Y48462429D01*
X31833144Y48962429D02*
X31833144Y47462429D01*
X31833144Y48891000D02*
X31976001Y48962429D01*
X32261715Y48962429D01*
X32404572Y48891000D01*
X32476001Y48819571D01*
X32547430Y48676714D01*
X32547430Y48248143D01*
X32476001Y48105286D01*
X32404572Y48033857D01*
X32261715Y47962429D01*
X31976001Y47962429D01*
X31833144Y48033857D01*
X33190287Y48962429D02*
X33190287Y47462429D01*
X33190287Y48891000D02*
X33333144Y48962429D01*
X33618858Y48962429D01*
X33761715Y48891000D01*
X33833144Y48819571D01*
X33904573Y48676714D01*
X33904573Y48248143D01*
X33833144Y48105286D01*
X33761715Y48033857D01*
X33618858Y47962429D01*
X33333144Y47962429D01*
X33190287Y48033857D01*
X35118858Y48033857D02*
X34976001Y47962429D01*
X34690287Y47962429D01*
X34547430Y48033857D01*
X34476001Y48176714D01*
X34476001Y48748143D01*
X34547430Y48891000D01*
X34690287Y48962429D01*
X34976001Y48962429D01*
X35118858Y48891000D01*
X35190287Y48748143D01*
X35190287Y48605286D01*
X34476001Y48462429D01*
X35833144Y47962429D02*
X35833144Y48962429D01*
X35833144Y48676714D02*
X35904572Y48819571D01*
X35976001Y48891000D01*
X36118858Y48962429D01*
X36261715Y48962429D01*
X37904572Y47962429D02*
X37904572Y49462429D01*
X38261715Y49462429D01*
X38476000Y49391000D01*
X38618858Y49248143D01*
X38690286Y49105286D01*
X38761715Y48819571D01*
X38761715Y48605286D01*
X38690286Y48319571D01*
X38618858Y48176714D01*
X38476000Y48033857D01*
X38261715Y47962429D01*
X37904572Y47962429D01*
X39404572Y47962429D02*
X39404572Y48962429D01*
X39404572Y48676714D02*
X39476000Y48819571D01*
X39547429Y48891000D01*
X39690286Y48962429D01*
X39833143Y48962429D01*
X40333143Y47962429D02*
X40333143Y48962429D01*
X40333143Y49462429D02*
X40261714Y49391000D01*
X40333143Y49319571D01*
X40404571Y49391000D01*
X40333143Y49462429D01*
X40333143Y49319571D01*
X40904572Y48962429D02*
X41261715Y47962429D01*
X41618857Y48962429D01*
X42761714Y48033857D02*
X42618857Y47962429D01*
X42333143Y47962429D01*
X42190286Y48033857D01*
X42118857Y48176714D01*
X42118857Y48748143D01*
X42190286Y48891000D01*
X42333143Y48962429D01*
X42618857Y48962429D01*
X42761714Y48891000D01*
X42833143Y48748143D01*
X42833143Y48605286D01*
X42118857Y48462429D01*
X43476000Y47962429D02*
X43476000Y48962429D01*
X43476000Y48676714D02*
X43547428Y48819571D01*
X43618857Y48891000D01*
X43761714Y48962429D01*
X43904571Y48962429D01*
X53530572Y19768357D02*
X54673429Y19768357D01*
X56388072Y19768357D02*
X57530929Y19768357D01*
X56959500Y19196929D02*
X56959500Y20339786D01*
D12*
X48120501Y16151143D02*
X48520501Y14951143D01*
X48920501Y16151143D01*
X50006215Y15065429D02*
X49949072Y15008286D01*
X49777643Y14951143D01*
X49663357Y14951143D01*
X49491929Y15008286D01*
X49377643Y15122571D01*
X49320500Y15236857D01*
X49263357Y15465429D01*
X49263357Y15636857D01*
X49320500Y15865429D01*
X49377643Y15979714D01*
X49491929Y16094000D01*
X49663357Y16151143D01*
X49777643Y16151143D01*
X49949072Y16094000D01*
X50006215Y16036857D01*
X51206215Y15065429D02*
X51149072Y15008286D01*
X50977643Y14951143D01*
X50863357Y14951143D01*
X50691929Y15008286D01*
X50577643Y15122571D01*
X50520500Y15236857D01*
X50463357Y15465429D01*
X50463357Y15636857D01*
X50520500Y15865429D01*
X50577643Y15979714D01*
X50691929Y16094000D01*
X50863357Y16151143D01*
X50977643Y16151143D01*
X51149072Y16094000D01*
X51206215Y16036857D01*
X42935714Y16151143D02*
X42935714Y15179714D01*
X42992857Y15065429D01*
X43050000Y15008286D01*
X43164286Y14951143D01*
X43392857Y14951143D01*
X43507143Y15008286D01*
X43564286Y15065429D01*
X43621429Y15179714D01*
X43621429Y16151143D01*
X44135714Y15008286D02*
X44307143Y14951143D01*
X44592857Y14951143D01*
X44707143Y15008286D01*
X44764286Y15065429D01*
X44821429Y15179714D01*
X44821429Y15294000D01*
X44764286Y15408286D01*
X44707143Y15465429D01*
X44592857Y15522571D01*
X44364286Y15579714D01*
X44250000Y15636857D01*
X44192857Y15694000D01*
X44135714Y15808286D01*
X44135714Y15922571D01*
X44192857Y16036857D01*
X44250000Y16094000D01*
X44364286Y16151143D01*
X44650000Y16151143D01*
X44821429Y16094000D01*
X45735714Y15579714D02*
X45907143Y15522571D01*
X45964286Y15465429D01*
X46021429Y15351143D01*
X46021429Y15179714D01*
X45964286Y15065429D01*
X45907143Y15008286D01*
X45792857Y14951143D01*
X45335714Y14951143D01*
X45335714Y16151143D01*
X45735714Y16151143D01*
X45850000Y16094000D01*
X45907143Y16036857D01*
X45964286Y15922571D01*
X45964286Y15808286D01*
X45907143Y15694000D01*
X45850000Y15636857D01*
X45735714Y15579714D01*
X45335714Y15579714D01*
D11*
X42858571Y20157357D02*
X43001428Y20085929D01*
X43287143Y20085929D01*
X43430000Y20157357D01*
X43501428Y20300214D01*
X43501428Y20371643D01*
X43430000Y20514500D01*
X43287143Y20585929D01*
X43072857Y20585929D01*
X42930000Y20657357D01*
X42858571Y20800214D01*
X42858571Y20871643D01*
X42930000Y21014500D01*
X43072857Y21085929D01*
X43287143Y21085929D01*
X43430000Y21014500D01*
D12*
X39560500Y20447000D02*
X40894000Y20447000D01*
X44831000Y20447000D02*
X46164500Y20447000D01*
X45529500Y20891500D02*
X45529500Y19875500D01*
D11*
X50998501Y24697429D02*
X51998501Y23197429D01*
X51998501Y24697429D02*
X50998501Y23197429D01*
X51054000Y31150714D02*
X51054000Y30436429D01*
X50554000Y31936429D02*
X51054000Y31150714D01*
X51554000Y31936429D01*
X50633286Y42715643D02*
X50133286Y42715643D01*
X50133286Y41929929D02*
X50133286Y43429929D01*
X50847572Y43429929D01*
D12*
X40132000Y13017500D02*
X40132000Y11430000D01*
X39306500Y12128500D02*
X41021000Y12128500D01*
X53086000Y13081000D02*
X53086000Y11493500D01*
X52324000Y12319000D02*
X53848000Y12319000D01*
X59499500Y12192000D02*
X59499500Y12128500D01*
X13779500Y20637500D02*
X21907500Y20637500D01*
X11747500Y18605500D02*
X2349500Y18605500D01*
X13779500Y20637500D02*
X11747500Y18605500D01*
X63589500Y54192500D02*
X63589500Y54256000D01*
D13*
X5487000Y48882500D02*
X5487000Y50767500D01*
X5487000Y50767500D02*
X9805000Y50767500D01*
X9805000Y49982500D02*
X9805000Y50767500D01*
X6376000Y35382500D02*
X6376000Y35882500D01*
X6376000Y36382500D02*
X8662000Y36382500D01*
X8662000Y35382500D02*
X8662000Y36382500D01*
X8662000Y35382500D02*
X6376000Y35382500D01*
X6376000Y35882500D02*
X6376000Y36382500D01*
X9805000Y35882500D02*
X9805000Y37882500D01*
X9805000Y35882500D02*
X5487000Y35882500D01*
X5487000Y35882500D02*
X5487000Y36666500D01*
X34982000Y24947500D02*
X35682000Y24947500D01*
X35682000Y23747500D02*
X34982000Y23747500D01*
X14703500Y27209000D02*
X14703500Y27909000D01*
X15903500Y27909000D02*
X15903500Y27209000D01*
X17785600Y41532100D02*
X18485600Y41532100D01*
X18485600Y40332100D02*
X17785600Y40332100D01*
X16227500Y27209000D02*
X16227500Y27909000D01*
X17427500Y27909000D02*
X17427500Y27209000D01*
X17785600Y43056100D02*
X18485600Y43056100D01*
X18485600Y41856100D02*
X17785600Y41856100D01*
X39488000Y36508500D02*
X39488000Y35808500D01*
X38288000Y35808500D02*
X38288000Y36508500D01*
X33462000Y35745000D02*
X33462000Y36445000D01*
X34662000Y36445000D02*
X34662000Y35745000D01*
X35805000Y29904500D02*
X35805000Y29204500D01*
X34605000Y29204500D02*
X34605000Y29904500D01*
X34605000Y32125500D02*
X34605000Y32825500D01*
X35805000Y32825500D02*
X35805000Y32125500D01*
X12695000Y7428000D02*
X11995000Y7428000D01*
X11995000Y8628000D02*
X12695000Y8628000D01*
X9074000Y14851000D02*
X9774000Y14851000D01*
X9774000Y13651000D02*
X9074000Y13651000D01*
X56004500Y54337800D02*
X56004500Y55037800D01*
X57204500Y55037800D02*
X57204500Y54337800D01*
X54728000Y46160500D02*
X54728000Y45460500D01*
X53528000Y45460500D02*
X53528000Y46160500D01*
X10280500Y22153500D02*
X10980500Y22153500D01*
X10980500Y20953500D02*
X10280500Y20953500D01*
X51557000Y49909500D02*
X50857000Y49909500D01*
X50857000Y51109500D02*
X51557000Y51109500D01*
X6597500Y22153500D02*
X7297500Y22153500D01*
X7297500Y20953500D02*
X6597500Y20953500D01*
X45891340Y51966940D02*
X45891340Y51266940D01*
X44691340Y51266940D02*
X44691340Y51966940D01*
X48024940Y51997420D02*
X48024940Y51297420D01*
X46824940Y51297420D02*
X46824940Y51997420D01*
X3232000Y22153500D02*
X3932000Y22153500D01*
X3932000Y20953500D02*
X3232000Y20953500D01*
X26400000Y18716500D02*
X26400000Y16816500D01*
X27500000Y18716500D02*
X27500000Y16816500D01*
X26950000Y17816500D02*
X26950000Y17366500D01*
X27200000Y17866500D02*
X26700000Y17866500D01*
X26950000Y17866500D02*
X27200000Y17616500D01*
X27200000Y17616500D02*
X26700000Y17616500D01*
X26700000Y17616500D02*
X26950000Y17866500D01*
X20022060Y18719040D02*
X20022060Y16819040D01*
X21122060Y18719040D02*
X21122060Y16819040D01*
X20572060Y17819040D02*
X20572060Y17369040D01*
X20822060Y17869040D02*
X20322060Y17869040D01*
X20572060Y17869040D02*
X20822060Y17619040D01*
X20822060Y17619040D02*
X20322060Y17619040D01*
X20322060Y17619040D02*
X20572060Y17869040D01*
X54211820Y56331180D02*
X54211820Y56585180D01*
X54211820Y56585180D02*
X53957820Y56585180D01*
X49131820Y56585180D02*
X48877820Y56585180D01*
X48877820Y56585180D02*
X48877820Y56331180D01*
X49131820Y51505180D02*
X48877820Y51505180D01*
X48877820Y51505180D02*
X48877820Y51759180D01*
X54211820Y51759180D02*
X54211820Y51505180D01*
X54211820Y51505180D02*
X53957820Y51505180D01*
X53957820Y51505180D02*
X49131820Y51505180D01*
X48877820Y51759180D02*
X48877820Y56331180D01*
X49131820Y56585180D02*
X53957820Y56585180D01*
X54211820Y56331180D02*
X54211820Y51759180D01*
X30443000Y848500D02*
X38443000Y848500D01*
X30443000Y8168500D02*
X38443000Y8168500D01*
X38443000Y8168500D02*
X38443000Y848500D01*
X38443000Y1468500D02*
X30443000Y1468500D01*
X30443000Y848500D02*
X30443000Y8168500D01*
D12*
X39182000Y1936500D02*
X49482000Y1936500D01*
X39182000Y1436500D02*
X49482000Y1436500D01*
X49482000Y10936500D02*
X39182000Y10936500D01*
X39182000Y10936500D02*
X39182000Y1436500D01*
X49482000Y10936500D02*
X49482000Y1436500D01*
X49596000Y1936500D02*
X59896000Y1936500D01*
X49596000Y1436500D02*
X59896000Y1436500D01*
X59896000Y10936500D02*
X49596000Y10936500D01*
X49596000Y10936500D02*
X49596000Y1436500D01*
X59896000Y10936500D02*
X59896000Y1436500D01*
D13*
X46231140Y11858320D02*
X51311140Y11858320D01*
X51311140Y11858320D02*
X51311140Y14398320D01*
X51311140Y14398320D02*
X46231140Y14398320D01*
X43411140Y14678320D02*
X44961140Y14678320D01*
X46231140Y14398320D02*
X46231140Y11858320D01*
X44961140Y11578320D02*
X43411140Y11578320D01*
X43411140Y11578320D02*
X43411140Y14678320D01*
X20092000Y14505000D02*
X32792000Y14505000D01*
X32792000Y14505000D02*
X32792000Y11965000D01*
X32792000Y11965000D02*
X20092000Y11965000D01*
X17272000Y14785000D02*
X18822000Y14785000D01*
X20092000Y14505000D02*
X20092000Y11965000D01*
X18822000Y11685000D02*
X17272000Y11685000D01*
X17272000Y11685000D02*
X17272000Y14785000D01*
X9170000Y56732500D02*
X42190000Y56732500D01*
X11710000Y51652500D02*
X42190000Y51652500D01*
X42190000Y56732500D02*
X42190000Y51652500D01*
X9170000Y56732500D02*
X9170000Y54192500D01*
X8890000Y52922500D02*
X8890000Y51372500D01*
X9170000Y54192500D02*
X11710000Y54192500D01*
X11710000Y54192500D02*
X11710000Y51652500D01*
X8890000Y51372500D02*
X10440000Y51372500D01*
X44513500Y19177000D02*
X39433500Y19177000D01*
X39433500Y19177000D02*
X39433500Y16637000D01*
X39433500Y16637000D02*
X44513500Y16637000D01*
X47333500Y16357000D02*
X45783500Y16357000D01*
X44513500Y16637000D02*
X44513500Y19177000D01*
X45783500Y19457000D02*
X47333500Y19457000D01*
X47333500Y19457000D02*
X47333500Y16357000D01*
X9868500Y30570500D02*
X9868500Y22950500D01*
X12408500Y30570500D02*
X12408500Y22950500D01*
X12688500Y33390500D02*
X12688500Y31840500D01*
X9868500Y22950500D02*
X12408500Y22950500D01*
X12408500Y30570500D02*
X9868500Y30570500D01*
X9588500Y31840500D02*
X9588500Y33390500D01*
X9588500Y33390500D02*
X12688500Y33390500D01*
X6249000Y30570500D02*
X6249000Y22950500D01*
X8789000Y30570500D02*
X8789000Y22950500D01*
X9069000Y33390500D02*
X9069000Y31840500D01*
X6249000Y22950500D02*
X8789000Y22950500D01*
X8789000Y30570500D02*
X6249000Y30570500D01*
X5969000Y31840500D02*
X5969000Y33390500D01*
X5969000Y33390500D02*
X9069000Y33390500D01*
X55753600Y23610900D02*
X58293600Y23610900D01*
X52933600Y23890900D02*
X54483600Y23890900D01*
X55753600Y23610900D02*
X55753600Y21070900D01*
X54483600Y20790900D02*
X52933600Y20790900D01*
X52933600Y20790900D02*
X52933600Y23890900D01*
X55753600Y21070900D02*
X58293600Y21070900D01*
X58293600Y21070900D02*
X58293600Y23610900D01*
X64102600Y30049500D02*
X61702600Y30049500D01*
X54102600Y30049500D02*
X56702600Y30049500D01*
X66212600Y30349500D02*
X66212600Y24949500D01*
X51992600Y30349500D02*
X66212600Y30349500D01*
X66212600Y24949500D02*
X51992600Y24949500D01*
X51992600Y30349500D02*
X51992600Y24949500D01*
X64001000Y36780500D02*
X61601000Y36780500D01*
X54001000Y36780500D02*
X56601000Y36780500D01*
X66111000Y37080500D02*
X66111000Y31680500D01*
X51891000Y37080500D02*
X66111000Y37080500D01*
X66111000Y31680500D02*
X51891000Y31680500D01*
X51891000Y37080500D02*
X51891000Y31680500D01*
X64001000Y43257500D02*
X61601000Y43257500D01*
X54001000Y43257500D02*
X56601000Y43257500D01*
X66111000Y43557500D02*
X66111000Y38157500D01*
X51891000Y43557500D02*
X66111000Y43557500D01*
X66111000Y38157500D02*
X51891000Y38157500D01*
X51891000Y43557500D02*
X51891000Y38157500D01*
X2629500Y30570500D02*
X2629500Y22950500D01*
X5169500Y30570500D02*
X5169500Y22950500D01*
X5449500Y33390500D02*
X5449500Y31840500D01*
X2629500Y22950500D02*
X5169500Y22950500D01*
X5169500Y30570500D02*
X2629500Y30570500D01*
X2349500Y31840500D02*
X2349500Y33390500D01*
X2349500Y33390500D02*
X5449500Y33390500D01*
X42103000Y36912500D02*
X42103000Y35912500D01*
X40753000Y35912500D02*
X40753000Y36912500D01*
X32154500Y23947500D02*
X32154500Y24947500D01*
X33504500Y24947500D02*
X33504500Y23947500D01*
X37626000Y39119500D02*
X38626000Y39119500D01*
X38626000Y37769500D02*
X37626000Y37769500D01*
X38039000Y36658500D02*
X38039000Y35658500D01*
X36689000Y35658500D02*
X36689000Y36658500D01*
X27085000Y24260500D02*
X28085000Y24260500D01*
X28085000Y22910500D02*
X27085000Y22910500D01*
X34911000Y35785500D02*
X34911000Y36785500D01*
X36261000Y36785500D02*
X36261000Y35785500D01*
X16147000Y8115000D02*
X15147000Y8115000D01*
X15147000Y9465000D02*
X16147000Y9465000D01*
X28116500Y17116500D02*
X28116500Y18116500D01*
X29466500Y18116500D02*
X29466500Y17116500D01*
X23078400Y18096180D02*
X23078400Y17096180D01*
X21728400Y17096180D02*
X21728400Y18096180D01*
X12591000Y9131000D02*
X11591000Y9131000D01*
X11591000Y10481000D02*
X12591000Y10481000D01*
X9051000Y13021000D02*
X10051000Y13021000D01*
X10051000Y11671000D02*
X9051000Y11671000D01*
X8939500Y8480500D02*
X8939500Y9480500D01*
X10289500Y9480500D02*
X10289500Y8480500D01*
X12829500Y13608000D02*
X12829500Y12608000D01*
X11479500Y12608000D02*
X11479500Y13608000D01*
X53025000Y46564500D02*
X53025000Y45564500D01*
X51675000Y45564500D02*
X51675000Y46564500D01*
X55914000Y45342500D02*
X56914000Y45342500D01*
X56914000Y43992500D02*
X55914000Y43992500D01*
X9940000Y20387000D02*
X10940000Y20387000D01*
X10940000Y19037000D02*
X9940000Y19037000D01*
X51834000Y47929500D02*
X50834000Y47929500D01*
X50834000Y49279500D02*
X51834000Y49279500D01*
X58359000Y47580500D02*
X58359000Y46580500D01*
X57009000Y46580500D02*
X57009000Y47580500D01*
X60137000Y48723500D02*
X60137000Y47723500D01*
X58787000Y47723500D02*
X58787000Y48723500D01*
X60264000Y45802500D02*
X60264000Y44802500D01*
X58914000Y44802500D02*
X58914000Y45802500D01*
X6320500Y20450500D02*
X7320500Y20450500D01*
X7320500Y19100500D02*
X6320500Y19100500D01*
X3018500Y20450500D02*
X4018500Y20450500D01*
X4018500Y19100500D02*
X3018500Y19100500D01*
X55438000Y16846500D02*
X55438000Y15846500D01*
X54088000Y15846500D02*
X54088000Y16846500D01*
X60376400Y17565700D02*
X60376400Y14111300D01*
X64135600Y17565700D02*
X64135600Y14111300D01*
X31170981Y27141500D02*
G75*
G03X31170981Y27141500I-283981J0D01*
G01*
X30045000Y28606500D02*
X29295000Y27856500D01*
X20795000Y27856500D02*
X20045000Y27856500D01*
X20045000Y27856500D02*
X20045000Y28606500D01*
X29295000Y37856500D02*
X30045000Y37856500D01*
X30045000Y37856500D02*
X30045000Y37106500D01*
X20795000Y37856500D02*
X20045000Y37856500D01*
X20045000Y37856500D02*
X20045000Y37106500D01*
X55957000Y16046500D02*
G75*
G03X55957000Y16046500I-100000J0D01*
G01*
X56107000Y16596500D02*
X56107000Y16096500D01*
X59007000Y16596500D02*
X56107000Y16596500D01*
X59007000Y16096500D02*
X59007000Y16596500D01*
X56107000Y16096500D02*
X59007000Y16096500D01*
X57149467Y50677140D02*
G75*
G03X57149467Y50677140I-230007J0D01*
G01*
X57351260Y51210540D02*
X55166860Y51210540D01*
X55166860Y51210540D02*
X55166860Y50143740D01*
X55166860Y50143740D02*
X57351260Y50143740D01*
X57351260Y50143740D02*
X57351260Y51210540D01*
X46762000Y29808500D02*
G75*
G03X46762000Y29808500I-254000J0D01*
G01*
X45746000Y30570500D02*
X45746000Y21172500D01*
X45746000Y21172500D02*
X49048000Y21172500D01*
X49048000Y21172500D02*
X49048000Y30570500D01*
X49048000Y30570500D02*
X45746000Y30570500D01*
X46762000Y40857500D02*
G75*
G03X46762000Y40857500I-254000J0D01*
G01*
X45746000Y41619500D02*
X45746000Y32221500D01*
X45746000Y32221500D02*
X49048000Y32221500D01*
X49048000Y32221500D02*
X49048000Y41619500D01*
X49048000Y41619500D02*
X45746000Y41619500D01*
X40083605Y27395500D02*
G75*
G03X40083605Y27395500I-179605J0D01*
G01*
X36475000Y27903500D02*
X36475000Y33872500D01*
X36475000Y33872500D02*
X40031000Y33872500D01*
X40031000Y33872500D02*
X40031000Y27903500D01*
X40031000Y27903500D02*
X36475000Y27903500D01*
X37618000Y30443500D02*
X38888000Y30443500D01*
X38888000Y30443500D02*
X38888000Y31332500D01*
X38888000Y31332500D02*
X37618000Y31332500D01*
X37618000Y31332500D02*
X37618000Y30443500D01*
X38253000Y31586500D02*
X38253000Y33491500D01*
X37491000Y31586500D02*
X39015000Y31586500D01*
X39015000Y30189500D02*
X38253000Y30189500D01*
X38253000Y28284500D02*
X38253000Y30189500D01*
X38253000Y30189500D02*
X37491000Y30189500D01*
X17488500Y1805000D02*
X10191500Y1805000D01*
X10191500Y1805000D02*
X10191500Y4375000D01*
X16091500Y6105000D02*
X11591500Y6105000D01*
X17488500Y1805000D02*
X17488500Y4375000D01*
X2439000Y9615500D02*
X2439000Y16912500D01*
X2439000Y16912500D02*
X5009000Y16912500D01*
X6739000Y11012500D02*
X6739000Y15512500D01*
X2439000Y9615500D02*
X5009000Y9615500D01*
D11*
X21489000Y8556500D02*
X27289000Y8556500D01*
X21489000Y2356500D02*
X27389000Y2356500D01*
X24389000Y7456500D02*
X24389000Y6156500D01*
X24389000Y6156500D02*
X25489000Y4856500D01*
X24389000Y4856500D02*
X24389000Y3356500D01*
D13*
X57712500Y55737000D02*
X57712500Y53737000D01*
X59762500Y53737000D02*
X59762500Y55737000D01*
X36355200Y44682500D02*
X34455200Y44682500D01*
X36355200Y43582500D02*
X34455200Y43582500D01*
X35455200Y44132500D02*
X35005200Y44132500D01*
X35505200Y43882500D02*
X35505200Y44382500D01*
X35505200Y44132500D02*
X35255200Y43882500D01*
X35255200Y43882500D02*
X35255200Y44382500D01*
X35255200Y44382500D02*
X35505200Y44132500D01*
X35806000Y41730300D02*
X34806000Y41730300D01*
X34806000Y43080300D02*
X35806000Y43080300D01*
X19876400Y42498900D02*
X19876400Y41498900D01*
X21576400Y41498900D02*
X21576400Y42498900D01*
D11*
X2702858Y48978429D02*
X2702858Y50478429D01*
X3274286Y50478429D01*
X3417144Y50407000D01*
X3488572Y50335571D01*
X3560001Y50192714D01*
X3560001Y49978429D01*
X3488572Y49835571D01*
X3417144Y49764143D01*
X3274286Y49692714D01*
X2702858Y49692714D01*
X4917144Y50478429D02*
X4202858Y50478429D01*
X4131429Y49764143D01*
X4202858Y49835571D01*
X4345715Y49907000D01*
X4702858Y49907000D01*
X4845715Y49835571D01*
X4917144Y49764143D01*
X4988572Y49621286D01*
X4988572Y49264143D01*
X4917144Y49121286D01*
X4845715Y49049857D01*
X4702858Y48978429D01*
X4345715Y48978429D01*
X4202858Y49049857D01*
X4131429Y49121286D01*
D13*
X34504334Y25360357D02*
X34456715Y25312738D01*
X34313858Y25265119D01*
X34218620Y25265119D01*
X34075762Y25312738D01*
X33980524Y25407976D01*
X33932905Y25503214D01*
X33885286Y25693690D01*
X33885286Y25836548D01*
X33932905Y26027024D01*
X33980524Y26122262D01*
X34075762Y26217500D01*
X34218620Y26265119D01*
X34313858Y26265119D01*
X34456715Y26217500D01*
X34504334Y26169881D01*
X35456715Y25265119D02*
X34885286Y25265119D01*
X35171000Y25265119D02*
X35171000Y26265119D01*
X35075762Y26122262D01*
X34980524Y26027024D01*
X34885286Y25979405D01*
X14565334Y25042857D02*
X14517715Y24995238D01*
X14374858Y24947619D01*
X14279620Y24947619D01*
X14136762Y24995238D01*
X14041524Y25090476D01*
X13993905Y25185714D01*
X13946286Y25376190D01*
X13946286Y25519048D01*
X13993905Y25709524D01*
X14041524Y25804762D01*
X14136762Y25900000D01*
X14279620Y25947619D01*
X14374858Y25947619D01*
X14517715Y25900000D01*
X14565334Y25852381D01*
X14946286Y25852381D02*
X14993905Y25900000D01*
X15089143Y25947619D01*
X15327239Y25947619D01*
X15422477Y25900000D01*
X15470096Y25852381D01*
X15517715Y25757143D01*
X15517715Y25661905D01*
X15470096Y25519048D01*
X14898667Y24947619D01*
X15517715Y24947619D01*
X15529934Y40420957D02*
X15482315Y40373338D01*
X15339458Y40325719D01*
X15244220Y40325719D01*
X15101362Y40373338D01*
X15006124Y40468576D01*
X14958505Y40563814D01*
X14910886Y40754290D01*
X14910886Y40897148D01*
X14958505Y41087624D01*
X15006124Y41182862D01*
X15101362Y41278100D01*
X15244220Y41325719D01*
X15339458Y41325719D01*
X15482315Y41278100D01*
X15529934Y41230481D01*
X15863267Y41325719D02*
X16482315Y41325719D01*
X16148981Y40944767D01*
X16291839Y40944767D01*
X16387077Y40897148D01*
X16434696Y40849529D01*
X16482315Y40754290D01*
X16482315Y40516195D01*
X16434696Y40420957D01*
X16387077Y40373338D01*
X16291839Y40325719D01*
X16006124Y40325719D01*
X15910886Y40373338D01*
X15863267Y40420957D01*
X16724334Y24979357D02*
X16676715Y24931738D01*
X16533858Y24884119D01*
X16438620Y24884119D01*
X16295762Y24931738D01*
X16200524Y25026976D01*
X16152905Y25122214D01*
X16105286Y25312690D01*
X16105286Y25455548D01*
X16152905Y25646024D01*
X16200524Y25741262D01*
X16295762Y25836500D01*
X16438620Y25884119D01*
X16533858Y25884119D01*
X16676715Y25836500D01*
X16724334Y25788881D01*
X17581477Y25550786D02*
X17581477Y24884119D01*
X17343381Y25931738D02*
X17105286Y25217452D01*
X17724334Y25217452D01*
X15530534Y42251357D02*
X15482915Y42203738D01*
X15340058Y42156119D01*
X15244820Y42156119D01*
X15101962Y42203738D01*
X15006724Y42298976D01*
X14959105Y42394214D01*
X14911486Y42584690D01*
X14911486Y42727548D01*
X14959105Y42918024D01*
X15006724Y43013262D01*
X15101962Y43108500D01*
X15244820Y43156119D01*
X15340058Y43156119D01*
X15482915Y43108500D01*
X15530534Y43060881D01*
X16435296Y43156119D02*
X15959105Y43156119D01*
X15911486Y42679929D01*
X15959105Y42727548D01*
X16054343Y42775167D01*
X16292439Y42775167D01*
X16387677Y42727548D01*
X16435296Y42679929D01*
X16482915Y42584690D01*
X16482915Y42346595D01*
X16435296Y42251357D01*
X16387677Y42203738D01*
X16292439Y42156119D01*
X16054343Y42156119D01*
X15959105Y42203738D01*
X15911486Y42251357D01*
X39282643Y40092334D02*
X39330262Y40044715D01*
X39377881Y39901858D01*
X39377881Y39806620D01*
X39330262Y39663762D01*
X39235024Y39568524D01*
X39139786Y39520905D01*
X38949310Y39473286D01*
X38806452Y39473286D01*
X38615976Y39520905D01*
X38520738Y39568524D01*
X38425500Y39663762D01*
X38377881Y39806620D01*
X38377881Y39901858D01*
X38425500Y40044715D01*
X38473119Y40092334D01*
X38377881Y40949477D02*
X38377881Y40759000D01*
X38425500Y40663762D01*
X38473119Y40616143D01*
X38615976Y40520905D01*
X38806452Y40473286D01*
X39187405Y40473286D01*
X39282643Y40520905D01*
X39330262Y40568524D01*
X39377881Y40663762D01*
X39377881Y40854239D01*
X39330262Y40949477D01*
X39282643Y40997096D01*
X39187405Y41044715D01*
X38949310Y41044715D01*
X38854071Y40997096D01*
X38806452Y40949477D01*
X38758833Y40854239D01*
X38758833Y40663762D01*
X38806452Y40568524D01*
X38854071Y40520905D01*
X38949310Y40473286D01*
X34774143Y39965334D02*
X34821762Y39917715D01*
X34869381Y39774858D01*
X34869381Y39679620D01*
X34821762Y39536762D01*
X34726524Y39441524D01*
X34631286Y39393905D01*
X34440810Y39346286D01*
X34297952Y39346286D01*
X34107476Y39393905D01*
X34012238Y39441524D01*
X33917000Y39536762D01*
X33869381Y39679620D01*
X33869381Y39774858D01*
X33917000Y39917715D01*
X33964619Y39965334D01*
X33869381Y40298667D02*
X33869381Y40965334D01*
X34869381Y40536762D01*
X33361334Y28979857D02*
X33313715Y28932238D01*
X33170858Y28884619D01*
X33075620Y28884619D01*
X32932762Y28932238D01*
X32837524Y29027476D01*
X32789905Y29122714D01*
X32742286Y29313190D01*
X32742286Y29456048D01*
X32789905Y29646524D01*
X32837524Y29741762D01*
X32932762Y29837000D01*
X33075620Y29884619D01*
X33170858Y29884619D01*
X33313715Y29837000D01*
X33361334Y29789381D01*
X33932762Y29456048D02*
X33837524Y29503667D01*
X33789905Y29551286D01*
X33742286Y29646524D01*
X33742286Y29694143D01*
X33789905Y29789381D01*
X33837524Y29837000D01*
X33932762Y29884619D01*
X34123239Y29884619D01*
X34218477Y29837000D01*
X34266096Y29789381D01*
X34313715Y29694143D01*
X34313715Y29646524D01*
X34266096Y29551286D01*
X34218477Y29503667D01*
X34123239Y29456048D01*
X33932762Y29456048D01*
X33837524Y29408429D01*
X33789905Y29360810D01*
X33742286Y29265571D01*
X33742286Y29075095D01*
X33789905Y28979857D01*
X33837524Y28932238D01*
X33932762Y28884619D01*
X34123239Y28884619D01*
X34218477Y28932238D01*
X34266096Y28979857D01*
X34313715Y29075095D01*
X34313715Y29265571D01*
X34266096Y29360810D01*
X34218477Y29408429D01*
X34123239Y29456048D01*
X33297834Y31202357D02*
X33250215Y31154738D01*
X33107358Y31107119D01*
X33012120Y31107119D01*
X32869262Y31154738D01*
X32774024Y31249976D01*
X32726405Y31345214D01*
X32678786Y31535690D01*
X32678786Y31678548D01*
X32726405Y31869024D01*
X32774024Y31964262D01*
X32869262Y32059500D01*
X33012120Y32107119D01*
X33107358Y32107119D01*
X33250215Y32059500D01*
X33297834Y32011881D01*
X33774024Y31107119D02*
X33964500Y31107119D01*
X34059739Y31154738D01*
X34107358Y31202357D01*
X34202596Y31345214D01*
X34250215Y31535690D01*
X34250215Y31916643D01*
X34202596Y32011881D01*
X34154977Y32059500D01*
X34059739Y32107119D01*
X33869262Y32107119D01*
X33774024Y32059500D01*
X33726405Y32011881D01*
X33678786Y31916643D01*
X33678786Y31678548D01*
X33726405Y31583310D01*
X33774024Y31535690D01*
X33869262Y31488071D01*
X34059739Y31488071D01*
X34154977Y31535690D01*
X34202596Y31583310D01*
X34250215Y31678548D01*
X14343143Y7072357D02*
X14295524Y7024738D01*
X14152667Y6977119D01*
X14057429Y6977119D01*
X13914571Y7024738D01*
X13819333Y7119976D01*
X13771714Y7215214D01*
X13724095Y7405690D01*
X13724095Y7548548D01*
X13771714Y7739024D01*
X13819333Y7834262D01*
X13914571Y7929500D01*
X14057429Y7977119D01*
X14152667Y7977119D01*
X14295524Y7929500D01*
X14343143Y7881881D01*
X15295524Y6977119D02*
X14724095Y6977119D01*
X15009809Y6977119D02*
X15009809Y7977119D01*
X14914571Y7834262D01*
X14819333Y7739024D01*
X14724095Y7691405D01*
X15676476Y7881881D02*
X15724095Y7929500D01*
X15819333Y7977119D01*
X16057429Y7977119D01*
X16152667Y7929500D01*
X16200286Y7881881D01*
X16247905Y7786643D01*
X16247905Y7691405D01*
X16200286Y7548548D01*
X15628857Y6977119D01*
X16247905Y6977119D01*
X8374143Y15454357D02*
X8326524Y15406738D01*
X8183667Y15359119D01*
X8088429Y15359119D01*
X7945571Y15406738D01*
X7850333Y15501976D01*
X7802714Y15597214D01*
X7755095Y15787690D01*
X7755095Y15930548D01*
X7802714Y16121024D01*
X7850333Y16216262D01*
X7945571Y16311500D01*
X8088429Y16359119D01*
X8183667Y16359119D01*
X8326524Y16311500D01*
X8374143Y16263881D01*
X9326524Y15359119D02*
X8755095Y15359119D01*
X9040809Y15359119D02*
X9040809Y16359119D01*
X8945571Y16216262D01*
X8850333Y16121024D01*
X8755095Y16073405D01*
X9659857Y16359119D02*
X10278905Y16359119D01*
X9945571Y15978167D01*
X10088429Y15978167D01*
X10183667Y15930548D01*
X10231286Y15882929D01*
X10278905Y15787690D01*
X10278905Y15549595D01*
X10231286Y15454357D01*
X10183667Y15406738D01*
X10088429Y15359119D01*
X9802714Y15359119D01*
X9707476Y15406738D01*
X9659857Y15454357D01*
X54983143Y56348357D02*
X54935524Y56300738D01*
X54792667Y56253119D01*
X54697429Y56253119D01*
X54554571Y56300738D01*
X54459333Y56395976D01*
X54411714Y56491214D01*
X54364095Y56681690D01*
X54364095Y56824548D01*
X54411714Y57015024D01*
X54459333Y57110262D01*
X54554571Y57205500D01*
X54697429Y57253119D01*
X54792667Y57253119D01*
X54935524Y57205500D01*
X54983143Y57157881D01*
X55935524Y56253119D02*
X55364095Y56253119D01*
X55649809Y56253119D02*
X55649809Y57253119D01*
X55554571Y57110262D01*
X55459333Y57015024D01*
X55364095Y56967405D01*
X56792667Y56919786D02*
X56792667Y56253119D01*
X56554571Y57300738D02*
X56316476Y56586452D01*
X56935524Y56586452D01*
X53649643Y47648857D02*
X53602024Y47601238D01*
X53459167Y47553619D01*
X53363929Y47553619D01*
X53221071Y47601238D01*
X53125833Y47696476D01*
X53078214Y47791714D01*
X53030595Y47982190D01*
X53030595Y48125048D01*
X53078214Y48315524D01*
X53125833Y48410762D01*
X53221071Y48506000D01*
X53363929Y48553619D01*
X53459167Y48553619D01*
X53602024Y48506000D01*
X53649643Y48458381D01*
X54602024Y47553619D02*
X54030595Y47553619D01*
X54316309Y47553619D02*
X54316309Y48553619D01*
X54221071Y48410762D01*
X54125833Y48315524D01*
X54030595Y48267905D01*
X55506786Y48553619D02*
X55030595Y48553619D01*
X54982976Y48077429D01*
X55030595Y48125048D01*
X55125833Y48172667D01*
X55363929Y48172667D01*
X55459167Y48125048D01*
X55506786Y48077429D01*
X55554405Y47982190D01*
X55554405Y47744095D01*
X55506786Y47648857D01*
X55459167Y47601238D01*
X55363929Y47553619D01*
X55125833Y47553619D01*
X55030595Y47601238D01*
X54982976Y47648857D01*
X20121643Y22693357D02*
X20074024Y22645738D01*
X19931167Y22598119D01*
X19835929Y22598119D01*
X19693071Y22645738D01*
X19597833Y22740976D01*
X19550214Y22836214D01*
X19502595Y23026690D01*
X19502595Y23169548D01*
X19550214Y23360024D01*
X19597833Y23455262D01*
X19693071Y23550500D01*
X19835929Y23598119D01*
X19931167Y23598119D01*
X20074024Y23550500D01*
X20121643Y23502881D01*
X21074024Y22598119D02*
X20502595Y22598119D01*
X20788309Y22598119D02*
X20788309Y23598119D01*
X20693071Y23455262D01*
X20597833Y23360024D01*
X20502595Y23312405D01*
X21931167Y23598119D02*
X21740690Y23598119D01*
X21645452Y23550500D01*
X21597833Y23502881D01*
X21502595Y23360024D01*
X21454976Y23169548D01*
X21454976Y22788595D01*
X21502595Y22693357D01*
X21550214Y22645738D01*
X21645452Y22598119D01*
X21835929Y22598119D01*
X21931167Y22645738D01*
X21978786Y22693357D01*
X22026405Y22788595D01*
X22026405Y23026690D01*
X21978786Y23121929D01*
X21931167Y23169548D01*
X21835929Y23217167D01*
X21645452Y23217167D01*
X21550214Y23169548D01*
X21502595Y23121929D01*
X21454976Y23026690D01*
X47680643Y47712357D02*
X47633024Y47664738D01*
X47490167Y47617119D01*
X47394929Y47617119D01*
X47252071Y47664738D01*
X47156833Y47759976D01*
X47109214Y47855214D01*
X47061595Y48045690D01*
X47061595Y48188548D01*
X47109214Y48379024D01*
X47156833Y48474262D01*
X47252071Y48569500D01*
X47394929Y48617119D01*
X47490167Y48617119D01*
X47633024Y48569500D01*
X47680643Y48521881D01*
X48633024Y47617119D02*
X48061595Y47617119D01*
X48347309Y47617119D02*
X48347309Y48617119D01*
X48252071Y48474262D01*
X48156833Y48379024D01*
X48061595Y48331405D01*
X48966357Y48617119D02*
X49633024Y48617119D01*
X49204452Y47617119D01*
X17200643Y22629857D02*
X17153024Y22582238D01*
X17010167Y22534619D01*
X16914929Y22534619D01*
X16772071Y22582238D01*
X16676833Y22677476D01*
X16629214Y22772714D01*
X16581595Y22963190D01*
X16581595Y23106048D01*
X16629214Y23296524D01*
X16676833Y23391762D01*
X16772071Y23487000D01*
X16914929Y23534619D01*
X17010167Y23534619D01*
X17153024Y23487000D01*
X17200643Y23439381D01*
X18153024Y22534619D02*
X17581595Y22534619D01*
X17867309Y22534619D02*
X17867309Y23534619D01*
X17772071Y23391762D01*
X17676833Y23296524D01*
X17581595Y23248905D01*
X18724452Y23106048D02*
X18629214Y23153667D01*
X18581595Y23201286D01*
X18533976Y23296524D01*
X18533976Y23344143D01*
X18581595Y23439381D01*
X18629214Y23487000D01*
X18724452Y23534619D01*
X18914929Y23534619D01*
X19010167Y23487000D01*
X19057786Y23439381D01*
X19105405Y23344143D01*
X19105405Y23296524D01*
X19057786Y23201286D01*
X19010167Y23153667D01*
X18914929Y23106048D01*
X18724452Y23106048D01*
X18629214Y23058429D01*
X18581595Y23010810D01*
X18533976Y22915571D01*
X18533976Y22725095D01*
X18581595Y22629857D01*
X18629214Y22582238D01*
X18724452Y22534619D01*
X18914929Y22534619D01*
X19010167Y22582238D01*
X19057786Y22629857D01*
X19105405Y22725095D01*
X19105405Y22915571D01*
X19057786Y23010810D01*
X19010167Y23058429D01*
X18914929Y23106048D01*
X43616643Y53617857D02*
X43569024Y53570238D01*
X43426167Y53522619D01*
X43330929Y53522619D01*
X43188071Y53570238D01*
X43092833Y53665476D01*
X43045214Y53760714D01*
X42997595Y53951190D01*
X42997595Y54094048D01*
X43045214Y54284524D01*
X43092833Y54379762D01*
X43188071Y54475000D01*
X43330929Y54522619D01*
X43426167Y54522619D01*
X43569024Y54475000D01*
X43616643Y54427381D01*
X44569024Y53522619D02*
X43997595Y53522619D01*
X44283309Y53522619D02*
X44283309Y54522619D01*
X44188071Y54379762D01*
X44092833Y54284524D01*
X43997595Y54236905D01*
X45045214Y53522619D02*
X45235690Y53522619D01*
X45330929Y53570238D01*
X45378548Y53617857D01*
X45473786Y53760714D01*
X45521405Y53951190D01*
X45521405Y54332143D01*
X45473786Y54427381D01*
X45426167Y54475000D01*
X45330929Y54522619D01*
X45140452Y54522619D01*
X45045214Y54475000D01*
X44997595Y54427381D01*
X44949976Y54332143D01*
X44949976Y54094048D01*
X44997595Y53998810D01*
X45045214Y53951190D01*
X45140452Y53903571D01*
X45330929Y53903571D01*
X45426167Y53951190D01*
X45473786Y53998810D01*
X45521405Y54094048D01*
X46601143Y53617857D02*
X46553524Y53570238D01*
X46410667Y53522619D01*
X46315429Y53522619D01*
X46172571Y53570238D01*
X46077333Y53665476D01*
X46029714Y53760714D01*
X45982095Y53951190D01*
X45982095Y54094048D01*
X46029714Y54284524D01*
X46077333Y54379762D01*
X46172571Y54475000D01*
X46315429Y54522619D01*
X46410667Y54522619D01*
X46553524Y54475000D01*
X46601143Y54427381D01*
X46982095Y54427381D02*
X47029714Y54475000D01*
X47124952Y54522619D01*
X47363048Y54522619D01*
X47458286Y54475000D01*
X47505905Y54427381D01*
X47553524Y54332143D01*
X47553524Y54236905D01*
X47505905Y54094048D01*
X46934476Y53522619D01*
X47553524Y53522619D01*
X48172571Y54522619D02*
X48267810Y54522619D01*
X48363048Y54475000D01*
X48410667Y54427381D01*
X48458286Y54332143D01*
X48505905Y54141667D01*
X48505905Y53903571D01*
X48458286Y53713095D01*
X48410667Y53617857D01*
X48363048Y53570238D01*
X48267810Y53522619D01*
X48172571Y53522619D01*
X48077333Y53570238D01*
X48029714Y53617857D01*
X47982095Y53713095D01*
X47934476Y53903571D01*
X47934476Y54141667D01*
X47982095Y54332143D01*
X48029714Y54427381D01*
X48077333Y54475000D01*
X48172571Y54522619D01*
X14089143Y22693357D02*
X14041524Y22645738D01*
X13898667Y22598119D01*
X13803429Y22598119D01*
X13660571Y22645738D01*
X13565333Y22740976D01*
X13517714Y22836214D01*
X13470095Y23026690D01*
X13470095Y23169548D01*
X13517714Y23360024D01*
X13565333Y23455262D01*
X13660571Y23550500D01*
X13803429Y23598119D01*
X13898667Y23598119D01*
X14041524Y23550500D01*
X14089143Y23502881D01*
X14470095Y23502881D02*
X14517714Y23550500D01*
X14612952Y23598119D01*
X14851048Y23598119D01*
X14946286Y23550500D01*
X14993905Y23502881D01*
X15041524Y23407643D01*
X15041524Y23312405D01*
X14993905Y23169548D01*
X14422476Y22598119D01*
X15041524Y22598119D01*
X15993905Y22598119D02*
X15422476Y22598119D01*
X15708190Y22598119D02*
X15708190Y23598119D01*
X15612952Y23455262D01*
X15517714Y23360024D01*
X15422476Y23312405D01*
X24979405Y19105619D02*
X24979405Y20105619D01*
X25217500Y20105619D01*
X25360358Y20058000D01*
X25455596Y19962762D01*
X25503215Y19867524D01*
X25550834Y19677048D01*
X25550834Y19534190D01*
X25503215Y19343714D01*
X25455596Y19248476D01*
X25360358Y19153238D01*
X25217500Y19105619D01*
X24979405Y19105619D01*
X26503215Y19105619D02*
X25931786Y19105619D01*
X26217500Y19105619D02*
X26217500Y20105619D01*
X26122262Y19962762D01*
X26027024Y19867524D01*
X25931786Y19819905D01*
X21740905Y19232619D02*
X21740905Y20232619D01*
X21979000Y20232619D01*
X22121858Y20185000D01*
X22217096Y20089762D01*
X22264715Y19994524D01*
X22312334Y19804048D01*
X22312334Y19661190D01*
X22264715Y19470714D01*
X22217096Y19375476D01*
X22121858Y19280238D01*
X21979000Y19232619D01*
X21740905Y19232619D01*
X22693286Y20137381D02*
X22740905Y20185000D01*
X22836143Y20232619D01*
X23074239Y20232619D01*
X23169477Y20185000D01*
X23217096Y20137381D01*
X23264715Y20042143D01*
X23264715Y19946905D01*
X23217096Y19804048D01*
X22645667Y19232619D01*
X23264715Y19232619D01*
X36115667Y13469929D02*
X35782333Y13469929D01*
X35782333Y12946119D02*
X35782333Y13946119D01*
X36258524Y13946119D01*
X37163286Y12946119D02*
X36591857Y12946119D01*
X36877571Y12946119D02*
X36877571Y13946119D01*
X36782333Y13803262D01*
X36687095Y13708024D01*
X36591857Y13660405D01*
X47712334Y55872119D02*
X47236143Y55872119D01*
X47236143Y56872119D01*
X48569477Y55872119D02*
X47998048Y55872119D01*
X48283762Y55872119D02*
X48283762Y56872119D01*
X48188524Y56729262D01*
X48093286Y56634024D01*
X47998048Y56586405D01*
X30376905Y8628119D02*
X30376905Y9628119D01*
X30757858Y9628119D01*
X30853096Y9580500D01*
X30900715Y9532881D01*
X30948334Y9437643D01*
X30948334Y9294786D01*
X30900715Y9199548D01*
X30853096Y9151929D01*
X30757858Y9104310D01*
X30376905Y9104310D01*
X31900715Y8628119D02*
X31329286Y8628119D01*
X31615000Y8628119D02*
X31615000Y9628119D01*
X31519762Y9485262D01*
X31424524Y9390024D01*
X31329286Y9342405D01*
D11*
X37912786Y13236643D02*
X37912786Y14436643D01*
X38369929Y14436643D01*
X38484215Y14379500D01*
X38541358Y14322357D01*
X38598501Y14208071D01*
X38598501Y14036643D01*
X38541358Y13922357D01*
X38484215Y13865214D01*
X38369929Y13808071D01*
X37912786Y13808071D01*
X39055643Y14322357D02*
X39112786Y14379500D01*
X39227072Y14436643D01*
X39512786Y14436643D01*
X39627072Y14379500D01*
X39684215Y14322357D01*
X39741358Y14208071D01*
X39741358Y14093786D01*
X39684215Y13922357D01*
X38998501Y13236643D01*
X39741358Y13236643D01*
X57788286Y11268143D02*
X57788286Y12468143D01*
X58245429Y12468143D01*
X58359715Y12411000D01*
X58416858Y12353857D01*
X58474001Y12239571D01*
X58474001Y12068143D01*
X58416858Y11953857D01*
X58359715Y11896714D01*
X58245429Y11839571D01*
X57788286Y11839571D01*
X58874001Y12468143D02*
X59616858Y12468143D01*
X59216858Y12011000D01*
X59388286Y12011000D01*
X59502572Y11953857D01*
X59559715Y11896714D01*
X59616858Y11782429D01*
X59616858Y11496714D01*
X59559715Y11382429D01*
X59502572Y11325286D01*
X59388286Y11268143D01*
X59045429Y11268143D01*
X58931143Y11325286D01*
X58874001Y11382429D01*
D13*
X52157405Y13771619D02*
X52157405Y14771619D01*
X52538358Y14771619D01*
X52633596Y14724000D01*
X52681215Y14676381D01*
X52728834Y14581143D01*
X52728834Y14438286D01*
X52681215Y14343048D01*
X52633596Y14295429D01*
X52538358Y14247810D01*
X52157405Y14247810D01*
X53585977Y14438286D02*
X53585977Y13771619D01*
X53347881Y14819238D02*
X53109786Y14104952D01*
X53728834Y14104952D01*
X17232405Y15232119D02*
X17232405Y16232119D01*
X17613358Y16232119D01*
X17708596Y16184500D01*
X17756215Y16136881D01*
X17803834Y16041643D01*
X17803834Y15898786D01*
X17756215Y15803548D01*
X17708596Y15755929D01*
X17613358Y15708310D01*
X17232405Y15708310D01*
X18660977Y16232119D02*
X18470500Y16232119D01*
X18375262Y16184500D01*
X18327643Y16136881D01*
X18232405Y15994024D01*
X18184786Y15803548D01*
X18184786Y15422595D01*
X18232405Y15327357D01*
X18280024Y15279738D01*
X18375262Y15232119D01*
X18565739Y15232119D01*
X18660977Y15279738D01*
X18708596Y15327357D01*
X18756215Y15422595D01*
X18756215Y15660690D01*
X18708596Y15755929D01*
X18660977Y15803548D01*
X18565739Y15851167D01*
X18375262Y15851167D01*
X18280024Y15803548D01*
X18232405Y15755929D01*
X18184786Y15660690D01*
D11*
X40358358Y49486429D02*
X40358358Y50986429D01*
X40929786Y50986429D01*
X41072644Y50915000D01*
X41144072Y50843571D01*
X41215501Y50700714D01*
X41215501Y50486429D01*
X41144072Y50343571D01*
X41072644Y50272143D01*
X40929786Y50200714D01*
X40358358Y50200714D01*
X41715501Y50986429D02*
X42715501Y50986429D01*
X42072644Y49486429D01*
D13*
X36917405Y18343619D02*
X36917405Y19343619D01*
X37298358Y19343619D01*
X37393596Y19296000D01*
X37441215Y19248381D01*
X37488834Y19153143D01*
X37488834Y19010286D01*
X37441215Y18915048D01*
X37393596Y18867429D01*
X37298358Y18819810D01*
X36917405Y18819810D01*
X38060262Y18915048D02*
X37965024Y18962667D01*
X37917405Y19010286D01*
X37869786Y19105524D01*
X37869786Y19153143D01*
X37917405Y19248381D01*
X37965024Y19296000D01*
X38060262Y19343619D01*
X38250739Y19343619D01*
X38345977Y19296000D01*
X38393596Y19248381D01*
X38441215Y19153143D01*
X38441215Y19105524D01*
X38393596Y19010286D01*
X38345977Y18962667D01*
X38250739Y18915048D01*
X38060262Y18915048D01*
X37965024Y18867429D01*
X37917405Y18819810D01*
X37869786Y18724571D01*
X37869786Y18534095D01*
X37917405Y18438857D01*
X37965024Y18391238D01*
X38060262Y18343619D01*
X38250739Y18343619D01*
X38345977Y18391238D01*
X38393596Y18438857D01*
X38441215Y18534095D01*
X38441215Y18724571D01*
X38393596Y18819810D01*
X38345977Y18867429D01*
X38250739Y18915048D01*
X10031505Y33774119D02*
X10031505Y34774119D01*
X10412458Y34774119D01*
X10507696Y34726500D01*
X10555315Y34678881D01*
X10602934Y34583643D01*
X10602934Y34440786D01*
X10555315Y34345548D01*
X10507696Y34297929D01*
X10412458Y34250310D01*
X10031505Y34250310D01*
X11079124Y33774119D02*
X11269600Y33774119D01*
X11364839Y33821738D01*
X11412458Y33869357D01*
X11507696Y34012214D01*
X11555315Y34202690D01*
X11555315Y34583643D01*
X11507696Y34678881D01*
X11460077Y34726500D01*
X11364839Y34774119D01*
X11174362Y34774119D01*
X11079124Y34726500D01*
X11031505Y34678881D01*
X10983886Y34583643D01*
X10983886Y34345548D01*
X11031505Y34250310D01*
X11079124Y34202690D01*
X11174362Y34155071D01*
X11364839Y34155071D01*
X11460077Y34202690D01*
X11507696Y34250310D01*
X11555315Y34345548D01*
X6354914Y33824919D02*
X6354914Y34824919D01*
X6735867Y34824919D01*
X6831105Y34777300D01*
X6878724Y34729681D01*
X6926343Y34634443D01*
X6926343Y34491586D01*
X6878724Y34396348D01*
X6831105Y34348729D01*
X6735867Y34301110D01*
X6354914Y34301110D01*
X7878724Y33824919D02*
X7307295Y33824919D01*
X7593009Y33824919D02*
X7593009Y34824919D01*
X7497771Y34682062D01*
X7402533Y34586824D01*
X7307295Y34539205D01*
X8831105Y33824919D02*
X8259676Y33824919D01*
X8545390Y33824919D02*
X8545390Y34824919D01*
X8450152Y34682062D01*
X8354914Y34586824D01*
X8259676Y34539205D01*
X59174214Y23042619D02*
X59174214Y24042619D01*
X59555167Y24042619D01*
X59650405Y23995000D01*
X59698024Y23947381D01*
X59745643Y23852143D01*
X59745643Y23709286D01*
X59698024Y23614048D01*
X59650405Y23566429D01*
X59555167Y23518810D01*
X59174214Y23518810D01*
X60698024Y23042619D02*
X60126595Y23042619D01*
X60412309Y23042619D02*
X60412309Y24042619D01*
X60317071Y23899762D01*
X60221833Y23804524D01*
X60126595Y23756905D01*
X61078976Y23947381D02*
X61126595Y23995000D01*
X61221833Y24042619D01*
X61459929Y24042619D01*
X61555167Y23995000D01*
X61602786Y23947381D01*
X61650405Y23852143D01*
X61650405Y23756905D01*
X61602786Y23614048D01*
X61031357Y23042619D01*
X61650405Y23042619D01*
X51998714Y30472119D02*
X51998714Y31472119D01*
X52379667Y31472119D01*
X52474905Y31424500D01*
X52522524Y31376881D01*
X52570143Y31281643D01*
X52570143Y31138786D01*
X52522524Y31043548D01*
X52474905Y30995929D01*
X52379667Y30948310D01*
X51998714Y30948310D01*
X53522524Y30472119D02*
X52951095Y30472119D01*
X53236809Y30472119D02*
X53236809Y31472119D01*
X53141571Y31329262D01*
X53046333Y31234024D01*
X52951095Y31186405D01*
X53855857Y31472119D02*
X54474905Y31472119D01*
X54141571Y31091167D01*
X54284429Y31091167D01*
X54379667Y31043548D01*
X54427286Y30995929D01*
X54474905Y30900690D01*
X54474905Y30662595D01*
X54427286Y30567357D01*
X54379667Y30519738D01*
X54284429Y30472119D01*
X53998714Y30472119D01*
X53903476Y30519738D01*
X53855857Y30567357D01*
X51935214Y37076119D02*
X51935214Y38076119D01*
X52316167Y38076119D01*
X52411405Y38028500D01*
X52459024Y37980881D01*
X52506643Y37885643D01*
X52506643Y37742786D01*
X52459024Y37647548D01*
X52411405Y37599929D01*
X52316167Y37552310D01*
X51935214Y37552310D01*
X53459024Y37076119D02*
X52887595Y37076119D01*
X53173309Y37076119D02*
X53173309Y38076119D01*
X53078071Y37933262D01*
X52982833Y37838024D01*
X52887595Y37790405D01*
X54316167Y37742786D02*
X54316167Y37076119D01*
X54078071Y38123738D02*
X53839976Y37409452D01*
X54459024Y37409452D01*
X50220714Y43743619D02*
X50220714Y44743619D01*
X50601667Y44743619D01*
X50696905Y44696000D01*
X50744524Y44648381D01*
X50792143Y44553143D01*
X50792143Y44410286D01*
X50744524Y44315048D01*
X50696905Y44267429D01*
X50601667Y44219810D01*
X50220714Y44219810D01*
X51744524Y43743619D02*
X51173095Y43743619D01*
X51458809Y43743619D02*
X51458809Y44743619D01*
X51363571Y44600762D01*
X51268333Y44505524D01*
X51173095Y44457905D01*
X52649286Y44743619D02*
X52173095Y44743619D01*
X52125476Y44267429D01*
X52173095Y44315048D01*
X52268333Y44362667D01*
X52506429Y44362667D01*
X52601667Y44315048D01*
X52649286Y44267429D01*
X52696905Y44172190D01*
X52696905Y43934095D01*
X52649286Y43838857D01*
X52601667Y43791238D01*
X52506429Y43743619D01*
X52268333Y43743619D01*
X52173095Y43791238D01*
X52125476Y43838857D01*
X2532214Y33774119D02*
X2532214Y34774119D01*
X2913167Y34774119D01*
X3008405Y34726500D01*
X3056024Y34678881D01*
X3103643Y34583643D01*
X3103643Y34440786D01*
X3056024Y34345548D01*
X3008405Y34297929D01*
X2913167Y34250310D01*
X2532214Y34250310D01*
X4056024Y33774119D02*
X3484595Y33774119D01*
X3770309Y33774119D02*
X3770309Y34774119D01*
X3675071Y34631262D01*
X3579833Y34536024D01*
X3484595Y34488405D01*
X4389357Y34774119D02*
X5056024Y34774119D01*
X4627452Y33774119D01*
X40838381Y40409834D02*
X40362190Y40076500D01*
X40838381Y39838405D02*
X39838381Y39838405D01*
X39838381Y40219358D01*
X39886000Y40314596D01*
X39933619Y40362215D01*
X40028857Y40409834D01*
X40171714Y40409834D01*
X40266952Y40362215D01*
X40314571Y40314596D01*
X40362190Y40219358D01*
X40362190Y39838405D01*
X40838381Y41362215D02*
X40838381Y40790786D01*
X40838381Y41076500D02*
X39838381Y41076500D01*
X39981238Y40981262D01*
X40076476Y40886024D01*
X40124095Y40790786D01*
X32726334Y25836619D02*
X32393000Y26312810D01*
X32154905Y25836619D02*
X32154905Y26836619D01*
X32535858Y26836619D01*
X32631096Y26789000D01*
X32678715Y26741381D01*
X32726334Y26646143D01*
X32726334Y26503286D01*
X32678715Y26408048D01*
X32631096Y26360429D01*
X32535858Y26312810D01*
X32154905Y26312810D01*
X33107286Y26741381D02*
X33154905Y26789000D01*
X33250143Y26836619D01*
X33488239Y26836619D01*
X33583477Y26789000D01*
X33631096Y26741381D01*
X33678715Y26646143D01*
X33678715Y26550905D01*
X33631096Y26408048D01*
X33059667Y25836619D01*
X33678715Y25836619D01*
X37488834Y41457619D02*
X37155500Y41933810D01*
X36917405Y41457619D02*
X36917405Y42457619D01*
X37298358Y42457619D01*
X37393596Y42410000D01*
X37441215Y42362381D01*
X37488834Y42267143D01*
X37488834Y42124286D01*
X37441215Y42029048D01*
X37393596Y41981429D01*
X37298358Y41933810D01*
X36917405Y41933810D01*
X37822167Y42457619D02*
X38441215Y42457619D01*
X38107881Y42076667D01*
X38250739Y42076667D01*
X38345977Y42029048D01*
X38393596Y41981429D01*
X38441215Y41886190D01*
X38441215Y41648095D01*
X38393596Y41552857D01*
X38345977Y41505238D01*
X38250739Y41457619D01*
X37965024Y41457619D01*
X37869786Y41505238D01*
X37822167Y41552857D01*
X37790381Y40028834D02*
X37314190Y39695500D01*
X37790381Y39457405D02*
X36790381Y39457405D01*
X36790381Y39838358D01*
X36838000Y39933596D01*
X36885619Y39981215D01*
X36980857Y40028834D01*
X37123714Y40028834D01*
X37218952Y39981215D01*
X37266571Y39933596D01*
X37314190Y39838358D01*
X37314190Y39457405D01*
X37123714Y40885977D02*
X37790381Y40885977D01*
X36742762Y40647881D02*
X37457048Y40409786D01*
X37457048Y41028834D01*
X27392334Y21455119D02*
X27059000Y21931310D01*
X26820905Y21455119D02*
X26820905Y22455119D01*
X27201858Y22455119D01*
X27297096Y22407500D01*
X27344715Y22359881D01*
X27392334Y22264643D01*
X27392334Y22121786D01*
X27344715Y22026548D01*
X27297096Y21978929D01*
X27201858Y21931310D01*
X26820905Y21931310D01*
X28297096Y22455119D02*
X27820905Y22455119D01*
X27773286Y21978929D01*
X27820905Y22026548D01*
X27916143Y22074167D01*
X28154239Y22074167D01*
X28249477Y22026548D01*
X28297096Y21978929D01*
X28344715Y21883690D01*
X28344715Y21645595D01*
X28297096Y21550357D01*
X28249477Y21502738D01*
X28154239Y21455119D01*
X27916143Y21455119D01*
X27820905Y21502738D01*
X27773286Y21550357D01*
X36266381Y40028834D02*
X35790190Y39695500D01*
X36266381Y39457405D02*
X35266381Y39457405D01*
X35266381Y39838358D01*
X35314000Y39933596D01*
X35361619Y39981215D01*
X35456857Y40028834D01*
X35599714Y40028834D01*
X35694952Y39981215D01*
X35742571Y39933596D01*
X35790190Y39838358D01*
X35790190Y39457405D01*
X35266381Y40362167D02*
X35266381Y41028834D01*
X36266381Y40600262D01*
X15549643Y9771119D02*
X15216309Y10247310D01*
X14978214Y9771119D02*
X14978214Y10771119D01*
X15359167Y10771119D01*
X15454405Y10723500D01*
X15502024Y10675881D01*
X15549643Y10580643D01*
X15549643Y10437786D01*
X15502024Y10342548D01*
X15454405Y10294929D01*
X15359167Y10247310D01*
X14978214Y10247310D01*
X16502024Y9771119D02*
X15930595Y9771119D01*
X16216309Y9771119D02*
X16216309Y10771119D01*
X16121071Y10628262D01*
X16025833Y10533024D01*
X15930595Y10485405D01*
X17121071Y10771119D02*
X17216310Y10771119D01*
X17311548Y10723500D01*
X17359167Y10675881D01*
X17406786Y10580643D01*
X17454405Y10390167D01*
X17454405Y10152071D01*
X17406786Y9961595D01*
X17359167Y9866357D01*
X17311548Y9818738D01*
X17216310Y9771119D01*
X17121071Y9771119D01*
X17025833Y9818738D01*
X16978214Y9866357D01*
X16930595Y9961595D01*
X16882976Y10152071D01*
X16882976Y10390167D01*
X16930595Y10580643D01*
X16978214Y10675881D01*
X17025833Y10723500D01*
X17121071Y10771119D01*
X28757643Y19169119D02*
X28424309Y19645310D01*
X28186214Y19169119D02*
X28186214Y20169119D01*
X28567167Y20169119D01*
X28662405Y20121500D01*
X28710024Y20073881D01*
X28757643Y19978643D01*
X28757643Y19835786D01*
X28710024Y19740548D01*
X28662405Y19692929D01*
X28567167Y19645310D01*
X28186214Y19645310D01*
X29710024Y19169119D02*
X29138595Y19169119D01*
X29424309Y19169119D02*
X29424309Y20169119D01*
X29329071Y20026262D01*
X29233833Y19931024D01*
X29138595Y19883405D01*
X30662405Y19169119D02*
X30090976Y19169119D01*
X30376690Y19169119D02*
X30376690Y20169119D01*
X30281452Y20026262D01*
X30186214Y19931024D01*
X30090976Y19883405D01*
X18978643Y19232619D02*
X18645309Y19708810D01*
X18407214Y19232619D02*
X18407214Y20232619D01*
X18788167Y20232619D01*
X18883405Y20185000D01*
X18931024Y20137381D01*
X18978643Y20042143D01*
X18978643Y19899286D01*
X18931024Y19804048D01*
X18883405Y19756429D01*
X18788167Y19708810D01*
X18407214Y19708810D01*
X19931024Y19232619D02*
X19359595Y19232619D01*
X19645309Y19232619D02*
X19645309Y20232619D01*
X19550071Y20089762D01*
X19454833Y19994524D01*
X19359595Y19946905D01*
X20311976Y20137381D02*
X20359595Y20185000D01*
X20454833Y20232619D01*
X20692929Y20232619D01*
X20788167Y20185000D01*
X20835786Y20137381D01*
X20883405Y20042143D01*
X20883405Y19946905D01*
X20835786Y19804048D01*
X20264357Y19232619D01*
X20883405Y19232619D01*
X11803143Y10723619D02*
X11469809Y11199810D01*
X11231714Y10723619D02*
X11231714Y11723619D01*
X11612667Y11723619D01*
X11707905Y11676000D01*
X11755524Y11628381D01*
X11803143Y11533143D01*
X11803143Y11390286D01*
X11755524Y11295048D01*
X11707905Y11247429D01*
X11612667Y11199810D01*
X11231714Y11199810D01*
X12755524Y10723619D02*
X12184095Y10723619D01*
X12469809Y10723619D02*
X12469809Y11723619D01*
X12374571Y11580762D01*
X12279333Y11485524D01*
X12184095Y11437905D01*
X13088857Y11723619D02*
X13707905Y11723619D01*
X13374571Y11342667D01*
X13517429Y11342667D01*
X13612667Y11295048D01*
X13660286Y11247429D01*
X13707905Y11152190D01*
X13707905Y10914095D01*
X13660286Y10818857D01*
X13612667Y10771238D01*
X13517429Y10723619D01*
X13231714Y10723619D01*
X13136476Y10771238D01*
X13088857Y10818857D01*
X9136143Y10406119D02*
X8802809Y10882310D01*
X8564714Y10406119D02*
X8564714Y11406119D01*
X8945667Y11406119D01*
X9040905Y11358500D01*
X9088524Y11310881D01*
X9136143Y11215643D01*
X9136143Y11072786D01*
X9088524Y10977548D01*
X9040905Y10929929D01*
X8945667Y10882310D01*
X8564714Y10882310D01*
X10088524Y10406119D02*
X9517095Y10406119D01*
X9802809Y10406119D02*
X9802809Y11406119D01*
X9707571Y11263262D01*
X9612333Y11168024D01*
X9517095Y11120405D01*
X10945667Y11072786D02*
X10945667Y10406119D01*
X10707571Y11453738D02*
X10469476Y10739452D01*
X11088524Y10739452D01*
X8707381Y8183643D02*
X8231190Y7850309D01*
X8707381Y7612214D02*
X7707381Y7612214D01*
X7707381Y7993167D01*
X7755000Y8088405D01*
X7802619Y8136024D01*
X7897857Y8183643D01*
X8040714Y8183643D01*
X8135952Y8136024D01*
X8183571Y8088405D01*
X8231190Y7993167D01*
X8231190Y7612214D01*
X8707381Y9136024D02*
X8707381Y8564595D01*
X8707381Y8850309D02*
X7707381Y8850309D01*
X7850238Y8755071D01*
X7945476Y8659833D01*
X7993095Y8564595D01*
X7707381Y10040786D02*
X7707381Y9564595D01*
X8183571Y9516976D01*
X8135952Y9564595D01*
X8088333Y9659833D01*
X8088333Y9897929D01*
X8135952Y9993167D01*
X8183571Y10040786D01*
X8278810Y10088405D01*
X8516905Y10088405D01*
X8612143Y10040786D01*
X8659762Y9993167D01*
X8707381Y9897929D01*
X8707381Y9659833D01*
X8659762Y9564595D01*
X8612143Y9516976D01*
X16581381Y12438143D02*
X16105190Y12104809D01*
X16581381Y11866714D02*
X15581381Y11866714D01*
X15581381Y12247667D01*
X15629000Y12342905D01*
X15676619Y12390524D01*
X15771857Y12438143D01*
X15914714Y12438143D01*
X16009952Y12390524D01*
X16057571Y12342905D01*
X16105190Y12247667D01*
X16105190Y11866714D01*
X16581381Y13390524D02*
X16581381Y12819095D01*
X16581381Y13104809D02*
X15581381Y13104809D01*
X15724238Y13009571D01*
X15819476Y12914333D01*
X15867095Y12819095D01*
X15581381Y14247667D02*
X15581381Y14057190D01*
X15629000Y13961952D01*
X15676619Y13914333D01*
X15819476Y13819095D01*
X16009952Y13771476D01*
X16390905Y13771476D01*
X16486143Y13819095D01*
X16533762Y13866714D01*
X16581381Y13961952D01*
X16581381Y14152429D01*
X16533762Y14247667D01*
X16486143Y14295286D01*
X16390905Y14342905D01*
X16152810Y14342905D01*
X16057571Y14295286D01*
X16009952Y14247667D01*
X15962333Y14152429D01*
X15962333Y13961952D01*
X16009952Y13866714D01*
X16057571Y13819095D01*
X16152810Y13771476D01*
X49395143Y46156619D02*
X49061809Y46632810D01*
X48823714Y46156619D02*
X48823714Y47156619D01*
X49204667Y47156619D01*
X49299905Y47109000D01*
X49347524Y47061381D01*
X49395143Y46966143D01*
X49395143Y46823286D01*
X49347524Y46728048D01*
X49299905Y46680429D01*
X49204667Y46632810D01*
X48823714Y46632810D01*
X50347524Y46156619D02*
X49776095Y46156619D01*
X50061809Y46156619D02*
X50061809Y47156619D01*
X49966571Y47013762D01*
X49871333Y46918524D01*
X49776095Y46870905D01*
X50680857Y47156619D02*
X51347524Y47156619D01*
X50918952Y46156619D01*
X61650643Y44251619D02*
X61317309Y44727810D01*
X61079214Y44251619D02*
X61079214Y45251619D01*
X61460167Y45251619D01*
X61555405Y45204000D01*
X61603024Y45156381D01*
X61650643Y45061143D01*
X61650643Y44918286D01*
X61603024Y44823048D01*
X61555405Y44775429D01*
X61460167Y44727810D01*
X61079214Y44727810D01*
X62603024Y44251619D02*
X62031595Y44251619D01*
X62317309Y44251619D02*
X62317309Y45251619D01*
X62222071Y45108762D01*
X62126833Y45013524D01*
X62031595Y44965905D01*
X63174452Y44823048D02*
X63079214Y44870667D01*
X63031595Y44918286D01*
X62983976Y45013524D01*
X62983976Y45061143D01*
X63031595Y45156381D01*
X63079214Y45204000D01*
X63174452Y45251619D01*
X63364929Y45251619D01*
X63460167Y45204000D01*
X63507786Y45156381D01*
X63555405Y45061143D01*
X63555405Y45013524D01*
X63507786Y44918286D01*
X63460167Y44870667D01*
X63364929Y44823048D01*
X63174452Y44823048D01*
X63079214Y44775429D01*
X63031595Y44727810D01*
X62983976Y44632571D01*
X62983976Y44442095D01*
X63031595Y44346857D01*
X63079214Y44299238D01*
X63174452Y44251619D01*
X63364929Y44251619D01*
X63460167Y44299238D01*
X63507786Y44346857D01*
X63555405Y44442095D01*
X63555405Y44632571D01*
X63507786Y44727810D01*
X63460167Y44775429D01*
X63364929Y44823048D01*
X20058143Y21074119D02*
X19724809Y21550310D01*
X19486714Y21074119D02*
X19486714Y22074119D01*
X19867667Y22074119D01*
X19962905Y22026500D01*
X20010524Y21978881D01*
X20058143Y21883643D01*
X20058143Y21740786D01*
X20010524Y21645548D01*
X19962905Y21597929D01*
X19867667Y21550310D01*
X19486714Y21550310D01*
X21010524Y21074119D02*
X20439095Y21074119D01*
X20724809Y21074119D02*
X20724809Y22074119D01*
X20629571Y21931262D01*
X20534333Y21836024D01*
X20439095Y21788405D01*
X21486714Y21074119D02*
X21677190Y21074119D01*
X21772429Y21121738D01*
X21820048Y21169357D01*
X21915286Y21312214D01*
X21962905Y21502690D01*
X21962905Y21883643D01*
X21915286Y21978881D01*
X21867667Y22026500D01*
X21772429Y22074119D01*
X21581952Y22074119D01*
X21486714Y22026500D01*
X21439095Y21978881D01*
X21391476Y21883643D01*
X21391476Y21645548D01*
X21439095Y21550310D01*
X21486714Y21502690D01*
X21581952Y21455071D01*
X21772429Y21455071D01*
X21867667Y21502690D01*
X21915286Y21550310D01*
X21962905Y21645548D01*
X47744143Y49014119D02*
X47410809Y49490310D01*
X47172714Y49014119D02*
X47172714Y50014119D01*
X47553667Y50014119D01*
X47648905Y49966500D01*
X47696524Y49918881D01*
X47744143Y49823643D01*
X47744143Y49680786D01*
X47696524Y49585548D01*
X47648905Y49537929D01*
X47553667Y49490310D01*
X47172714Y49490310D01*
X48125095Y49918881D02*
X48172714Y49966500D01*
X48267952Y50014119D01*
X48506048Y50014119D01*
X48601286Y49966500D01*
X48648905Y49918881D01*
X48696524Y49823643D01*
X48696524Y49728405D01*
X48648905Y49585548D01*
X48077476Y49014119D01*
X48696524Y49014119D01*
X49315571Y50014119D02*
X49410810Y50014119D01*
X49506048Y49966500D01*
X49553667Y49918881D01*
X49601286Y49823643D01*
X49648905Y49633167D01*
X49648905Y49395071D01*
X49601286Y49204595D01*
X49553667Y49109357D01*
X49506048Y49061738D01*
X49410810Y49014119D01*
X49315571Y49014119D01*
X49220333Y49061738D01*
X49172714Y49109357D01*
X49125095Y49204595D01*
X49077476Y49395071D01*
X49077476Y49633167D01*
X49125095Y49823643D01*
X49172714Y49918881D01*
X49220333Y49966500D01*
X49315571Y50014119D01*
X64206381Y46283643D02*
X63730190Y45950309D01*
X64206381Y45712214D02*
X63206381Y45712214D01*
X63206381Y46093167D01*
X63254000Y46188405D01*
X63301619Y46236024D01*
X63396857Y46283643D01*
X63539714Y46283643D01*
X63634952Y46236024D01*
X63682571Y46188405D01*
X63730190Y46093167D01*
X63730190Y45712214D01*
X63301619Y46664595D02*
X63254000Y46712214D01*
X63206381Y46807452D01*
X63206381Y47045548D01*
X63254000Y47140786D01*
X63301619Y47188405D01*
X63396857Y47236024D01*
X63492095Y47236024D01*
X63634952Y47188405D01*
X64206381Y46616976D01*
X64206381Y47236024D01*
X64206381Y48188405D02*
X64206381Y47616976D01*
X64206381Y47902690D02*
X63206381Y47902690D01*
X63349238Y47807452D01*
X63444476Y47712214D01*
X63492095Y47616976D01*
X65857381Y47680643D02*
X65381190Y47347309D01*
X65857381Y47109214D02*
X64857381Y47109214D01*
X64857381Y47490167D01*
X64905000Y47585405D01*
X64952619Y47633024D01*
X65047857Y47680643D01*
X65190714Y47680643D01*
X65285952Y47633024D01*
X65333571Y47585405D01*
X65381190Y47490167D01*
X65381190Y47109214D01*
X64952619Y48061595D02*
X64905000Y48109214D01*
X64857381Y48204452D01*
X64857381Y48442548D01*
X64905000Y48537786D01*
X64952619Y48585405D01*
X65047857Y48633024D01*
X65143095Y48633024D01*
X65285952Y48585405D01*
X65857381Y48013976D01*
X65857381Y48633024D01*
X64857381Y48966357D02*
X64857381Y49585405D01*
X65238333Y49252071D01*
X65238333Y49394929D01*
X65285952Y49490167D01*
X65333571Y49537786D01*
X65428810Y49585405D01*
X65666905Y49585405D01*
X65762143Y49537786D01*
X65809762Y49490167D01*
X65857381Y49394929D01*
X65857381Y49109214D01*
X65809762Y49013976D01*
X65762143Y48966357D01*
X65857381Y44696143D02*
X65381190Y44362809D01*
X65857381Y44124714D02*
X64857381Y44124714D01*
X64857381Y44505667D01*
X64905000Y44600905D01*
X64952619Y44648524D01*
X65047857Y44696143D01*
X65190714Y44696143D01*
X65285952Y44648524D01*
X65333571Y44600905D01*
X65381190Y44505667D01*
X65381190Y44124714D01*
X64952619Y45077095D02*
X64905000Y45124714D01*
X64857381Y45219952D01*
X64857381Y45458048D01*
X64905000Y45553286D01*
X64952619Y45600905D01*
X65047857Y45648524D01*
X65143095Y45648524D01*
X65285952Y45600905D01*
X65857381Y45029476D01*
X65857381Y45648524D01*
X65190714Y46505667D02*
X65857381Y46505667D01*
X64809762Y46267571D02*
X65524048Y46029476D01*
X65524048Y46648524D01*
X17137143Y21010619D02*
X16803809Y21486810D01*
X16565714Y21010619D02*
X16565714Y22010619D01*
X16946667Y22010619D01*
X17041905Y21963000D01*
X17089524Y21915381D01*
X17137143Y21820143D01*
X17137143Y21677286D01*
X17089524Y21582048D01*
X17041905Y21534429D01*
X16946667Y21486810D01*
X16565714Y21486810D01*
X17518095Y21915381D02*
X17565714Y21963000D01*
X17660952Y22010619D01*
X17899048Y22010619D01*
X17994286Y21963000D01*
X18041905Y21915381D01*
X18089524Y21820143D01*
X18089524Y21724905D01*
X18041905Y21582048D01*
X17470476Y21010619D01*
X18089524Y21010619D01*
X18994286Y22010619D02*
X18518095Y22010619D01*
X18470476Y21534429D01*
X18518095Y21582048D01*
X18613333Y21629667D01*
X18851429Y21629667D01*
X18946667Y21582048D01*
X18994286Y21534429D01*
X19041905Y21439190D01*
X19041905Y21201095D01*
X18994286Y21105857D01*
X18946667Y21058238D01*
X18851429Y21010619D01*
X18613333Y21010619D01*
X18518095Y21058238D01*
X18470476Y21105857D01*
X14152643Y21010619D02*
X13819309Y21486810D01*
X13581214Y21010619D02*
X13581214Y22010619D01*
X13962167Y22010619D01*
X14057405Y21963000D01*
X14105024Y21915381D01*
X14152643Y21820143D01*
X14152643Y21677286D01*
X14105024Y21582048D01*
X14057405Y21534429D01*
X13962167Y21486810D01*
X13581214Y21486810D01*
X14533595Y21915381D02*
X14581214Y21963000D01*
X14676452Y22010619D01*
X14914548Y22010619D01*
X15009786Y21963000D01*
X15057405Y21915381D01*
X15105024Y21820143D01*
X15105024Y21724905D01*
X15057405Y21582048D01*
X14485976Y21010619D01*
X15105024Y21010619D01*
X15438357Y22010619D02*
X16105024Y22010619D01*
X15676452Y21010619D01*
X52276429Y16375119D02*
X51943095Y16851310D01*
X51705000Y16375119D02*
X51705000Y17375119D01*
X52085953Y17375119D01*
X52181191Y17327500D01*
X52228810Y17279881D01*
X52276429Y17184643D01*
X52276429Y17041786D01*
X52228810Y16946548D01*
X52181191Y16898929D01*
X52085953Y16851310D01*
X51705000Y16851310D01*
X52847857Y16375119D02*
X52752619Y16422738D01*
X52705000Y16517976D01*
X52705000Y17375119D01*
X53752620Y16375119D02*
X53181191Y16375119D01*
X53466905Y16375119D02*
X53466905Y17375119D01*
X53371667Y17232262D01*
X53276429Y17137024D01*
X53181191Y17089405D01*
X62992072Y11104619D02*
X62658738Y11580810D01*
X62420643Y11104619D02*
X62420643Y12104619D01*
X62801596Y12104619D01*
X62896834Y12057000D01*
X62944453Y12009381D01*
X62992072Y11914143D01*
X62992072Y11771286D01*
X62944453Y11676048D01*
X62896834Y11628429D01*
X62801596Y11580810D01*
X62420643Y11580810D01*
X63373024Y11152238D02*
X63468262Y11104619D01*
X63658738Y11104619D01*
X63753977Y11152238D01*
X63801596Y11247476D01*
X63801596Y11295095D01*
X63753977Y11390333D01*
X63658738Y11437952D01*
X63515881Y11437952D01*
X63420643Y11485571D01*
X63373024Y11580810D01*
X63373024Y11628429D01*
X63420643Y11723667D01*
X63515881Y11771286D01*
X63658738Y11771286D01*
X63753977Y11723667D01*
X64753977Y11104619D02*
X64182548Y11104619D01*
X64468262Y11104619D02*
X64468262Y12104619D01*
X64373024Y11961762D01*
X64277786Y11866524D01*
X64182548Y11818905D01*
X29591714Y25766643D02*
X29591714Y24795214D01*
X29648857Y24680929D01*
X29706000Y24623786D01*
X29820286Y24566643D01*
X30048857Y24566643D01*
X30163143Y24623786D01*
X30220286Y24680929D01*
X30277429Y24795214D01*
X30277429Y25766643D01*
X31477429Y24566643D02*
X30791714Y24566643D01*
X31134572Y24566643D02*
X31134572Y25766643D01*
X31020286Y25595214D01*
X30906000Y25480929D01*
X30791714Y25423786D01*
X57975595Y19407119D02*
X57975595Y18597595D01*
X58023214Y18502357D01*
X58070833Y18454738D01*
X58166071Y18407119D01*
X58356548Y18407119D01*
X58451786Y18454738D01*
X58499405Y18502357D01*
X58547024Y18597595D01*
X58547024Y19407119D01*
X58975595Y19311881D02*
X59023214Y19359500D01*
X59118452Y19407119D01*
X59356548Y19407119D01*
X59451786Y19359500D01*
X59499405Y19311881D01*
X59547024Y19216643D01*
X59547024Y19121405D01*
X59499405Y18978548D01*
X58927976Y18407119D01*
X59547024Y18407119D01*
X57594595Y50839619D02*
X57594595Y50030095D01*
X57642214Y49934857D01*
X57689833Y49887238D01*
X57785071Y49839619D01*
X57975548Y49839619D01*
X58070786Y49887238D01*
X58118405Y49934857D01*
X58166024Y50030095D01*
X58166024Y50839619D01*
X58546976Y50839619D02*
X59166024Y50839619D01*
X58832690Y50458667D01*
X58975548Y50458667D01*
X59070786Y50411048D01*
X59118405Y50363429D01*
X59166024Y50268190D01*
X59166024Y50030095D01*
X59118405Y49934857D01*
X59070786Y49887238D01*
X58975548Y49839619D01*
X58689833Y49839619D01*
X58594595Y49887238D01*
X58546976Y49934857D01*
X45593095Y31916619D02*
X45593095Y31107095D01*
X45640714Y31011857D01*
X45688333Y30964238D01*
X45783571Y30916619D01*
X45974048Y30916619D01*
X46069286Y30964238D01*
X46116905Y31011857D01*
X46164524Y31107095D01*
X46164524Y31916619D01*
X47069286Y31583286D02*
X47069286Y30916619D01*
X46831190Y31964238D02*
X46593095Y31249952D01*
X47212143Y31249952D01*
X45720095Y42965619D02*
X45720095Y42156095D01*
X45767714Y42060857D01*
X45815333Y42013238D01*
X45910571Y41965619D01*
X46101048Y41965619D01*
X46196286Y42013238D01*
X46243905Y42060857D01*
X46291524Y42156095D01*
X46291524Y42965619D01*
X47243905Y42965619D02*
X46767714Y42965619D01*
X46720095Y42489429D01*
X46767714Y42537048D01*
X46862952Y42584667D01*
X47101048Y42584667D01*
X47196286Y42537048D01*
X47243905Y42489429D01*
X47291524Y42394190D01*
X47291524Y42156095D01*
X47243905Y42060857D01*
X47196286Y42013238D01*
X47101048Y41965619D01*
X46862952Y41965619D01*
X46767714Y42013238D01*
X46720095Y42060857D01*
X40608309Y33361310D02*
X40608309Y32885119D01*
X40274976Y33885119D02*
X40608309Y33361310D01*
X40941643Y33885119D01*
X41798786Y32885119D02*
X41227357Y32885119D01*
X41513071Y32885119D02*
X41513071Y33885119D01*
X41417833Y33742262D01*
X41322595Y33647024D01*
X41227357Y33599405D01*
X17018167Y7215238D02*
X17161024Y7167619D01*
X17399120Y7167619D01*
X17494358Y7215238D01*
X17541977Y7262857D01*
X17589596Y7358095D01*
X17589596Y7453333D01*
X17541977Y7548571D01*
X17494358Y7596190D01*
X17399120Y7643810D01*
X17208643Y7691429D01*
X17113405Y7739048D01*
X17065786Y7786667D01*
X17018167Y7881905D01*
X17018167Y7977143D01*
X17065786Y8072381D01*
X17113405Y8120000D01*
X17208643Y8167619D01*
X17446739Y8167619D01*
X17589596Y8120000D01*
X17922929Y8167619D02*
X18161024Y7167619D01*
X18351501Y7881905D01*
X18541977Y7167619D01*
X18780072Y8167619D01*
X19113405Y8072381D02*
X19161024Y8120000D01*
X19256262Y8167619D01*
X19494358Y8167619D01*
X19589596Y8120000D01*
X19637215Y8072381D01*
X19684834Y7977143D01*
X19684834Y7881905D01*
X19637215Y7739048D01*
X19065786Y7167619D01*
X19684834Y7167619D01*
X7747167Y17121238D02*
X7890024Y17073619D01*
X8128120Y17073619D01*
X8223358Y17121238D01*
X8270977Y17168857D01*
X8318596Y17264095D01*
X8318596Y17359333D01*
X8270977Y17454571D01*
X8223358Y17502190D01*
X8128120Y17549810D01*
X7937643Y17597429D01*
X7842405Y17645048D01*
X7794786Y17692667D01*
X7747167Y17787905D01*
X7747167Y17883143D01*
X7794786Y17978381D01*
X7842405Y18026000D01*
X7937643Y18073619D01*
X8175739Y18073619D01*
X8318596Y18026000D01*
X8651929Y18073619D02*
X8890024Y17073619D01*
X9080501Y17787905D01*
X9270977Y17073619D01*
X9509072Y18073619D01*
X9794786Y18073619D02*
X10413834Y18073619D01*
X10080500Y17692667D01*
X10223358Y17692667D01*
X10318596Y17645048D01*
X10366215Y17597429D01*
X10413834Y17502190D01*
X10413834Y17264095D01*
X10366215Y17168857D01*
X10318596Y17121238D01*
X10223358Y17073619D01*
X9937643Y17073619D01*
X9842405Y17121238D01*
X9794786Y17168857D01*
D11*
X21989000Y9349357D02*
X22203286Y9277929D01*
X22560429Y9277929D01*
X22703286Y9349357D01*
X22774715Y9420786D01*
X22846143Y9563643D01*
X22846143Y9706500D01*
X22774715Y9849357D01*
X22703286Y9920786D01*
X22560429Y9992214D01*
X22274715Y10063643D01*
X22131857Y10135071D01*
X22060429Y10206500D01*
X21989000Y10349357D01*
X21989000Y10492214D01*
X22060429Y10635071D01*
X22131857Y10706500D01*
X22274715Y10777929D01*
X22631857Y10777929D01*
X22846143Y10706500D01*
X23346143Y10777929D02*
X23703286Y9277929D01*
X23989000Y10349357D01*
X24274714Y9277929D01*
X24631857Y10777929D01*
X25989000Y9277929D02*
X25131857Y9277929D01*
X25560429Y9277929D02*
X25560429Y10777929D01*
X25417572Y10563643D01*
X25274714Y10420786D01*
X25131857Y10349357D01*
D13*
X59047143Y51458857D02*
X58999524Y51411238D01*
X58856667Y51363619D01*
X58761429Y51363619D01*
X58618571Y51411238D01*
X58523333Y51506476D01*
X58475714Y51601714D01*
X58428095Y51792190D01*
X58428095Y51935048D01*
X58475714Y52125524D01*
X58523333Y52220762D01*
X58618571Y52316000D01*
X58761429Y52363619D01*
X58856667Y52363619D01*
X58999524Y52316000D01*
X59047143Y52268381D01*
X59999524Y51363619D02*
X59428095Y51363619D01*
X59713809Y51363619D02*
X59713809Y52363619D01*
X59618571Y52220762D01*
X59523333Y52125524D01*
X59428095Y52077905D01*
X60618571Y52363619D02*
X60713810Y52363619D01*
X60809048Y52316000D01*
X60856667Y52268381D01*
X60904286Y52173143D01*
X60951905Y51982667D01*
X60951905Y51744571D01*
X60904286Y51554095D01*
X60856667Y51458857D01*
X60809048Y51411238D01*
X60713810Y51363619D01*
X60618571Y51363619D01*
X60523333Y51411238D01*
X60475714Y51458857D01*
X60428095Y51554095D01*
X60380476Y51744571D01*
X60380476Y51982667D01*
X60428095Y52173143D01*
X60475714Y52268381D01*
X60523333Y52316000D01*
X60618571Y52363619D01*
X32129505Y43629319D02*
X32129505Y44629319D01*
X32367600Y44629319D01*
X32510458Y44581700D01*
X32605696Y44486462D01*
X32653315Y44391224D01*
X32700934Y44200748D01*
X32700934Y44057890D01*
X32653315Y43867414D01*
X32605696Y43772176D01*
X32510458Y43676938D01*
X32367600Y43629319D01*
X32129505Y43629319D01*
X33034267Y44629319D02*
X33653315Y44629319D01*
X33319981Y44248367D01*
X33462839Y44248367D01*
X33558077Y44200748D01*
X33605696Y44153129D01*
X33653315Y44057890D01*
X33653315Y43819795D01*
X33605696Y43724557D01*
X33558077Y43676938D01*
X33462839Y43629319D01*
X33177124Y43629319D01*
X33081886Y43676938D01*
X33034267Y43724557D01*
X32853334Y41851319D02*
X32520000Y42327510D01*
X32281905Y41851319D02*
X32281905Y42851319D01*
X32662858Y42851319D01*
X32758096Y42803700D01*
X32805715Y42756081D01*
X32853334Y42660843D01*
X32853334Y42517986D01*
X32805715Y42422748D01*
X32758096Y42375129D01*
X32662858Y42327510D01*
X32281905Y42327510D01*
X33710477Y42851319D02*
X33520000Y42851319D01*
X33424762Y42803700D01*
X33377143Y42756081D01*
X33281905Y42613224D01*
X33234286Y42422748D01*
X33234286Y42041795D01*
X33281905Y41946557D01*
X33329524Y41898938D01*
X33424762Y41851319D01*
X33615239Y41851319D01*
X33710477Y41898938D01*
X33758096Y41946557D01*
X33805715Y42041795D01*
X33805715Y42279890D01*
X33758096Y42375129D01*
X33710477Y42422748D01*
X33615239Y42470367D01*
X33424762Y42470367D01*
X33329524Y42422748D01*
X33281905Y42375129D01*
X33234286Y42279890D01*
X20896343Y43978557D02*
X20848724Y43930938D01*
X20705867Y43883319D01*
X20610629Y43883319D01*
X20467771Y43930938D01*
X20372533Y44026176D01*
X20324914Y44121414D01*
X20277295Y44311890D01*
X20277295Y44454748D01*
X20324914Y44645224D01*
X20372533Y44740462D01*
X20467771Y44835700D01*
X20610629Y44883319D01*
X20705867Y44883319D01*
X20848724Y44835700D01*
X20896343Y44788081D01*
X21848724Y43883319D02*
X21277295Y43883319D01*
X21563009Y43883319D02*
X21563009Y44883319D01*
X21467771Y44740462D01*
X21372533Y44645224D01*
X21277295Y44597605D01*
X22801105Y43883319D02*
X22229676Y43883319D01*
X22515390Y43883319D02*
X22515390Y44883319D01*
X22420152Y44740462D01*
X22324914Y44645224D01*
X22229676Y44597605D01*
M02*
