G04 #@! TF.FileFunction,Soldermask,Bot*
%FSLAX46Y46*%
G04 Gerber Fmt 4.6, Leading zero omitted, Abs format (unit mm)*
G04 Created by KiCad (PCBNEW 4.0.2-stable) date 19.7.2016 11:18:11*
%MOMM*%
G01*
G04 APERTURE LIST*
%ADD10C,0.100000*%
%ADD11R,0.500000X0.800000*%
%ADD12O,1.100000X1.500000*%
%ADD13O,1.200000X1.700000*%
%ADD14O,3.500000X5.900000*%
%ADD15O,2.400000X5.200000*%
%ADD16O,5.200000X2.000000*%
%ADD17O,6.500000X2.000000*%
%ADD18O,2.050000X4.000000*%
%ADD19R,1.727200X2.032000*%
%ADD20O,1.727200X2.032000*%
%ADD21R,1.727200X1.727200*%
%ADD22O,1.727200X1.727200*%
%ADD23R,2.032000X1.727200*%
%ADD24O,2.032000X1.727200*%
%ADD25R,2.032000X2.032000*%
%ADD26O,2.032000X2.032000*%
%ADD27C,1.800000*%
%ADD28R,0.800000X0.500000*%
%ADD29C,2.100000*%
%ADD30C,1.750000*%
G04 APERTURE END LIST*
D10*
D11*
X13208000Y42913300D03*
X14097000Y42913300D03*
X5651500Y42100500D03*
X4762500Y42100500D03*
X13208000Y45351700D03*
X14097000Y45351700D03*
X4534500Y45302500D03*
X5423500Y45302500D03*
X10884500Y47779000D03*
X11773500Y47779000D03*
X5892800Y47739300D03*
X5003800Y47739300D03*
D12*
X32018000Y6668500D03*
X36868000Y6668500D03*
D13*
X31718000Y3668500D03*
X37168000Y3668500D03*
D14*
X47382000Y5146500D03*
D15*
X41682000Y7786500D03*
D16*
X43082000Y9386500D03*
D17*
X44882000Y3186500D03*
D18*
X48332000Y6136500D03*
D14*
X57796000Y5146500D03*
D15*
X52096000Y7786500D03*
D16*
X53496000Y9386500D03*
D17*
X55296000Y3186500D03*
D18*
X58746000Y6136500D03*
D19*
X44961140Y13128320D03*
D20*
X47501140Y13128320D03*
X50041140Y13128320D03*
D19*
X18822000Y13235000D03*
D20*
X21362000Y13235000D03*
X23902000Y13235000D03*
X26442000Y13235000D03*
X28982000Y13235000D03*
X31522000Y13235000D03*
D21*
X10440000Y52922500D03*
D22*
X10440000Y55462500D03*
X12980000Y52922500D03*
X12980000Y55462500D03*
X15520000Y52922500D03*
X15520000Y55462500D03*
X18060000Y52922500D03*
X18060000Y55462500D03*
X20600000Y52922500D03*
X20600000Y55462500D03*
X23140000Y52922500D03*
X23140000Y55462500D03*
X25680000Y52922500D03*
X25680000Y55462500D03*
X28220000Y52922500D03*
X28220000Y55462500D03*
X30760000Y52922500D03*
X30760000Y55462500D03*
X33300000Y52922500D03*
X33300000Y55462500D03*
X35840000Y52922500D03*
X35840000Y55462500D03*
X38380000Y52922500D03*
X38380000Y55462500D03*
X40920000Y52922500D03*
X40920000Y55462500D03*
D19*
X45783500Y17907000D03*
D20*
X43243500Y17907000D03*
X40703500Y17907000D03*
D23*
X11138500Y31840500D03*
D24*
X11138500Y29300500D03*
X11138500Y26760500D03*
X11138500Y24220500D03*
D23*
X7519000Y31840500D03*
D24*
X7519000Y29300500D03*
X7519000Y26760500D03*
X7519000Y24220500D03*
D25*
X54483600Y22340900D03*
D26*
X57023600Y22340900D03*
D27*
X54102600Y27649500D03*
X56602600Y27649500D03*
X59102600Y27649500D03*
X61602600Y27649500D03*
X64102600Y27649500D03*
X54001000Y34380500D03*
X56501000Y34380500D03*
X59001000Y34380500D03*
X61501000Y34380500D03*
X64001000Y34380500D03*
X54001000Y40857500D03*
X56501000Y40857500D03*
X59001000Y40857500D03*
X61501000Y40857500D03*
X64001000Y40857500D03*
D23*
X3899500Y31840500D03*
D24*
X3899500Y29300500D03*
X3899500Y26760500D03*
X3899500Y24220500D03*
D28*
X58102500Y54038500D03*
X58102500Y54927500D03*
X45365000Y54065500D03*
X45365000Y54954500D03*
D29*
X10331500Y5565000D03*
D30*
X11591500Y3075000D03*
X16091500Y3075000D03*
D29*
X17341500Y5565000D03*
X6199000Y16772500D03*
D30*
X3709000Y15512500D03*
X3709000Y11012500D03*
D29*
X6199000Y9762500D03*
M02*
