G04 #@! TF.FileFunction,Legend,Bot*
%FSLAX46Y46*%
G04 Gerber Fmt 4.6, Leading zero omitted, Abs format (unit mm)*
G04 Created by KiCad (PCBNEW 4.0.2-stable) date 19.7.2016 11:18:10*
%MOMM*%
G01*
G04 APERTURE LIST*
%ADD10C,0.100000*%
%ADD11C,0.300000*%
%ADD12C,0.010000*%
%ADD13C,0.150000*%
G04 APERTURE END LIST*
D10*
D11*
X66459715Y14981929D02*
X66102572Y13481929D01*
X65816858Y14553357D01*
X65531144Y13481929D01*
X65174001Y14981929D01*
X64745429Y14981929D02*
X64388286Y13481929D01*
X64102572Y14553357D01*
X63816858Y13481929D01*
X63459715Y14981929D01*
X63031143Y14981929D02*
X62674000Y13481929D01*
X62388286Y14553357D01*
X62102572Y13481929D01*
X61745429Y14981929D01*
X61174000Y13624786D02*
X61102572Y13553357D01*
X61174000Y13481929D01*
X61245429Y13553357D01*
X61174000Y13624786D01*
X61174000Y13481929D01*
X60459714Y13481929D02*
X60459714Y14981929D01*
X58888285Y13481929D02*
X59388285Y14196214D01*
X59745428Y13481929D02*
X59745428Y14981929D01*
X59174000Y14981929D01*
X59031142Y14910500D01*
X58959714Y14839071D01*
X58888285Y14696214D01*
X58888285Y14481929D01*
X58959714Y14339071D01*
X59031142Y14267643D01*
X59174000Y14196214D01*
X59745428Y14196214D01*
X58245428Y13481929D02*
X58245428Y14981929D01*
X57388285Y13481929D01*
X57388285Y14981929D01*
X56745428Y13910500D02*
X56031142Y13910500D01*
X56888285Y13481929D02*
X56388285Y14981929D01*
X55888285Y13481929D01*
X55459714Y13553357D02*
X55245428Y13481929D01*
X54888285Y13481929D01*
X54745428Y13553357D01*
X54673999Y13624786D01*
X54602571Y13767643D01*
X54602571Y13910500D01*
X54673999Y14053357D01*
X54745428Y14124786D01*
X54888285Y14196214D01*
X55173999Y14267643D01*
X55316857Y14339071D01*
X55388285Y14410500D01*
X55459714Y14553357D01*
X55459714Y14696214D01*
X55388285Y14839071D01*
X55316857Y14910500D01*
X55173999Y14981929D01*
X54816857Y14981929D01*
X54602571Y14910500D01*
X53959714Y13624786D02*
X53888286Y13553357D01*
X53959714Y13481929D01*
X54031143Y13553357D01*
X53959714Y13624786D01*
X53959714Y13481929D01*
X53245428Y14267643D02*
X52745428Y14267643D01*
X52531142Y13481929D02*
X53245428Y13481929D01*
X53245428Y14981929D01*
X52531142Y14981929D01*
X51888285Y14981929D02*
X51888285Y13767643D01*
X51816857Y13624786D01*
X51745428Y13553357D01*
X51602571Y13481929D01*
X51316857Y13481929D01*
X51173999Y13553357D01*
X51102571Y13624786D01*
X51031142Y13767643D01*
X51031142Y14981929D01*
X65523500Y15974286D02*
X65594929Y15902857D01*
X65809215Y15831429D01*
X65952072Y15831429D01*
X66166357Y15902857D01*
X66309215Y16045714D01*
X66380643Y16188571D01*
X66452072Y16474286D01*
X66452072Y16688571D01*
X66380643Y16974286D01*
X66309215Y17117143D01*
X66166357Y17260000D01*
X65952072Y17331429D01*
X65809215Y17331429D01*
X65594929Y17260000D01*
X65523500Y17188571D01*
X64880643Y16617143D02*
X64380643Y16617143D01*
X64166357Y15831429D02*
X64880643Y15831429D01*
X64880643Y17331429D01*
X64166357Y17331429D01*
X62666357Y15831429D02*
X63166357Y16545714D01*
X63523500Y15831429D02*
X63523500Y17331429D01*
X62952072Y17331429D01*
X62809214Y17260000D01*
X62737786Y17188571D01*
X62666357Y17045714D01*
X62666357Y16831429D01*
X62737786Y16688571D01*
X62809214Y16617143D01*
X62952072Y16545714D01*
X63523500Y16545714D01*
X62023500Y15831429D02*
X62023500Y17331429D01*
X61166357Y15831429D01*
X61166357Y17331429D01*
X59023500Y17331429D02*
X58737786Y17331429D01*
X58594928Y17260000D01*
X58452071Y17117143D01*
X58380643Y16831429D01*
X58380643Y16331429D01*
X58452071Y16045714D01*
X58594928Y15902857D01*
X58737786Y15831429D01*
X59023500Y15831429D01*
X59166357Y15902857D01*
X59309214Y16045714D01*
X59380643Y16331429D01*
X59380643Y16831429D01*
X59309214Y17117143D01*
X59166357Y17260000D01*
X59023500Y17331429D01*
X57737785Y15831429D02*
X57737785Y17331429D01*
X57737785Y16617143D02*
X56880642Y16617143D01*
X56880642Y15831429D02*
X56880642Y17331429D01*
X55452070Y15831429D02*
X56166356Y15831429D01*
X56166356Y17331429D01*
D12*
G36*
X47423007Y40537929D02*
X44880729Y39755017D01*
X42558387Y38307142D01*
X41776218Y37628457D01*
X40119098Y35826871D01*
X39006474Y33956006D01*
X38350771Y31820683D01*
X38071431Y29371746D01*
X38023695Y27620441D01*
X38107004Y26326185D01*
X38346788Y25248421D01*
X38574900Y24609246D01*
X39235944Y22944667D01*
X39412333Y25763483D01*
X39528905Y27212371D01*
X39680887Y28093691D01*
X39905578Y28545428D01*
X40206083Y28699767D01*
X40471741Y28689881D01*
X40648477Y28464168D01*
X40754052Y27908944D01*
X40806230Y26910528D01*
X40822774Y25355238D01*
X40823444Y24748699D01*
X40830243Y22995472D01*
X40869845Y21799227D01*
X40971063Y21011400D01*
X41162709Y20483429D01*
X41473595Y20066750D01*
X41793583Y19746335D01*
X42665129Y19068927D01*
X43868448Y18325790D01*
X44704000Y17891240D01*
X46719180Y17211854D01*
X49012386Y16876693D01*
X51288188Y16908042D01*
X53056305Y17261165D01*
X55503157Y18360113D01*
X57563637Y19970155D01*
X59310928Y22156550D01*
X60136989Y23575051D01*
X60186555Y23677746D01*
X55839114Y23677746D01*
X55752981Y23001596D01*
X55454273Y22632836D01*
X54805644Y22131078D01*
X54283467Y22200746D01*
X53946778Y22486056D01*
X53543213Y23234451D01*
X53651221Y23942164D01*
X54135020Y24416823D01*
X54858826Y24466058D01*
X55226092Y24298524D01*
X55839114Y23677746D01*
X60186555Y23677746D01*
X60604800Y24544295D01*
X60893241Y25430044D01*
X61044243Y26457185D01*
X61077548Y27293442D01*
X57974961Y27293442D01*
X57770938Y26667341D01*
X57080831Y26359036D01*
X56741572Y26365166D01*
X55994743Y26651275D01*
X55816500Y27139552D01*
X55871270Y27304589D01*
X53445465Y27304589D01*
X53370186Y26357462D01*
X52969079Y25792087D01*
X52068956Y25284879D01*
X51925652Y25310748D01*
X45964893Y25310748D01*
X45814904Y24632311D01*
X45778039Y24561513D01*
X45120157Y23973374D01*
X44225859Y23858272D01*
X43403037Y24240320D01*
X43284218Y24366225D01*
X43016327Y24984179D01*
X43233460Y25777336D01*
X43847171Y26491095D01*
X44656948Y26576143D01*
X45515439Y26020110D01*
X45559386Y25972624D01*
X45964893Y25310748D01*
X51925652Y25310748D01*
X51165084Y25448044D01*
X50507893Y26096010D01*
X50205966Y27034463D01*
X50432068Y27868320D01*
X51029580Y28455573D01*
X51841883Y28654210D01*
X52712357Y28322222D01*
X52843170Y28213454D01*
X53445465Y27304589D01*
X55871270Y27304589D01*
X56072845Y27911989D01*
X56677022Y28303608D01*
X57381741Y28190245D01*
X57586732Y28028403D01*
X57974961Y27293442D01*
X61077548Y27293442D01*
X61099739Y27850606D01*
X61104776Y28765500D01*
X61103700Y28843689D01*
X60491065Y28843689D01*
X60313982Y28345621D01*
X60240916Y28254039D01*
X59748977Y27802091D01*
X59520667Y27707167D01*
X59101422Y27947064D01*
X58800417Y28254039D01*
X58542029Y28773543D01*
X58838266Y29289883D01*
X58933610Y29387967D01*
X59074701Y29500485D01*
X48937333Y29500485D01*
X48703847Y28732680D01*
X48151350Y28219959D01*
X47501791Y28083682D01*
X46984664Y28432773D01*
X46881995Y29041719D01*
X46958541Y29619588D01*
X47265372Y30211303D01*
X47900699Y30289473D01*
X48050086Y30263968D01*
X48754249Y29918407D01*
X48937333Y29500485D01*
X59074701Y29500485D01*
X59429560Y29783479D01*
X59837383Y29642917D01*
X60107723Y29387967D01*
X60491065Y28843689D01*
X61103700Y28843689D01*
X61081905Y30426808D01*
X61015657Y31234944D01*
X52817889Y31234944D01*
X52533411Y30629219D01*
X51892753Y30140635D01*
X51215076Y29993178D01*
X51096708Y30027036D01*
X50248426Y30232458D01*
X49819278Y30259668D01*
X49435080Y30314426D01*
X49554694Y30418353D01*
X49937545Y30871818D01*
X49995667Y31193787D01*
X50262977Y32003988D01*
X50891751Y32557498D01*
X51275746Y32646056D01*
X51864245Y32402375D01*
X52479036Y31859628D01*
X52811450Y31300255D01*
X52817889Y31234944D01*
X61015657Y31234944D01*
X60984985Y31609089D01*
X60771553Y32538166D01*
X60399147Y33439860D01*
X60278905Y33676599D01*
X47139585Y33676599D01*
X46851675Y32683917D01*
X46839880Y32665064D01*
X46733576Y31886129D01*
X46903039Y31430342D01*
X47137726Y30934347D01*
X46951580Y30991360D01*
X46652989Y31230650D01*
X45797518Y31612028D01*
X45203386Y31648900D01*
X44219874Y31728753D01*
X43669035Y31927994D01*
X43180059Y32082518D01*
X42683612Y31902772D01*
X42000010Y31299019D01*
X41621298Y30905308D01*
X40646926Y29982992D01*
X40006186Y29657750D01*
X39666227Y29923745D01*
X39588722Y30544325D01*
X39747893Y31177392D01*
X40351282Y31523829D01*
X40733076Y31616454D01*
X42062205Y32080128D01*
X42776822Y32825646D01*
X42940111Y33631612D01*
X43168049Y34595022D01*
X43523954Y35175917D01*
X44401093Y35731690D01*
X45357229Y35741517D01*
X46236359Y35323526D01*
X46882478Y34595844D01*
X47139585Y33676599D01*
X60278905Y33676599D01*
X60123971Y33981638D01*
X58454972Y36548589D01*
X56469331Y38488878D01*
X54147173Y39815951D01*
X51468621Y40543254D01*
X50232999Y40673079D01*
X47423007Y40537929D01*
X47423007Y40537929D01*
G37*
X47423007Y40537929D02*
X44880729Y39755017D01*
X42558387Y38307142D01*
X41776218Y37628457D01*
X40119098Y35826871D01*
X39006474Y33956006D01*
X38350771Y31820683D01*
X38071431Y29371746D01*
X38023695Y27620441D01*
X38107004Y26326185D01*
X38346788Y25248421D01*
X38574900Y24609246D01*
X39235944Y22944667D01*
X39412333Y25763483D01*
X39528905Y27212371D01*
X39680887Y28093691D01*
X39905578Y28545428D01*
X40206083Y28699767D01*
X40471741Y28689881D01*
X40648477Y28464168D01*
X40754052Y27908944D01*
X40806230Y26910528D01*
X40822774Y25355238D01*
X40823444Y24748699D01*
X40830243Y22995472D01*
X40869845Y21799227D01*
X40971063Y21011400D01*
X41162709Y20483429D01*
X41473595Y20066750D01*
X41793583Y19746335D01*
X42665129Y19068927D01*
X43868448Y18325790D01*
X44704000Y17891240D01*
X46719180Y17211854D01*
X49012386Y16876693D01*
X51288188Y16908042D01*
X53056305Y17261165D01*
X55503157Y18360113D01*
X57563637Y19970155D01*
X59310928Y22156550D01*
X60136989Y23575051D01*
X60186555Y23677746D01*
X55839114Y23677746D01*
X55752981Y23001596D01*
X55454273Y22632836D01*
X54805644Y22131078D01*
X54283467Y22200746D01*
X53946778Y22486056D01*
X53543213Y23234451D01*
X53651221Y23942164D01*
X54135020Y24416823D01*
X54858826Y24466058D01*
X55226092Y24298524D01*
X55839114Y23677746D01*
X60186555Y23677746D01*
X60604800Y24544295D01*
X60893241Y25430044D01*
X61044243Y26457185D01*
X61077548Y27293442D01*
X57974961Y27293442D01*
X57770938Y26667341D01*
X57080831Y26359036D01*
X56741572Y26365166D01*
X55994743Y26651275D01*
X55816500Y27139552D01*
X55871270Y27304589D01*
X53445465Y27304589D01*
X53370186Y26357462D01*
X52969079Y25792087D01*
X52068956Y25284879D01*
X51925652Y25310748D01*
X45964893Y25310748D01*
X45814904Y24632311D01*
X45778039Y24561513D01*
X45120157Y23973374D01*
X44225859Y23858272D01*
X43403037Y24240320D01*
X43284218Y24366225D01*
X43016327Y24984179D01*
X43233460Y25777336D01*
X43847171Y26491095D01*
X44656948Y26576143D01*
X45515439Y26020110D01*
X45559386Y25972624D01*
X45964893Y25310748D01*
X51925652Y25310748D01*
X51165084Y25448044D01*
X50507893Y26096010D01*
X50205966Y27034463D01*
X50432068Y27868320D01*
X51029580Y28455573D01*
X51841883Y28654210D01*
X52712357Y28322222D01*
X52843170Y28213454D01*
X53445465Y27304589D01*
X55871270Y27304589D01*
X56072845Y27911989D01*
X56677022Y28303608D01*
X57381741Y28190245D01*
X57586732Y28028403D01*
X57974961Y27293442D01*
X61077548Y27293442D01*
X61099739Y27850606D01*
X61104776Y28765500D01*
X61103700Y28843689D01*
X60491065Y28843689D01*
X60313982Y28345621D01*
X60240916Y28254039D01*
X59748977Y27802091D01*
X59520667Y27707167D01*
X59101422Y27947064D01*
X58800417Y28254039D01*
X58542029Y28773543D01*
X58838266Y29289883D01*
X58933610Y29387967D01*
X59074701Y29500485D01*
X48937333Y29500485D01*
X48703847Y28732680D01*
X48151350Y28219959D01*
X47501791Y28083682D01*
X46984664Y28432773D01*
X46881995Y29041719D01*
X46958541Y29619588D01*
X47265372Y30211303D01*
X47900699Y30289473D01*
X48050086Y30263968D01*
X48754249Y29918407D01*
X48937333Y29500485D01*
X59074701Y29500485D01*
X59429560Y29783479D01*
X59837383Y29642917D01*
X60107723Y29387967D01*
X60491065Y28843689D01*
X61103700Y28843689D01*
X61081905Y30426808D01*
X61015657Y31234944D01*
X52817889Y31234944D01*
X52533411Y30629219D01*
X51892753Y30140635D01*
X51215076Y29993178D01*
X51096708Y30027036D01*
X50248426Y30232458D01*
X49819278Y30259668D01*
X49435080Y30314426D01*
X49554694Y30418353D01*
X49937545Y30871818D01*
X49995667Y31193787D01*
X50262977Y32003988D01*
X50891751Y32557498D01*
X51275746Y32646056D01*
X51864245Y32402375D01*
X52479036Y31859628D01*
X52811450Y31300255D01*
X52817889Y31234944D01*
X61015657Y31234944D01*
X60984985Y31609089D01*
X60771553Y32538166D01*
X60399147Y33439860D01*
X60278905Y33676599D01*
X47139585Y33676599D01*
X46851675Y32683917D01*
X46839880Y32665064D01*
X46733576Y31886129D01*
X46903039Y31430342D01*
X47137726Y30934347D01*
X46951580Y30991360D01*
X46652989Y31230650D01*
X45797518Y31612028D01*
X45203386Y31648900D01*
X44219874Y31728753D01*
X43669035Y31927994D01*
X43180059Y32082518D01*
X42683612Y31902772D01*
X42000010Y31299019D01*
X41621298Y30905308D01*
X40646926Y29982992D01*
X40006186Y29657750D01*
X39666227Y29923745D01*
X39588722Y30544325D01*
X39747893Y31177392D01*
X40351282Y31523829D01*
X40733076Y31616454D01*
X42062205Y32080128D01*
X42776822Y32825646D01*
X42940111Y33631612D01*
X43168049Y34595022D01*
X43523954Y35175917D01*
X44401093Y35731690D01*
X45357229Y35741517D01*
X46236359Y35323526D01*
X46882478Y34595844D01*
X47139585Y33676599D01*
X60278905Y33676599D01*
X60123971Y33981638D01*
X58454972Y36548589D01*
X56469331Y38488878D01*
X54147173Y39815951D01*
X51468621Y40543254D01*
X50232999Y40673079D01*
X47423007Y40537929D01*
G36*
X32024582Y28931422D02*
X31753384Y28512949D01*
X31995270Y27894899D01*
X32023435Y27860137D01*
X32712252Y27509978D01*
X33129068Y27551959D01*
X33856081Y27634169D01*
X34355053Y27290112D01*
X34659568Y26445219D01*
X34803209Y25024917D01*
X34826222Y23783415D01*
X34833490Y22292771D01*
X34880958Y21370977D01*
X35007122Y20881334D01*
X35250479Y20687138D01*
X35649526Y20651689D01*
X35708167Y20651611D01*
X36590111Y20651611D01*
X36590111Y24708556D01*
X36581827Y26453975D01*
X36543765Y27612786D01*
X36456113Y28303866D01*
X36299059Y28646090D01*
X36052789Y28758336D01*
X35913954Y28765500D01*
X35278228Y28565322D01*
X35083550Y28324528D01*
X34817144Y28119919D01*
X34270190Y28467915D01*
X34232624Y28500917D01*
X33432607Y28974252D01*
X32640458Y29101472D01*
X32024582Y28931422D01*
X32024582Y28931422D01*
G37*
X32024582Y28931422D02*
X31753384Y28512949D01*
X31995270Y27894899D01*
X32023435Y27860137D01*
X32712252Y27509978D01*
X33129068Y27551959D01*
X33856081Y27634169D01*
X34355053Y27290112D01*
X34659568Y26445219D01*
X34803209Y25024917D01*
X34826222Y23783415D01*
X34833490Y22292771D01*
X34880958Y21370977D01*
X35007122Y20881334D01*
X35250479Y20687138D01*
X35649526Y20651689D01*
X35708167Y20651611D01*
X36590111Y20651611D01*
X36590111Y24708556D01*
X36581827Y26453975D01*
X36543765Y27612786D01*
X36456113Y28303866D01*
X36299059Y28646090D01*
X36052789Y28758336D01*
X35913954Y28765500D01*
X35278228Y28565322D01*
X35083550Y28324528D01*
X34817144Y28119919D01*
X34270190Y28467915D01*
X34232624Y28500917D01*
X33432607Y28974252D01*
X32640458Y29101472D01*
X32024582Y28931422D01*
G36*
X25543339Y28886889D02*
X24748574Y28060194D01*
X24212736Y26666116D01*
X23963403Y24743261D01*
X23964276Y23315020D01*
X24037660Y22007948D01*
X24160092Y21247332D01*
X24386395Y20874098D01*
X24771392Y20729170D01*
X24860250Y20715270D01*
X25237426Y20694485D01*
X25471050Y20850357D01*
X25595460Y21314061D01*
X25644996Y22216772D01*
X25653997Y23689668D01*
X25654000Y23747399D01*
X25676997Y25320426D01*
X25765449Y26350991D01*
X25948542Y27001255D01*
X26255465Y27433376D01*
X26330209Y27504220D01*
X26997777Y27909680D01*
X27680461Y27754945D01*
X27728153Y27729919D01*
X28075193Y27465887D01*
X28300123Y27023317D01*
X28436581Y26253279D01*
X28518208Y25006842D01*
X28551249Y24085829D01*
X28609778Y22553416D01*
X28693978Y21588162D01*
X28840581Y21051757D01*
X29086318Y20805892D01*
X29446361Y20715270D01*
X29785808Y20691490D01*
X30011363Y20812523D01*
X30146297Y21194730D01*
X30213884Y21954476D01*
X30237396Y23208122D01*
X30240111Y24684020D01*
X30232710Y26433287D01*
X30196793Y27596062D01*
X30111783Y28291362D01*
X29957108Y28638203D01*
X29712192Y28755605D01*
X29534556Y28765500D01*
X28961197Y28624566D01*
X28829000Y28429130D01*
X28568203Y28355673D01*
X27927647Y28612683D01*
X27799340Y28683704D01*
X26569454Y29107594D01*
X25543339Y28886889D01*
X25543339Y28886889D01*
G37*
X25543339Y28886889D02*
X24748574Y28060194D01*
X24212736Y26666116D01*
X23963403Y24743261D01*
X23964276Y23315020D01*
X24037660Y22007948D01*
X24160092Y21247332D01*
X24386395Y20874098D01*
X24771392Y20729170D01*
X24860250Y20715270D01*
X25237426Y20694485D01*
X25471050Y20850357D01*
X25595460Y21314061D01*
X25644996Y22216772D01*
X25653997Y23689668D01*
X25654000Y23747399D01*
X25676997Y25320426D01*
X25765449Y26350991D01*
X25948542Y27001255D01*
X26255465Y27433376D01*
X26330209Y27504220D01*
X26997777Y27909680D01*
X27680461Y27754945D01*
X27728153Y27729919D01*
X28075193Y27465887D01*
X28300123Y27023317D01*
X28436581Y26253279D01*
X28518208Y25006842D01*
X28551249Y24085829D01*
X28609778Y22553416D01*
X28693978Y21588162D01*
X28840581Y21051757D01*
X29086318Y20805892D01*
X29446361Y20715270D01*
X29785808Y20691490D01*
X30011363Y20812523D01*
X30146297Y21194730D01*
X30213884Y21954476D01*
X30237396Y23208122D01*
X30240111Y24684020D01*
X30232710Y26433287D01*
X30196793Y27596062D01*
X30111783Y28291362D01*
X29957108Y28638203D01*
X29712192Y28755605D01*
X29534556Y28765500D01*
X28961197Y28624566D01*
X28829000Y28429130D01*
X28568203Y28355673D01*
X27927647Y28612683D01*
X27799340Y28683704D01*
X26569454Y29107594D01*
X25543339Y28886889D01*
G36*
X18061890Y28967459D02*
X17304886Y28485036D01*
X16820047Y27577374D01*
X16561124Y26156246D01*
X16481866Y24133419D01*
X16481778Y24047012D01*
X16533747Y22319652D01*
X16703018Y21240858D01*
X17009633Y20760377D01*
X17473635Y20827954D01*
X17700546Y20991149D01*
X18214238Y21193546D01*
X18411468Y21021519D01*
X18999460Y20654866D01*
X19869018Y20672573D01*
X20744956Y21025595D01*
X21275698Y21531999D01*
X21634275Y22582932D01*
X21609641Y23520218D01*
X20362333Y23520218D01*
X20285859Y22716878D01*
X20127148Y22297907D01*
X19477593Y22069950D01*
X18676922Y22238193D01*
X18316222Y22486056D01*
X17965997Y23186148D01*
X17921034Y24058375D01*
X18164907Y24785655D01*
X18447611Y25022325D01*
X19327249Y25041263D01*
X20034695Y24521135D01*
X20359078Y23627369D01*
X20362333Y23520218D01*
X21609641Y23520218D01*
X21602320Y23798767D01*
X21213225Y24860828D01*
X20887023Y25241437D01*
X20203496Y25493323D01*
X19228803Y25533936D01*
X19132470Y25524112D01*
X18300379Y25483162D01*
X17955058Y25697075D01*
X17892889Y26165306D01*
X18132109Y27041506D01*
X18710906Y27713600D01*
X19420988Y27968422D01*
X19621174Y27934011D01*
X20796272Y27573996D01*
X21450250Y27430580D01*
X21726956Y27484516D01*
X21773444Y27646018D01*
X21464552Y28198394D01*
X20700213Y28711563D01*
X19723934Y29050026D01*
X19137310Y29112876D01*
X18061890Y28967459D01*
X18061890Y28967459D01*
G37*
X18061890Y28967459D02*
X17304886Y28485036D01*
X16820047Y27577374D01*
X16561124Y26156246D01*
X16481866Y24133419D01*
X16481778Y24047012D01*
X16533747Y22319652D01*
X16703018Y21240858D01*
X17009633Y20760377D01*
X17473635Y20827954D01*
X17700546Y20991149D01*
X18214238Y21193546D01*
X18411468Y21021519D01*
X18999460Y20654866D01*
X19869018Y20672573D01*
X20744956Y21025595D01*
X21275698Y21531999D01*
X21634275Y22582932D01*
X21609641Y23520218D01*
X20362333Y23520218D01*
X20285859Y22716878D01*
X20127148Y22297907D01*
X19477593Y22069950D01*
X18676922Y22238193D01*
X18316222Y22486056D01*
X17965997Y23186148D01*
X17921034Y24058375D01*
X18164907Y24785655D01*
X18447611Y25022325D01*
X19327249Y25041263D01*
X20034695Y24521135D01*
X20359078Y23627369D01*
X20362333Y23520218D01*
X21609641Y23520218D01*
X21602320Y23798767D01*
X21213225Y24860828D01*
X20887023Y25241437D01*
X20203496Y25493323D01*
X19228803Y25533936D01*
X19132470Y25524112D01*
X18300379Y25483162D01*
X17955058Y25697075D01*
X17892889Y26165306D01*
X18132109Y27041506D01*
X18710906Y27713600D01*
X19420988Y27968422D01*
X19621174Y27934011D01*
X20796272Y27573996D01*
X21450250Y27430580D01*
X21726956Y27484516D01*
X21773444Y27646018D01*
X21464552Y28198394D01*
X20700213Y28711563D01*
X19723934Y29050026D01*
X19137310Y29112876D01*
X18061890Y28967459D01*
G36*
X9671031Y28988743D02*
X9119701Y28644847D01*
X8887894Y28106646D01*
X9188687Y27889386D01*
X9799828Y28071091D01*
X10725468Y28246614D01*
X11477250Y27822626D01*
X11714376Y27416341D01*
X11617429Y26742235D01*
X10947902Y26042016D01*
X9823140Y25122646D01*
X9154650Y24465309D01*
X8826979Y23918590D01*
X8724673Y23331076D01*
X8720667Y23121056D01*
X9024556Y21891757D01*
X9873347Y21044947D01*
X11172727Y20664435D01*
X11499693Y20651611D01*
X12485450Y20766396D01*
X13180903Y21049962D01*
X13260521Y21125042D01*
X13489422Y21644440D01*
X13102155Y21949184D01*
X12066348Y22061176D01*
X11874614Y22062722D01*
X10820995Y22231288D01*
X10332310Y22678117D01*
X10462121Y23314906D01*
X10853352Y23746418D01*
X12032734Y24788748D01*
X12764168Y25518085D01*
X13150328Y26062603D01*
X13293887Y26550475D01*
X13306778Y26809187D01*
X13060877Y27734968D01*
X12601222Y28412722D01*
X11748407Y28911681D01*
X10672803Y29110281D01*
X9671031Y28988743D01*
X9671031Y28988743D01*
G37*
X9671031Y28988743D02*
X9119701Y28644847D01*
X8887894Y28106646D01*
X9188687Y27889386D01*
X9799828Y28071091D01*
X10725468Y28246614D01*
X11477250Y27822626D01*
X11714376Y27416341D01*
X11617429Y26742235D01*
X10947902Y26042016D01*
X9823140Y25122646D01*
X9154650Y24465309D01*
X8826979Y23918590D01*
X8724673Y23331076D01*
X8720667Y23121056D01*
X9024556Y21891757D01*
X9873347Y21044947D01*
X11172727Y20664435D01*
X11499693Y20651611D01*
X12485450Y20766396D01*
X13180903Y21049962D01*
X13260521Y21125042D01*
X13489422Y21644440D01*
X13102155Y21949184D01*
X12066348Y22061176D01*
X11874614Y22062722D01*
X10820995Y22231288D01*
X10332310Y22678117D01*
X10462121Y23314906D01*
X10853352Y23746418D01*
X12032734Y24788748D01*
X12764168Y25518085D01*
X13150328Y26062603D01*
X13293887Y26550475D01*
X13306778Y26809187D01*
X13060877Y27734968D01*
X12601222Y28412722D01*
X11748407Y28911681D01*
X10672803Y29110281D01*
X9671031Y28988743D01*
D13*
X13482533Y42190919D02*
X13482533Y41476633D01*
X13530153Y41333776D01*
X13625391Y41238538D01*
X13768248Y41190919D01*
X13863486Y41190919D01*
X13006343Y41190919D02*
X13006343Y42190919D01*
X12625390Y42190919D01*
X12530152Y42143300D01*
X12482533Y42095681D01*
X12434914Y42000443D01*
X12434914Y41857586D01*
X12482533Y41762348D01*
X12530152Y41714729D01*
X12625390Y41667110D01*
X13006343Y41667110D01*
X11482533Y41190919D02*
X12053962Y41190919D01*
X11768248Y41190919D02*
X11768248Y42190919D01*
X11863486Y42048062D01*
X11958724Y41952824D01*
X12053962Y41905205D01*
X5214833Y41251119D02*
X5214833Y40536833D01*
X5262453Y40393976D01*
X5357691Y40298738D01*
X5500548Y40251119D01*
X5595786Y40251119D01*
X4738643Y40251119D02*
X4738643Y41251119D01*
X4357690Y41251119D01*
X4262452Y41203500D01*
X4214833Y41155881D01*
X4167214Y41060643D01*
X4167214Y40917786D01*
X4214833Y40822548D01*
X4262452Y40774929D01*
X4357690Y40727310D01*
X4738643Y40727310D01*
X3786262Y41155881D02*
X3738643Y41203500D01*
X3643405Y41251119D01*
X3405309Y41251119D01*
X3310071Y41203500D01*
X3262452Y41155881D01*
X3214833Y41060643D01*
X3214833Y40965405D01*
X3262452Y40822548D01*
X3833881Y40251119D01*
X3214833Y40251119D01*
X13482533Y44730919D02*
X13482533Y44016633D01*
X13530153Y43873776D01*
X13625391Y43778538D01*
X13768248Y43730919D01*
X13863486Y43730919D01*
X13006343Y43730919D02*
X13006343Y44730919D01*
X12625390Y44730919D01*
X12530152Y44683300D01*
X12482533Y44635681D01*
X12434914Y44540443D01*
X12434914Y44397586D01*
X12482533Y44302348D01*
X12530152Y44254729D01*
X12625390Y44207110D01*
X13006343Y44207110D01*
X12101581Y44730919D02*
X11482533Y44730919D01*
X11815867Y44349967D01*
X11673009Y44349967D01*
X11577771Y44302348D01*
X11530152Y44254729D01*
X11482533Y44159490D01*
X11482533Y43921395D01*
X11530152Y43826157D01*
X11577771Y43778538D01*
X11673009Y43730919D01*
X11958724Y43730919D01*
X12053962Y43778538D01*
X12101581Y43826157D01*
X4897333Y44235619D02*
X4897333Y43521333D01*
X4944953Y43378476D01*
X5040191Y43283238D01*
X5183048Y43235619D01*
X5278286Y43235619D01*
X4421143Y43235619D02*
X4421143Y44235619D01*
X4040190Y44235619D01*
X3944952Y44188000D01*
X3897333Y44140381D01*
X3849714Y44045143D01*
X3849714Y43902286D01*
X3897333Y43807048D01*
X3944952Y43759429D01*
X4040190Y43711810D01*
X4421143Y43711810D01*
X2992571Y43902286D02*
X2992571Y43235619D01*
X3230667Y44283238D02*
X3468762Y43568952D01*
X2849714Y43568952D01*
X12009333Y47118519D02*
X12009333Y46404233D01*
X12056953Y46261376D01*
X12152191Y46166138D01*
X12295048Y46118519D01*
X12390286Y46118519D01*
X11533143Y46118519D02*
X11533143Y47118519D01*
X11152190Y47118519D01*
X11056952Y47070900D01*
X11009333Y47023281D01*
X10961714Y46928043D01*
X10961714Y46785186D01*
X11009333Y46689948D01*
X11056952Y46642329D01*
X11152190Y46594710D01*
X11533143Y46594710D01*
X10056952Y47118519D02*
X10533143Y47118519D01*
X10580762Y46642329D01*
X10533143Y46689948D01*
X10437905Y46737567D01*
X10199809Y46737567D01*
X10104571Y46689948D01*
X10056952Y46642329D01*
X10009333Y46547090D01*
X10009333Y46308995D01*
X10056952Y46213757D01*
X10104571Y46166138D01*
X10199809Y46118519D01*
X10437905Y46118519D01*
X10533143Y46166138D01*
X10580762Y46213757D01*
X5760933Y46915319D02*
X5760933Y46201033D01*
X5808553Y46058176D01*
X5903791Y45962938D01*
X6046648Y45915319D01*
X6141886Y45915319D01*
X5284743Y45915319D02*
X5284743Y46915319D01*
X4903790Y46915319D01*
X4808552Y46867700D01*
X4760933Y46820081D01*
X4713314Y46724843D01*
X4713314Y46581986D01*
X4760933Y46486748D01*
X4808552Y46439129D01*
X4903790Y46391510D01*
X5284743Y46391510D01*
X3856171Y46915319D02*
X4046648Y46915319D01*
X4141886Y46867700D01*
X4189505Y46820081D01*
X4284743Y46677224D01*
X4332362Y46486748D01*
X4332362Y46105795D01*
X4284743Y46010557D01*
X4237124Y45962938D01*
X4141886Y45915319D01*
X3951409Y45915319D01*
X3856171Y45962938D01*
X3808552Y46010557D01*
X3760933Y46105795D01*
X3760933Y46343890D01*
X3808552Y46439129D01*
X3856171Y46486748D01*
X3951409Y46534367D01*
X4141886Y46534367D01*
X4237124Y46486748D01*
X4284743Y46439129D01*
X4332362Y46343890D01*
X59888933Y53216119D02*
X59888933Y52501833D01*
X59936553Y52358976D01*
X60031791Y52263738D01*
X60174648Y52216119D01*
X60269886Y52216119D01*
X59412743Y52216119D02*
X59412743Y53216119D01*
X59031790Y53216119D01*
X58936552Y53168500D01*
X58888933Y53120881D01*
X58841314Y53025643D01*
X58841314Y52882786D01*
X58888933Y52787548D01*
X58936552Y52739929D01*
X59031790Y52692310D01*
X59412743Y52692310D01*
X58507981Y53216119D02*
X57841314Y53216119D01*
X58269886Y52216119D01*
X45410333Y56745119D02*
X45410333Y56030833D01*
X45457953Y55887976D01*
X45553191Y55792738D01*
X45696048Y55745119D01*
X45791286Y55745119D01*
X44934143Y55745119D02*
X44934143Y56745119D01*
X44553190Y56745119D01*
X44457952Y56697500D01*
X44410333Y56649881D01*
X44362714Y56554643D01*
X44362714Y56411786D01*
X44410333Y56316548D01*
X44457952Y56268929D01*
X44553190Y56221310D01*
X44934143Y56221310D01*
X43791286Y56316548D02*
X43886524Y56364167D01*
X43934143Y56411786D01*
X43981762Y56507024D01*
X43981762Y56554643D01*
X43934143Y56649881D01*
X43886524Y56697500D01*
X43791286Y56745119D01*
X43600809Y56745119D01*
X43505571Y56697500D01*
X43457952Y56649881D01*
X43410333Y56554643D01*
X43410333Y56507024D01*
X43457952Y56411786D01*
X43505571Y56364167D01*
X43600809Y56316548D01*
X43791286Y56316548D01*
X43886524Y56268929D01*
X43934143Y56221310D01*
X43981762Y56126071D01*
X43981762Y55935595D01*
X43934143Y55840357D01*
X43886524Y55792738D01*
X43791286Y55745119D01*
X43600809Y55745119D01*
X43505571Y55792738D01*
X43457952Y55840357D01*
X43410333Y55935595D01*
X43410333Y56126071D01*
X43457952Y56221310D01*
X43505571Y56268929D01*
X43600809Y56316548D01*
M02*
