M48
;DRILL file {KiCad 4.0.2-stable} date 4/21/2016 11:29:52 AM
;FORMAT={2:4/ absolute / inch / suppress leading zeros}
FMAT,2
INCH,TZ
T1C0.025
T2C0.026
T3C0.028
T4C0.039
T5C0.039
T6C0.040
T7C0.040
T8C0.047
T9C0.051
T10C0.118
%
G90
G05
M72
T1
X1125Y15175
X1260Y18086
X1510Y13861
X3060Y16836
X3060Y16086
X3185Y19111
X3285Y4211
X4525Y19975
X4835Y18361
X4950Y17075
X5025Y19611
X5110Y18986
X5325Y13950
X5350Y13300
X5350Y11975
X5425Y4875
X5525Y11125
X5575Y12575
X5625Y6675
X5685Y4061
X5700Y14175
X5700Y6025
X5900Y12075
X6035Y19411
X6150Y14150
X6225Y11650
X6385Y19136
X6450Y4400
X6510Y12936
X6700Y11950
X6800Y16650
X6850Y13850
X6885Y13136
X6985Y15586
X7075Y4050
X7125Y8225
X7410Y15261
X7460Y17536
X7510Y19736
X7810Y17261
X7975Y10425
X8075Y12125
X8235Y20036
X8235Y12511
X8250Y9875
X8310Y18236
X8310Y13386
X8335Y14636
X8485Y8586
X8535Y14036
X8885Y16336
X8985Y8561
X9060Y19611
X9085Y18161
X9160Y11286
X9425Y7425
X9460Y14736
X9560Y9411
X9610Y16436
X9710Y17236
X9760Y16011
X9860Y11236
X9910Y18586
X9910Y18036
X9910Y11761
X10010Y9911
X10060Y14736
X10185Y13311
X10285Y16836
X10560Y13561
X10610Y7811
X10635Y17736
X10835Y11586
X10860Y9886
X11060Y13636
X11060Y13036
X11110Y11236
X11335Y13961
X11360Y13336
X11485Y12111
X11510Y12561
X11535Y16661
X11535Y15986
X11550Y8250
X11635Y14286
X11835Y8861
X12250Y8875
X12560Y14936
X12860Y13836
X12860Y13386
X12975Y7450
X13010Y3786
X13250Y8925
X13350Y11175
X13500Y16200
X13810Y8736
X14175Y10625
X14210Y9036
X14260Y13536
X15010Y13586
X15100Y9275
X15225Y16450
X15310Y3736
X15960Y15436
X15960Y9186
X16010Y11086
X16260Y13586
X16360Y9586
X16460Y11086
X16810Y16336
X16810Y15836
X16860Y11386
X16910Y11936
X16960Y14786
X17010Y14286
X18250Y19475
X18350Y9450
X18410Y8686
X18475Y21725
X18475Y21100
X18525Y13000
X18950Y8850
X19060Y11836
X19075Y7925
X19110Y12386
X20010Y17836
X20825Y7075
X20975Y17425
X21710Y21186
X21950Y22200
X22060Y18286
X22475Y22500
X22910Y20286
X23475Y19750
T4
X1460Y6107
X1460Y4336
X4564Y1211
X6335Y1211
T6
X1535Y12536
X1535Y11536
X1535Y10536
X1535Y9536
X2960Y12536
X2960Y11536
X2960Y10536
X2960Y9536
X4110Y21836
X4110Y20836
X4385Y12536
X4385Y11536
X4385Y10536
X4385Y9536
X5110Y21836
X5110Y20836
X6110Y21836
X6110Y20836
X7110Y21836
X7110Y20836
X7410Y5211
X8110Y21836
X8110Y20836
X8410Y5211
X9110Y21836
X9110Y20836
X9410Y5211
X10110Y21836
X10110Y20836
X10410Y5211
X11110Y21836
X11110Y20836
X11410Y5211
X12110Y21836
X12110Y20836
X12410Y5211
X13110Y21836
X13110Y20836
X14110Y21836
X14110Y20836
X15110Y21836
X15110Y20836
X16025Y7050
X16110Y21836
X16110Y20836
X17025Y7050
X17701Y5169
X18025Y7050
X18701Y5169
X19701Y5169
X21450Y8796
X22450Y8796
T7
X21260Y16086
X21260Y13536
X21300Y10886
X22244Y16086
X22244Y13536
X22284Y10886
X23229Y16086
X23229Y13536
X23269Y10886
X24213Y16086
X24213Y13536
X24253Y10886
X25197Y16086
X25197Y13536
X25237Y10886
T8
X16410Y2436
X18379Y2436
X20510Y2436
X22479Y2436
T9
X2441Y6603
X2441Y3844
X4068Y2191
X6827Y2191
T10
X2185Y21318
X2185Y2027
X25020Y21318
X25020Y2027
T2
X12606Y2547G85X12606Y2704
G05
X14515Y2547G85X14515Y2704
G05
T3
X12487Y1346G85X12487Y1543
G05
X14633Y1346G85X14633Y1543
G05
T5
X16725Y3695G85X17591Y3695
G05
X16725Y1255G85X17591Y1255
G05
X19127Y2042G85X19127Y2908
G05
X20825Y3695G85X21691Y3695
G05
X20825Y1255G85X21691Y1255
G05
X23227Y2042G85X23227Y2908
G05
T0
M30
