G04 #@! TF.FileFunction,Soldermask,Top*
%FSLAX46Y46*%
G04 Gerber Fmt 4.6, Leading zero omitted, Abs format (unit mm)*
G04 Created by KiCad (PCBNEW 4.0.2-stable) date 4/21/2016 11:26:25 AM*
%MOMM*%
G01*
G04 APERTURE LIST*
%ADD10C,0.100000*%
%ADD11R,0.800000X0.750000*%
%ADD12R,0.750000X0.800000*%
%ADD13R,0.797560X0.797560*%
%ADD14R,2.029460X1.140460*%
%ADD15R,1.180000X4.340000*%
%ADD16R,0.400000X1.650000*%
%ADD17O,1.100000X1.500000*%
%ADD18O,1.200000X1.700000*%
%ADD19R,1.425000X2.500000*%
%ADD20O,3.500000X5.900000*%
%ADD21O,2.400000X5.200000*%
%ADD22O,5.200000X2.000000*%
%ADD23O,6.500000X2.000000*%
%ADD24O,2.050000X4.000000*%
%ADD25R,1.727200X2.032000*%
%ADD26O,1.727200X2.032000*%
%ADD27R,3.000000X1.500000*%
%ADD28R,1.727200X1.727200*%
%ADD29O,1.727200X1.727200*%
%ADD30R,2.032000X1.727200*%
%ADD31O,2.032000X1.727200*%
%ADD32R,2.032000X2.032000*%
%ADD33O,2.032000X2.032000*%
%ADD34C,1.800000*%
%ADD35R,0.900000X0.500000*%
%ADD36R,0.500000X0.900000*%
%ADD37R,3.500000X1.600000*%
%ADD38R,1.500000X0.300000*%
%ADD39R,0.300000X1.500000*%
%ADD40R,0.650000X1.060000*%
%ADD41R,0.300000X1.200000*%
%ADD42R,1.550000X0.600000*%
%ADD43R,0.800000X1.900000*%
%ADD44C,2.100000*%
%ADD45C,1.750000*%
%ADD46R,2.800000X1.000000*%
%ADD47R,1.600000X1.000000*%
G04 APERTURE END LIST*
D10*
D11*
X34582000Y24347500D03*
X36082000Y24347500D03*
D12*
X15303500Y26809000D03*
X15303500Y28309000D03*
D11*
X18834000Y40984500D03*
X20334000Y40984500D03*
D12*
X16827500Y26809000D03*
X16827500Y28309000D03*
D11*
X18834000Y42445000D03*
X20334000Y42445000D03*
D12*
X38888000Y36908500D03*
X38888000Y35408500D03*
X34062000Y35345000D03*
X34062000Y36845000D03*
X35205000Y30304500D03*
X35205000Y28804500D03*
X35205000Y31725500D03*
X35205000Y33225500D03*
D11*
X13095000Y8028000D03*
X11595000Y8028000D03*
X8674000Y14251000D03*
X10174000Y14251000D03*
D12*
X56604500Y53937800D03*
X56604500Y55437800D03*
X54128000Y46560500D03*
X54128000Y45060500D03*
D11*
X9880500Y21553500D03*
X11380500Y21553500D03*
X51957000Y50509500D03*
X50457000Y50509500D03*
X6197500Y21553500D03*
X7697500Y21553500D03*
D12*
X45291340Y52366940D03*
X45291340Y50866940D03*
X47424940Y52397420D03*
X47424940Y50897420D03*
D11*
X2832000Y21553500D03*
X4332000Y21553500D03*
D13*
X26950000Y16867200D03*
X26950000Y18365800D03*
X20572060Y16869740D03*
X20572060Y18368340D03*
D14*
X36983000Y9554540D03*
X36983000Y11962460D03*
D15*
X53195820Y54045180D03*
X49885820Y54045180D03*
D16*
X33143000Y6543500D03*
X33793000Y6543500D03*
X34442100Y6543500D03*
X35093000Y6543500D03*
X35743000Y6543500D03*
D17*
X32018000Y6668500D03*
X36868000Y6668500D03*
D18*
X31718000Y3668500D03*
X37168000Y3668500D03*
D19*
X33480500Y3418500D03*
X35405500Y3418500D03*
D20*
X47382000Y5146500D03*
D21*
X41682000Y7786500D03*
D22*
X43082000Y9386500D03*
D23*
X44882000Y3186500D03*
D24*
X48332000Y6136500D03*
D20*
X57796000Y5146500D03*
D21*
X52096000Y7786500D03*
D22*
X53496000Y9386500D03*
D23*
X55296000Y3186500D03*
D24*
X58746000Y6136500D03*
D25*
X44961140Y13128320D03*
D26*
X47501140Y13128320D03*
X50041140Y13128320D03*
D27*
X9987000Y46572500D03*
X9987000Y44032500D03*
X9987000Y41492500D03*
X9987000Y38952500D03*
X5487000Y47842500D03*
X5487000Y45302500D03*
X5487000Y42762500D03*
X5487000Y40222500D03*
X9987000Y36412500D03*
X5487000Y37682500D03*
D25*
X18822000Y13235000D03*
D26*
X21362000Y13235000D03*
X23902000Y13235000D03*
X26442000Y13235000D03*
X28982000Y13235000D03*
X31522000Y13235000D03*
D28*
X10440000Y52922500D03*
D29*
X10440000Y55462500D03*
X12980000Y52922500D03*
X12980000Y55462500D03*
X15520000Y52922500D03*
X15520000Y55462500D03*
X18060000Y52922500D03*
X18060000Y55462500D03*
X20600000Y52922500D03*
X20600000Y55462500D03*
X23140000Y52922500D03*
X23140000Y55462500D03*
X25680000Y52922500D03*
X25680000Y55462500D03*
X28220000Y52922500D03*
X28220000Y55462500D03*
X30760000Y52922500D03*
X30760000Y55462500D03*
X33300000Y52922500D03*
X33300000Y55462500D03*
X35840000Y52922500D03*
X35840000Y55462500D03*
X38380000Y52922500D03*
X38380000Y55462500D03*
X40920000Y52922500D03*
X40920000Y55462500D03*
D25*
X45783500Y17907000D03*
D26*
X43243500Y17907000D03*
X40703500Y17907000D03*
D30*
X11138500Y31840500D03*
D31*
X11138500Y29300500D03*
X11138500Y26760500D03*
X11138500Y24220500D03*
D30*
X7519000Y31840500D03*
D31*
X7519000Y29300500D03*
X7519000Y26760500D03*
X7519000Y24220500D03*
D32*
X54483600Y22340900D03*
D33*
X57023600Y22340900D03*
D34*
X54102600Y27649500D03*
X56602600Y27649500D03*
X59102600Y27649500D03*
X61602600Y27649500D03*
X64102600Y27649500D03*
X54001000Y34380500D03*
X56501000Y34380500D03*
X59001000Y34380500D03*
X61501000Y34380500D03*
X64001000Y34380500D03*
X54001000Y40857500D03*
X56501000Y40857500D03*
X59001000Y40857500D03*
X61501000Y40857500D03*
X64001000Y40857500D03*
D30*
X3899500Y31840500D03*
D31*
X3899500Y29300500D03*
X3899500Y26760500D03*
X3899500Y24220500D03*
D35*
X41428000Y35662500D03*
X41428000Y37162500D03*
X32829500Y25197500D03*
X32829500Y23697500D03*
D36*
X38876000Y38444500D03*
X37376000Y38444500D03*
D35*
X37364000Y35408500D03*
X37364000Y36908500D03*
D36*
X28335000Y23585500D03*
X26835000Y23585500D03*
D35*
X35586000Y37035500D03*
X35586000Y35535500D03*
D36*
X14897000Y8790000D03*
X16397000Y8790000D03*
D35*
X28791500Y18366500D03*
X28791500Y16866500D03*
X22403400Y16846180D03*
X22403400Y18346180D03*
D36*
X11341000Y9806000D03*
X12841000Y9806000D03*
X10301000Y12346000D03*
X8801000Y12346000D03*
D35*
X9614500Y9730500D03*
X9614500Y8230500D03*
X12154500Y12358000D03*
X12154500Y13858000D03*
X52350000Y45314500D03*
X52350000Y46814500D03*
D36*
X57164000Y44667500D03*
X55664000Y44667500D03*
X11190000Y19712000D03*
X9690000Y19712000D03*
X50584000Y48604500D03*
X52084000Y48604500D03*
D35*
X57684000Y46330500D03*
X57684000Y47830500D03*
X59462000Y47473500D03*
X59462000Y48973500D03*
X59589000Y44552500D03*
X59589000Y46052500D03*
D36*
X7570500Y19775500D03*
X6070500Y19775500D03*
X4268500Y19775500D03*
X2768500Y19775500D03*
D35*
X54763000Y15596500D03*
X54763000Y17096500D03*
D37*
X62256000Y18276900D03*
X62256000Y13400100D03*
D38*
X30995000Y29106500D03*
X30995000Y29606500D03*
X30995000Y30106500D03*
X30995000Y30606500D03*
X30995000Y31106500D03*
X30995000Y31606500D03*
X30995000Y32106500D03*
X30995000Y32606500D03*
X30995000Y33106500D03*
X30995000Y33606500D03*
X30995000Y34106500D03*
X30995000Y34606500D03*
X30995000Y35106500D03*
X30995000Y35606500D03*
X30995000Y36106500D03*
X30995000Y36606500D03*
D39*
X28795000Y38806500D03*
X28295000Y38806500D03*
X27795000Y38806500D03*
X27295000Y38806500D03*
X26795000Y38806500D03*
X26295000Y38806500D03*
X25795000Y38806500D03*
X25295000Y38806500D03*
X24795000Y38806500D03*
X24295000Y38806500D03*
X23795000Y38806500D03*
X23295000Y38806500D03*
X22795000Y38806500D03*
X22295000Y38806500D03*
X21795000Y38806500D03*
X21295000Y38806500D03*
D38*
X19095000Y36606500D03*
X19095000Y36106500D03*
X19095000Y35606500D03*
X19095000Y35106500D03*
X19095000Y34606500D03*
X19095000Y34106500D03*
X19095000Y33606500D03*
X19095000Y33106500D03*
X19095000Y32606500D03*
X19095000Y32106500D03*
X19095000Y31606500D03*
X19095000Y31106500D03*
X19095000Y30606500D03*
X19095000Y30106500D03*
X19095000Y29606500D03*
X19095000Y29106500D03*
D39*
X21295000Y26906500D03*
X21795000Y26906500D03*
X22295000Y26906500D03*
X22795000Y26906500D03*
X23295000Y26906500D03*
X23795000Y26906500D03*
X24295000Y26906500D03*
X24795000Y26906500D03*
X25295000Y26906500D03*
X25795000Y26906500D03*
X26295000Y26906500D03*
X26795000Y26906500D03*
X27295000Y26906500D03*
X27795000Y26906500D03*
X28295000Y26906500D03*
X28795000Y26906500D03*
D40*
X56607000Y15246500D03*
X57557000Y15246500D03*
X58507000Y15246500D03*
X58507000Y17446500D03*
X56607000Y17446500D03*
D41*
X57198860Y51972540D03*
X56548860Y51972540D03*
X55898860Y51972540D03*
X55248860Y51972540D03*
X55248860Y49372540D03*
X55898860Y49372540D03*
X56548860Y49372540D03*
X57198860Y49372540D03*
D42*
X44730000Y30316500D03*
X44730000Y29046500D03*
X44730000Y27776500D03*
X44730000Y26506500D03*
X44730000Y25236500D03*
X44730000Y23966500D03*
X44730000Y22696500D03*
X44730000Y21426500D03*
X50130000Y21426500D03*
X50130000Y22696500D03*
X50130000Y23966500D03*
X50130000Y25236500D03*
X50130000Y26506500D03*
X50130000Y27776500D03*
X50130000Y29046500D03*
X50130000Y30316500D03*
X44730000Y41365500D03*
X44730000Y40095500D03*
X44730000Y38825500D03*
X44730000Y37555500D03*
X44730000Y36285500D03*
X44730000Y35015500D03*
X44730000Y33745500D03*
X44730000Y32475500D03*
X50130000Y32475500D03*
X50130000Y33745500D03*
X50130000Y35015500D03*
X50130000Y36285500D03*
X50130000Y37555500D03*
X50130000Y38825500D03*
X50130000Y40095500D03*
X50130000Y41365500D03*
D43*
X39396000Y29046500D03*
X39396000Y32746500D03*
X37096000Y32746500D03*
X37096000Y29046500D03*
D44*
X10331500Y5565000D03*
D45*
X11591500Y3075000D03*
X16091500Y3075000D03*
D44*
X17341500Y5565000D03*
X6199000Y16772500D03*
D45*
X3709000Y15512500D03*
X3709000Y11012500D03*
D44*
X6199000Y9762500D03*
D46*
X27289000Y3456500D03*
X21489000Y3456500D03*
X27289000Y7456500D03*
X21489000Y7456500D03*
D47*
X58737500Y53237000D03*
X58737500Y56237000D03*
M02*
